<svg width="1440" height="2741" viewBox="0 0 1440 2741" fill="none" xmlns="http://www.w3.org/2000/svg">
<g clip-path="url(#clip0_217:3376)">
<rect width="1440" height="2741" fill="white"/>
<circle opacity="0.1" cx="130" cy="117" r="13" fill="#C4C4C4"/>
<circle opacity="0.1" cx="333" cy="117" r="13" fill="#C4C4C4"/>
<circle opacity="0.1" cx="536" cy="117" r="13" fill="#C4C4C4"/>
<circle opacity="0.1" cx="739" cy="117" r="13" fill="#C4C4C4"/>
<circle opacity="0.1" cx="942" cy="117" r="13" fill="#C4C4C4"/>
<circle opacity="0.1" cx="1145" cy="117" r="13" fill="#C4C4C4"/>
<circle opacity="0.1" cx="1348" cy="117" r="13" fill="#C4C4C4"/>
<circle opacity="0.1" cx="130" cy="219" r="13" fill="#C4C4C4"/>
<circle opacity="0.1" cx="333" cy="219" r="13" fill="#C4C4C4"/>
<circle opacity="0.1" cx="536" cy="219" r="13" fill="#C4C4C4"/>
<circle opacity="0.1" cx="739" cy="219" r="13" fill="#C4C4C4"/>
<circle opacity="0.1" cx="942" cy="219" r="13" fill="#C4C4C4"/>
<circle opacity="0.1" cx="1145" cy="219" r="13" fill="#C4C4C4"/>
<circle opacity="0.1" cx="1348" cy="219" r="13" fill="#C4C4C4"/>
<circle opacity="0.1" cx="130" cy="321" r="13" fill="#C4C4C4"/>
<circle opacity="0.1" cx="333" cy="321" r="13" fill="#C4C4C4"/>
<circle opacity="0.1" cx="536" cy="321" r="13" fill="#C4C4C4"/>
<circle opacity="0.1" cx="739" cy="321" r="13" fill="#C4C4C4"/>
<circle opacity="0.1" cx="942" cy="321" r="13" fill="#C4C4C4"/>
<circle opacity="0.1" cx="1145" cy="321" r="13" fill="#C4C4C4"/>
<circle opacity="0.1" cx="1348" cy="321" r="13" fill="#C4C4C4"/>
<circle opacity="0.1" cx="130" cy="423" r="13" fill="#C4C4C4"/>
<circle opacity="0.1" cx="333" cy="423" r="13" fill="#C4C4C4"/>
<circle opacity="0.1" cx="536" cy="423" r="13" fill="#C4C4C4"/>
<circle opacity="0.1" cx="739" cy="423" r="13" fill="#C4C4C4"/>
<circle opacity="0.1" cx="942" cy="423" r="13" fill="#C4C4C4"/>
<circle opacity="0.1" cx="1145" cy="423" r="13" fill="#C4C4C4"/>
<circle opacity="0.1" cx="1348" cy="423" r="13" fill="#C4C4C4"/>
<circle opacity="0.1" cx="130" cy="525" r="13" fill="#C4C4C4"/>
<circle opacity="0.1" cx="333" cy="525" r="13" fill="#C4C4C4"/>
<circle opacity="0.1" cx="536" cy="525" r="13" fill="#C4C4C4"/>
<circle opacity="0.1" cx="739" cy="525" r="13" fill="#C4C4C4"/>
<circle opacity="0.1" cx="942" cy="525" r="13" fill="#C4C4C4"/>
<circle opacity="0.1" cx="1145" cy="525" r="13" fill="#C4C4C4"/>
<circle opacity="0.1" cx="1348" cy="525" r="13" fill="#C4C4C4"/>
<circle opacity="0.1" cx="130" cy="627" r="13" fill="#C4C4C4"/>
<circle opacity="0.1" cx="333" cy="627" r="13" fill="#C4C4C4"/>
<circle opacity="0.1" cx="536" cy="627" r="13" fill="#C4C4C4"/>
<circle opacity="0.1" cx="739" cy="627" r="13" fill="#C4C4C4"/>
<circle opacity="0.1" cx="942" cy="627" r="13" fill="#C4C4C4"/>
<circle opacity="0.1" cx="1145" cy="627" r="13" fill="#C4C4C4"/>
<circle opacity="0.1" cx="1348" cy="627" r="13" fill="#C4C4C4"/>
<circle opacity="0.1" cx="130" cy="729" r="13" fill="#C4C4C4"/>
<circle opacity="0.1" cx="333" cy="729" r="13" fill="#C4C4C4"/>
<circle opacity="0.1" cx="536" cy="729" r="13" fill="#C4C4C4"/>
<circle opacity="0.1" cx="739" cy="729" r="13" fill="#C4C4C4"/>
<circle opacity="0.1" cx="942" cy="729" r="13" fill="#C4C4C4"/>
<circle opacity="0.1" cx="1145" cy="729" r="13" fill="#C4C4C4"/>
<circle opacity="0.1" cx="1348" cy="729" r="13" fill="#C4C4C4"/>
<circle opacity="0.1" cx="130" cy="831" r="13" fill="#C4C4C4"/>
<circle opacity="0.1" cx="333" cy="831" r="13" fill="#C4C4C4"/>
<circle opacity="0.1" cx="536" cy="831" r="13" fill="#C4C4C4"/>
<circle opacity="0.1" cx="739" cy="831" r="13" fill="#C4C4C4"/>
<circle opacity="0.1" cx="942" cy="831" r="13" fill="#C4C4C4"/>
<circle opacity="0.1" cx="1145" cy="831" r="13" fill="#C4C4C4"/>
<circle opacity="0.1" cx="1348" cy="831" r="13" fill="#C4C4C4"/>
<circle opacity="0.1" cx="130" cy="933" r="13" fill="#C4C4C4"/>
<circle opacity="0.1" cx="333" cy="933" r="13" fill="#C4C4C4"/>
<circle opacity="0.1" cx="536" cy="933" r="13" fill="#C4C4C4"/>
<circle opacity="0.1" cx="739" cy="933" r="13" fill="#C4C4C4"/>
<circle opacity="0.1" cx="942" cy="933" r="13" fill="#C4C4C4"/>
<circle opacity="0.1" cx="1145" cy="933" r="13" fill="#C4C4C4"/>
<circle opacity="0.1" cx="1348" cy="933" r="13" fill="#C4C4C4"/>
<circle opacity="0.1" cx="130" cy="1035" r="13" fill="#C4C4C4"/>
<circle opacity="0.1" cx="333" cy="1035" r="13" fill="#C4C4C4"/>
<circle opacity="0.1" cx="536" cy="1035" r="13" fill="#C4C4C4"/>
<circle opacity="0.1" cx="739" cy="1035" r="13" fill="#C4C4C4"/>
<circle opacity="0.1" cx="942" cy="1035" r="13" fill="#C4C4C4"/>
<circle opacity="0.1" cx="1145" cy="1035" r="13" fill="#C4C4C4"/>
<circle opacity="0.1" cx="1348" cy="1035" r="13" fill="#C4C4C4"/>
<circle opacity="0.1" cx="130" cy="1137" r="13" fill="#C4C4C4"/>
<circle opacity="0.1" cx="333" cy="1137" r="13" fill="#C4C4C4"/>
<circle opacity="0.1" cx="536" cy="1137" r="13" fill="#C4C4C4"/>
<circle opacity="0.1" cx="739" cy="1137" r="13" fill="#C4C4C4"/>
<circle opacity="0.1" cx="942" cy="1137" r="13" fill="#C4C4C4"/>
<circle opacity="0.1" cx="1145" cy="1137" r="13" fill="#C4C4C4"/>
<circle opacity="0.1" cx="1348" cy="1137" r="13" fill="#C4C4C4"/>
<circle opacity="0.1" cx="130" cy="1239" r="13" fill="#C4C4C4"/>
<circle opacity="0.1" cx="333" cy="1239" r="13" fill="#C4C4C4"/>
<circle opacity="0.1" cx="536" cy="1239" r="13" fill="#C4C4C4"/>
<circle opacity="0.1" cx="739" cy="1239" r="13" fill="#C4C4C4"/>
<circle opacity="0.1" cx="942" cy="1239" r="13" fill="#C4C4C4"/>
<circle opacity="0.1" cx="1145" cy="1239" r="13" fill="#C4C4C4"/>
<circle opacity="0.1" cx="1348" cy="1239" r="13" fill="#C4C4C4"/>
<circle opacity="0.1" cx="130" cy="1341" r="13" fill="#C4C4C4"/>
<circle opacity="0.1" cx="333" cy="1341" r="13" fill="#C4C4C4"/>
<circle opacity="0.1" cx="536" cy="1341" r="13" fill="#C4C4C4"/>
<circle opacity="0.1" cx="739" cy="1341" r="13" fill="#C4C4C4"/>
<circle opacity="0.1" cx="942" cy="1341" r="13" fill="#C4C4C4"/>
<circle opacity="0.1" cx="1145" cy="1341" r="13" fill="#C4C4C4"/>
<circle opacity="0.1" cx="1348" cy="1341" r="13" fill="#C4C4C4"/>
<circle opacity="0.1" cx="130" cy="1443" r="13" fill="#C4C4C4"/>
<circle opacity="0.1" cx="333" cy="1443" r="13" fill="#C4C4C4"/>
<circle opacity="0.1" cx="536" cy="1443" r="13" fill="#C4C4C4"/>
<circle opacity="0.1" cx="739" cy="1443" r="13" fill="#C4C4C4"/>
<circle opacity="0.1" cx="942" cy="1443" r="13" fill="#C4C4C4"/>
<circle opacity="0.1" cx="1145" cy="1443" r="13" fill="#C4C4C4"/>
<circle opacity="0.1" cx="1348" cy="1443" r="13" fill="#C4C4C4"/>
<circle opacity="0.1" cx="130" cy="1545" r="13" fill="#C4C4C4"/>
<circle opacity="0.1" cx="333" cy="1545" r="13" fill="#C4C4C4"/>
<circle opacity="0.1" cx="536" cy="1545" r="13" fill="#C4C4C4"/>
<circle opacity="0.1" cx="739" cy="1545" r="13" fill="#C4C4C4"/>
<circle opacity="0.1" cx="942" cy="1545" r="13" fill="#C4C4C4"/>
<circle opacity="0.1" cx="1145" cy="1545" r="13" fill="#C4C4C4"/>
<circle opacity="0.1" cx="1348" cy="1545" r="13" fill="#C4C4C4"/>
<circle opacity="0.1" cx="130" cy="1647" r="13" fill="#C4C4C4"/>
<circle opacity="0.1" cx="333" cy="1647" r="13" fill="#C4C4C4"/>
<circle opacity="0.1" cx="536" cy="1647" r="13" fill="#C4C4C4"/>
<circle opacity="0.1" cx="739" cy="1647" r="13" fill="#C4C4C4"/>
<circle opacity="0.1" cx="942" cy="1647" r="13" fill="#C4C4C4"/>
<circle opacity="0.1" cx="1145" cy="1647" r="13" fill="#C4C4C4"/>
<circle opacity="0.1" cx="1348" cy="1647" r="13" fill="#C4C4C4"/>
<circle opacity="0.1" cx="130" cy="1749" r="13" fill="#C4C4C4"/>
<circle opacity="0.1" cx="333" cy="1749" r="13" fill="#C4C4C4"/>
<circle opacity="0.1" cx="536" cy="1749" r="13" fill="#C4C4C4"/>
<circle opacity="0.1" cx="739" cy="1749" r="13" fill="#C4C4C4"/>
<circle opacity="0.1" cx="942" cy="1749" r="13" fill="#C4C4C4"/>
<circle opacity="0.1" cx="1145" cy="1749" r="13" fill="#C4C4C4"/>
<circle opacity="0.1" cx="1348" cy="1749" r="13" fill="#C4C4C4"/>
<circle opacity="0.1" cx="130" cy="1851" r="13" fill="#C4C4C4"/>
<circle opacity="0.1" cx="333" cy="1851" r="13" fill="#C4C4C4"/>
<circle opacity="0.1" cx="536" cy="1851" r="13" fill="#C4C4C4"/>
<circle opacity="0.1" cx="739" cy="1851" r="13" fill="#C4C4C4"/>
<circle opacity="0.1" cx="942" cy="1851" r="13" fill="#C4C4C4"/>
<circle opacity="0.1" cx="1145" cy="1851" r="13" fill="#C4C4C4"/>
<circle opacity="0.1" cx="1348" cy="1851" r="13" fill="#C4C4C4"/>
<circle opacity="0.1" cx="130" cy="1953" r="13" fill="#C4C4C4"/>
<circle opacity="0.1" cx="333" cy="1953" r="13" fill="#C4C4C4"/>
<circle opacity="0.1" cx="536" cy="1953" r="13" fill="#C4C4C4"/>
<circle opacity="0.1" cx="739" cy="1953" r="13" fill="#C4C4C4"/>
<circle opacity="0.1" cx="942" cy="1953" r="13" fill="#C4C4C4"/>
<circle opacity="0.1" cx="1145" cy="1953" r="13" fill="#C4C4C4"/>
<circle opacity="0.1" cx="1348" cy="1953" r="13" fill="#C4C4C4"/>
<circle opacity="0.1" cx="130" cy="2055" r="13" fill="#C4C4C4"/>
<circle opacity="0.1" cx="333" cy="2055" r="13" fill="#C4C4C4"/>
<circle opacity="0.1" cx="536" cy="2055" r="13" fill="#C4C4C4"/>
<circle opacity="0.1" cx="739" cy="2055" r="13" fill="#C4C4C4"/>
<circle opacity="0.1" cx="942" cy="2055" r="13" fill="#C4C4C4"/>
<circle opacity="0.1" cx="1145" cy="2055" r="13" fill="#C4C4C4"/>
<circle opacity="0.1" cx="1348" cy="2055" r="13" fill="#C4C4C4"/>
<circle opacity="0.1" cx="130" cy="2157" r="13" fill="#C4C4C4"/>
<circle opacity="0.1" cx="333" cy="2157" r="13" fill="#C4C4C4"/>
<circle opacity="0.1" cx="536" cy="2157" r="13" fill="#C4C4C4"/>
<circle opacity="0.1" cx="739" cy="2157" r="13" fill="#C4C4C4"/>
<circle opacity="0.1" cx="942" cy="2157" r="13" fill="#C4C4C4"/>
<circle opacity="0.1" cx="1145" cy="2157" r="13" fill="#C4C4C4"/>
<circle opacity="0.1" cx="1348" cy="2157" r="13" fill="#C4C4C4"/>
<circle opacity="0.1" cx="130" cy="2259" r="13" fill="#C4C4C4"/>
<circle opacity="0.1" cx="333" cy="2259" r="13" fill="#C4C4C4"/>
<circle opacity="0.1" cx="536" cy="2259" r="13" fill="#C4C4C4"/>
<circle opacity="0.1" cx="739" cy="2259" r="13" fill="#C4C4C4"/>
<circle opacity="0.1" cx="942" cy="2259" r="13" fill="#C4C4C4"/>
<circle opacity="0.1" cx="1145" cy="2259" r="13" fill="#C4C4C4"/>
<circle opacity="0.1" cx="1348" cy="2259" r="13" fill="#C4C4C4"/>
<circle opacity="0.1" cx="130" cy="2361" r="13" fill="#C4C4C4"/>
<circle opacity="0.1" cx="333" cy="2361" r="13" fill="#C4C4C4"/>
<circle opacity="0.1" cx="536" cy="2361" r="13" fill="#C4C4C4"/>
<circle opacity="0.1" cx="739" cy="2361" r="13" fill="#C4C4C4"/>
<circle opacity="0.1" cx="942" cy="2361" r="13" fill="#C4C4C4"/>
<circle opacity="0.1" cx="1145" cy="2361" r="13" fill="#C4C4C4"/>
<circle opacity="0.1" cx="1348" cy="2361" r="13" fill="#C4C4C4"/>
<circle opacity="0.1" cx="130" cy="2463" r="13" fill="#C4C4C4"/>
<circle opacity="0.1" cx="333" cy="2463" r="13" fill="#C4C4C4"/>
<circle opacity="0.1" cx="536" cy="2463" r="13" fill="#C4C4C4"/>
<circle opacity="0.1" cx="739" cy="2463" r="13" fill="#C4C4C4"/>
<circle opacity="0.1" cx="942" cy="2463" r="13" fill="#C4C4C4"/>
<circle opacity="0.1" cx="1145" cy="2463" r="13" fill="#C4C4C4"/>
<circle opacity="0.1" cx="1348" cy="2463" r="13" fill="#C4C4C4"/>
<circle opacity="0.1" cx="130" cy="2565" r="13" fill="#C4C4C4"/>
<circle opacity="0.1" cx="333" cy="2565" r="13" fill="#C4C4C4"/>
<circle opacity="0.1" cx="536" cy="2565" r="13" fill="#C4C4C4"/>
<circle opacity="0.1" cx="739" cy="2565" r="13" fill="#C4C4C4"/>
<circle opacity="0.1" cx="942" cy="2565" r="13" fill="#C4C4C4"/>
<circle opacity="0.1" cx="1145" cy="2565" r="13" fill="#C4C4C4"/>
<circle opacity="0.1" cx="1348" cy="2565" r="13" fill="#C4C4C4"/>
<circle opacity="0.1" cx="130" cy="2667" r="13" fill="#C4C4C4"/>
<circle opacity="0.1" cx="333" cy="2667" r="13" fill="#C4C4C4"/>
<circle opacity="0.1" cx="536" cy="2667" r="13" fill="#C4C4C4"/>
<circle opacity="0.1" cx="739" cy="2667" r="13" fill="#C4C4C4"/>
<circle opacity="0.1" cx="942" cy="2667" r="13" fill="#C4C4C4"/>
<circle opacity="0.1" cx="1145" cy="2667" r="13" fill="#C4C4C4"/>
<circle opacity="0.1" cx="1348" cy="2667" r="13" fill="#C4C4C4"/>
<g opacity="0.2" filter="url(#filter0_f_217:3376)">
<circle cx="691.126" cy="513.126" r="480.318" transform="rotate(-30 691.126 513.126)" fill="url(#paint0_linear_217:3376)"/>
</g>
<g opacity="0.2" filter="url(#filter1_f_217:3376)">
<circle cx="2084.21" cy="2403.29" r="904.237" transform="rotate(-30 2084.21 2403.29)" fill="url(#paint1_linear_217:3376)"/>
</g>
<g opacity="0.2" filter="url(#filter2_f_217:3376)">
<circle cx="177.893" cy="1392.24" r="313.972" transform="rotate(-30 177.893 1392.24)" fill="url(#paint2_linear_217:3376)"/>
</g>
</g>
<defs>
<filter id="filter0_f_217:3376" x="-273.272" y="-451.271" width="1928.8" height="1928.8" filterUnits="userSpaceOnUse" color-interpolation-filters="sRGB">
<feFlood flood-opacity="0" result="BackgroundImageFix"/>
<feBlend mode="normal" in="SourceGraphic" in2="BackgroundImageFix" result="shape"/>
<feGaussianBlur stdDeviation="242" result="effect1_foregroundBlur_217:3376"/>
</filter>
<filter id="filter1_f_217:3376" x="695.823" y="1014.9" width="2776.78" height="2776.78" filterUnits="userSpaceOnUse" color-interpolation-filters="sRGB">
<feFlood flood-opacity="0" result="BackgroundImageFix"/>
<feBlend mode="normal" in="SourceGraphic" in2="BackgroundImageFix" result="shape"/>
<feGaussianBlur stdDeviation="242" result="effect1_foregroundBlur_217:3376"/>
</filter>
<filter id="filter2_f_217:3376" x="-620.131" y="594.215" width="1596.05" height="1596.05" filterUnits="userSpaceOnUse" color-interpolation-filters="sRGB">
<feFlood flood-opacity="0" result="BackgroundImageFix"/>
<feBlend mode="normal" in="SourceGraphic" in2="BackgroundImageFix" result="shape"/>
<feGaussianBlur stdDeviation="242" result="effect1_foregroundBlur_217:3376"/>
</filter>
<linearGradient id="paint0_linear_217:3376" x1="1171.44" y1="356.287" x2="210.708" y2="354.73" gradientUnits="userSpaceOnUse">
<stop stop-color="#80D0C7"/>
<stop offset="1" stop-color="#0093E9"/>
</linearGradient>
<linearGradient id="paint1_linear_217:3376" x1="2988.45" y1="2108.03" x2="1179.78" y2="2105.1" gradientUnits="userSpaceOnUse">
<stop stop-color="#80D0C7"/>
<stop offset="1" stop-color="#0093E9"/>
</linearGradient>
<linearGradient id="paint2_linear_217:3376" x1="177.893" y1="1078.27" x2="177.893" y2="1706.21" gradientUnits="userSpaceOnUse">
<stop stop-color="#4158D0"/>
<stop offset="0.526042" stop-color="#C850C0"/>
<stop offset="1" stop-color="#FFCC70"/>
</linearGradient>
<clipPath id="clip0_217:3376">
<rect width="1440" height="2741" fill="white"/>
</clipPath>
</defs>
</svg>
