<svg width="96" height="150" viewBox="0 0 96 150" fill="none" xmlns="http://www.w3.org/2000/svg">
<path d="M5.83478 71.7031C5.83478 71.7031 -4.4244 95.6042 3.57776 114.354C10.3488 125.687 50.9752 98.9009 44.8197 76.8542C41.3315 68.2004 33.9449 69.4366 29.0205 75.2059C24.0961 80.9751 21.2235 91.4833 17.3251 93.9559C13.4266 96.6344 21.2235 74.7938 19.5821 70.879C18.1458 67.1702 9.3229 65.9339 5.83478 71.7031Z" fill="#A7B8D5"/>
<path d="M94.0637 150C96.7311 129.808 95.2948 87.5686 90.3704 74.3818C84.8304 59.3406 72.7246 54.6016 72.7246 54.6016C72.7246 54.6016 43.9989 62.0191 36.2019 67.7884C28.405 73.7637 28.405 89.8351 26.3531 108.585C24.7117 122.184 17.1199 138.049 17.9406 149.794H94.0637V150Z" fill="#C7D9EC"/>
<path d="M45.23 78.2966C45.23 78.2966 39.6901 116.209 42.3575 118.681C45.0248 121.36 54.0529 122.184 56.9255 119.093C57.3359 111.058 58.567 78.2966 58.567 76.4422C58.3618 74.3818 45.23 78.2966 45.23 78.2966Z" fill="#24ADB2"/>
<path d="M35.5864 74.5879C35.5864 74.5879 45.23 88.1868 62.2602 80.5632C79.2905 72.9396 76.2127 54.1896 73.7505 51.9231C71.2883 57.4863 66.5691 77.8846 35.5864 74.5879Z" fill="#2493B2"/>
<path d="M33.5346 67.7884C33.5346 67.7884 30.662 75.618 41.9471 79.5329C53.2322 83.4477 70.0572 74.9999 73.5454 65.3158C77.0335 55.6318 75.392 45.9477 68.4158 43.8873C61.2343 42.0329 35.5864 60.9889 33.5346 67.7884Z" fill="#24ADB2"/>
<path d="M38.6642 66.5518C38.6642 66.5518 59.3877 76.2359 68.621 51.7166C61.0292 46.5655 38.6642 66.5518 38.6642 66.5518Z" fill="#FB8585"/>
<path d="M30.662 24.5192C30.662 24.5192 26.5583 50.2747 31.8931 63.8736C35.9968 69.8488 54.4633 64.6977 63.4914 54.8076C72.5194 44.9175 75.1868 28.228 71.0831 18.1318C66.9795 7.82961 47.6922 7.62357 41.7419 9.89005C35.5864 12.1565 31.0723 20.3983 30.662 24.5192Z" fill="#FBA894"/>
<path d="M50.77 39.148C50.77 41.2085 49.1285 42.6508 47.2819 42.6508C45.23 42.6508 43.7937 41.0024 43.7937 39.148C43.7937 37.0876 45.4352 35.6453 47.2819 35.6453C49.3337 35.6453 50.77 37.0876 50.77 39.148Z" fill="#EA8D83"/>
<path d="M34.1501 41.4147C36.0765 41.4147 37.6382 39.8464 37.6382 37.9119C37.6382 35.9774 36.0765 34.4092 34.1501 34.4092C32.2237 34.4092 30.662 35.9774 30.662 37.9119C30.662 39.8464 32.2237 41.4147 34.1501 41.4147Z" fill="#EA8D83"/>
<path d="M51.7959 46.5657C51.7959 47.802 50.77 48.8322 49.3337 48.8322C47.8974 48.8322 46.8715 47.802 46.8715 46.5657C46.8715 45.3294 47.8974 44.2992 49.3337 44.2992C50.77 44.0932 51.7959 45.1234 51.7959 46.5657Z" fill="#FB8585"/>
<path d="M29.2257 44.0933C29.2257 45.5356 29.2257 47.1839 29.2257 48.6262C30.662 48.6262 31.6879 47.596 31.6879 46.3597C31.6879 45.1235 30.4568 44.0933 29.2257 44.0933Z" fill="#FB8585"/>
<path d="M45.8456 30.2884C45.8456 30.2884 47.6922 32.7609 50.5648 31.7307C51.7959 31.5246 51.5907 33.5851 49.5389 33.9971C47.487 34.4092 44.8197 33.9971 44.4093 31.9367C43.9989 30.0823 45.23 29.4642 45.8456 30.2884Z" fill="#505E83"/>
<path d="M35.7916 29.6701C35.7916 29.6701 34.1501 32.1426 31.0724 31.5245C29.8413 31.3184 30.2516 33.3788 32.3035 33.5849C34.3553 33.7909 37.0227 33.3788 37.2279 31.3184C37.4331 29.258 36.202 28.6398 35.7916 29.6701Z" fill="#505E83"/>
<path d="M38.459 41.0026C38.459 41.0026 34.7657 46.3598 35.176 49.0383C35.3812 51.7169 38.8693 49.2444 38.8693 49.2444C38.8693 49.2444 41.1264 50.8927 41.5367 49.8625C41.9471 48.8323 39.4849 46.3598 39.4849 46.3598C39.4849 46.3598 41.7419 39.1482 38.459 41.0026Z" fill="#FB6D71"/>
<path d="M44.4093 39.5601C44.4093 39.5601 46.4611 39.148 49.3337 40.3843C50.5648 40.3843 49.1285 38.942 47.487 38.7359C45.8456 38.5299 44.8197 38.5299 44.4093 38.942C43.7937 39.3541 44.4093 39.5601 44.4093 39.5601Z" fill="#505E83"/>
<path d="M36.6123 38.3239C36.6123 38.3239 34.5605 37.2937 31.4827 37.9118C30.2516 37.7058 32.0983 36.6755 33.7397 36.6755C35.3812 36.6755 36.4071 37.0876 36.8175 37.7058C37.2279 38.3239 36.6123 38.3239 36.6123 38.3239Z" fill="#505E83"/>
<path d="M29.0205 15.041C29.0205 15.041 26.3531 16.0712 27.5842 19.9861C28.8153 23.9009 31.4827 24.313 35.176 23.0767C38.8693 21.8405 40.5108 26.5795 44.6145 25.9613C48.7181 25.5492 52.2063 23.6949 54.8736 25.3432C57.541 26.9916 56.5151 31.3185 62.4654 31.9366C65.5432 33.3789 65.338 36.6756 64.9276 39.3542C64.7225 42.0328 63.081 47.3899 62.8758 48.008C63.6965 48.8322 64.7225 48.6262 65.338 48.2141C66.1587 47.802 67.1847 42.0328 69.2365 41.0025C71.0831 39.9723 73.5454 39.9723 74.3661 39.3542C75.1868 38.7361 76.2127 31.7306 77.2387 31.1124C78.4698 30.2883 80.3164 27.6097 80.1112 24.519C79.906 21.6344 78.2646 22.0465 77.8542 18.5438C77.4438 15.041 77.2387 12.3624 75.392 10.7141C73.5454 9.06573 71.9039 7.82947 69.0313 8.24156C66.1587 8.65364 64.5173 4.32672 60.4136 1.85419C56.3099 -0.618333 50.77 -1.23646 48.513 1.03002C46.2559 3.2965 43.1782 0.411887 39.6901 1.44211C36.2019 2.47233 37.0227 6.18112 35.176 6.79925C33.3294 7.41738 30.662 8.03551 29.8413 10.508C29.4309 13.1866 29.0205 15.041 29.0205 15.041Z" fill="#505E83"/>
<path d="M67.595 42.6508C67.595 42.6508 74.7765 34.8211 77.649 40.7964C80.5216 46.5656 65.7484 55.2195 65.338 50.8926C65.1328 46.5656 67.595 42.6508 67.595 42.6508Z" fill="#FBA894"/>
<path d="M69.852 44.2992C69.852 44.2992 72.3143 42.8569 72.7246 44.5052C73.9557 47.5959 67.3898 51.5107 67.595 49.2442C67.595 46.9777 69.2365 44.9173 69.852 44.2992Z" fill="#FB8585"/>
<path d="M67.5947 48.6261C67.5947 48.6261 69.2361 42.4448 72.7243 41.8266C75.5968 41.2085 76.2124 43.681 75.5968 44.5052C74.9813 45.1233 74.5709 44.5052 74.5709 43.8871C74.5709 43.2689 73.3398 42.0327 71.4932 43.8871C69.6465 45.7415 68.6206 47.5959 68.4154 48.6261C68.4154 49.2442 67.7999 49.2442 67.5947 48.6261Z" fill="#FB8585"/>
<path d="M38.6641 123.832C38.6641 123.832 33.1242 117.033 31.4827 118.269C29.8412 119.505 33.1242 121.978 33.7397 123.626C33.9449 124.45 25.5324 121.978 24.7117 123.214C23.8909 124.45 30.4568 126.305 30.4568 126.305C30.4568 126.305 24.0961 125.48 24.7117 126.717C25.122 127.953 30.4568 128.777 31.6879 128.777C31.6879 128.777 25.122 128.159 25.7376 129.395C26.3531 130.632 32.3034 131.456 32.3034 131.456C32.3034 131.456 27.9946 131.25 28.6101 132.28C29.2257 133.31 36.2019 134.958 39.8952 133.928C42.1523 132.692 42.973 127.129 38.6641 123.832Z" fill="#FBA894"/>
<path d="M42.5626 124.244C42.5626 124.244 40.3056 122.596 38.2538 125.274C36.2019 127.953 35.176 133.516 38.2538 135.577C41.3315 137.637 43.9989 135.165 43.9989 135.165L42.5626 124.244Z" fill="#738EBA"/>
<path d="M74.1609 85.3019C74.1609 85.3019 74.1609 72.7332 84.8304 72.9393C95.5 73.1453 95.5 95.192 93.243 112.706C90.986 130.219 90.986 137.431 82.5734 140.316C75.1868 142.788 56.5151 142.788 43.9989 138.049C40.716 136.813 38.459 133.31 38.8693 129.807C39.0745 127.129 40.1004 124.45 42.7678 123.42C48.513 121.566 66.5691 124.862 70.0572 120.535C73.5454 116.621 74.1609 85.3019 74.1609 85.3019Z" fill="#A7B8D5"/>
<path d="M71.2883 122.802C71.2883 122.802 77.649 124.038 78.8801 130.838C79.4957 128.983 78.4698 122.184 71.2883 122.802Z" fill="#8CA7C6"/>
<path d="M72.5194 121.772C72.5194 121.772 77.0335 121.153 79.7009 124.038C79.906 123.626 77.2387 119.711 72.5194 121.772Z" fill="#8CA7C6"/>
<path d="M9.32291 70.8788C8.09181 70.4667 7.27107 69.2304 7.68144 67.9942C7.88662 67.376 8.29699 66.7579 8.70736 66.3458C10.1436 64.9035 16.094 65.3156 18.9665 67.376C19.1717 67.5821 19.3769 67.7881 19.5821 68.2002C20.1976 70.0546 19.1717 71.7029 18.1458 71.7029C17.3251 71.909 14.2473 72.3211 9.32291 70.8788Z" fill="#738EBA"/>
<path d="M10.1436 65.9338C10.1436 65.9338 11.3747 57.486 13.0162 56.0437C14.8629 54.6014 16.2991 55.6316 16.2991 55.6316C16.2991 55.6316 18.9665 55.2195 20.4028 56.2498C21.8391 57.486 22.0443 57.486 23.4806 59.5465C24.9169 61.4009 24.9169 62.4311 24.7117 63.2552C24.3013 63.8734 23.0702 64.9036 23.0702 64.9036C23.0702 64.9036 23.6857 66.1399 22.6598 67.3761C21.8391 68.4063 18.9665 68.2003 18.9665 68.2003L18.1458 68.8184C18.1458 68.8184 12.1955 68.2003 10.1436 65.9338Z" fill="#FBA894"/>
<path d="M16.0939 58.3101C16.0939 58.3101 15.6836 60.3705 15.8888 61.6068C15.4784 61.8128 14.6577 61.6068 13.8369 62.0189C13.4266 62.2249 12.811 60.5765 12.811 60.5765C12.811 60.5765 12.4006 62.0189 13.2214 62.843C14.0421 63.2551 16.2991 62.843 17.1199 62.637C17.325 62.0189 16.0939 58.3101 16.0939 58.3101Z" fill="#FB8585"/>
</svg>
