<svg width="1409" height="926" viewBox="0 0 1409 926" fill="none" xmlns="http://www.w3.org/2000/svg">
<circle cx="3" cy="3" r="3" fill="#F8F8F8"/>
<circle cx="643" cy="3" r="3" fill="#F8F8F8"/>
<circle cx="323" cy="3" r="3" fill="#F8F8F8"/>
<circle cx="963" cy="3" r="3" fill="#F8F8F8"/>
<circle cx="163" cy="3" r="3" fill="#F8F8F8"/>
<circle cx="803" cy="3" r="3" fill="#F8F8F8"/>
<circle cx="483" cy="3" r="3" fill="#F8F8F8"/>
<circle cx="1123" cy="3" r="3" fill="#F8F8F8"/>
<circle cx="83" cy="3" r="3" fill="#F8F8F8"/>
<circle cx="723" cy="3" r="3" fill="#F8F8F8"/>
<circle cx="403" cy="3" r="3" fill="#F8F8F8"/>
<circle cx="1043" cy="3" r="3" fill="#F8F8F8"/>
<circle cx="243" cy="3" r="3" fill="#F8F8F8"/>
<circle cx="883" cy="3" r="3" fill="#F8F8F8"/>
<circle cx="563" cy="3" r="3" fill="#F8F8F8"/>
<circle cx="1203" cy="3" r="3" fill="#F8F8F8"/>
<circle cx="1323" cy="3" r="3" fill="#F8F8F8"/>
<circle cx="43" cy="3" r="3" fill="#F8F8F8"/>
<circle cx="683" cy="3" r="3" fill="#F8F8F8"/>
<circle cx="363" cy="3" r="3" fill="#F8F8F8"/>
<circle cx="1003" cy="3" r="3" fill="#F8F8F8"/>
<circle cx="203" cy="3" r="3" fill="#F8F8F8"/>
<circle cx="843" cy="3" r="3" fill="#F8F8F8"/>
<circle cx="523" cy="3" r="3" fill="#F8F8F8"/>
<circle cx="1163" cy="3" r="3" fill="#F8F8F8"/>
<circle cx="1283" cy="3" r="3" fill="#F8F8F8"/>
<circle cx="123" cy="3" r="3" fill="#F8F8F8"/>
<circle cx="763" cy="3" r="3" fill="#F8F8F8"/>
<circle cx="443" cy="3" r="3" fill="#F8F8F8"/>
<circle cx="1083" cy="3" r="3" fill="#F8F8F8"/>
<circle cx="283" cy="3" r="3" fill="#F8F8F8"/>
<circle cx="923" cy="3" r="3" fill="#F8F8F8"/>
<circle cx="603" cy="3" r="3" fill="#F8F8F8"/>
<circle cx="1243" cy="3" r="3" fill="#F8F8F8"/>
<circle cx="1363" cy="3" r="3" fill="#F8F8F8"/>
<circle cx="1403" cy="3" r="3" fill="#F8F8F8"/>
<circle cx="3" cy="323" r="3" fill="#F8F8F8"/>
<circle cx="643" cy="323" r="3" fill="#F8F8F8"/>
<circle cx="323" cy="323" r="3" fill="#F8F8F8"/>
<circle cx="963" cy="323" r="3" fill="#F8F8F8"/>
<circle cx="163" cy="323" r="3" fill="#F8F8F8"/>
<circle cx="803" cy="323" r="3" fill="#F8F8F8"/>
<circle cx="483" cy="323" r="3" fill="#F8F8F8"/>
<circle cx="1123" cy="323" r="3" fill="#F8F8F8"/>
<circle cx="83" cy="323" r="3" fill="#F8F8F8"/>
<circle cx="723" cy="323" r="3" fill="#F8F8F8"/>
<circle cx="403" cy="323" r="3" fill="#F8F8F8"/>
<circle cx="1043" cy="323" r="3" fill="#F8F8F8"/>
<circle cx="243" cy="323" r="3" fill="#F8F8F8"/>
<circle cx="883" cy="323" r="3" fill="#F8F8F8"/>
<circle cx="563" cy="323" r="3" fill="#F8F8F8"/>
<circle cx="1203" cy="323" r="3" fill="#F8F8F8"/>
<circle cx="1323" cy="323" r="3" fill="#F8F8F8"/>
<circle cx="43" cy="323" r="3" fill="#F8F8F8"/>
<circle cx="683" cy="323" r="3" fill="#F8F8F8"/>
<circle cx="363" cy="323" r="3" fill="#F8F8F8"/>
<circle cx="1003" cy="323" r="3" fill="#F8F8F8"/>
<circle cx="203" cy="323" r="3" fill="#F8F8F8"/>
<circle cx="843" cy="323" r="3" fill="#F8F8F8"/>
<circle cx="523" cy="323" r="3" fill="#F8F8F8"/>
<circle cx="1163" cy="323" r="3" fill="#F8F8F8"/>
<circle cx="1283" cy="323" r="3" fill="#F8F8F8"/>
<circle cx="123" cy="323" r="3" fill="#F8F8F8"/>
<circle cx="763" cy="323" r="3" fill="#F8F8F8"/>
<circle cx="443" cy="323" r="3" fill="#F8F8F8"/>
<circle cx="1083" cy="323" r="3" fill="#F8F8F8"/>
<circle cx="283" cy="323" r="3" fill="#F8F8F8"/>
<circle cx="923" cy="323" r="3" fill="#F8F8F8"/>
<circle cx="603" cy="323" r="3" fill="#F8F8F8"/>
<circle cx="1243" cy="323" r="3" fill="#F8F8F8"/>
<circle cx="1363" cy="323" r="3" fill="#F8F8F8"/>
<circle cx="1403" cy="323" r="3" fill="#F8F8F8"/>
<circle cx="3" cy="163" r="3" fill="#F8F8F8"/>
<circle cx="643" cy="163" r="3" fill="#F8F8F8"/>
<circle cx="323" cy="163" r="3" fill="#F8F8F8"/>
<circle cx="963" cy="163" r="3" fill="#F8F8F8"/>
<circle cx="163" cy="163" r="3" fill="#F8F8F8"/>
<circle cx="803" cy="163" r="3" fill="#F8F8F8"/>
<circle cx="483" cy="163" r="3" fill="#F8F8F8"/>
<circle cx="1123" cy="163" r="3" fill="#F8F8F8"/>
<circle cx="83" cy="163" r="3" fill="#F8F8F8"/>
<circle cx="723" cy="163" r="3" fill="#F8F8F8"/>
<circle cx="403" cy="163" r="3" fill="#F8F8F8"/>
<circle cx="1043" cy="163" r="3" fill="#F8F8F8"/>
<circle cx="243" cy="163" r="3" fill="#F8F8F8"/>
<circle cx="883" cy="163" r="3" fill="#F8F8F8"/>
<circle cx="563" cy="163" r="3" fill="#F8F8F8"/>
<circle cx="1203" cy="163" r="3" fill="#F8F8F8"/>
<circle cx="1323" cy="163" r="3" fill="#F8F8F8"/>
<circle cx="43" cy="163" r="3" fill="#F8F8F8"/>
<circle cx="683" cy="163" r="3" fill="#F8F8F8"/>
<circle cx="363" cy="163" r="3" fill="#F8F8F8"/>
<circle cx="1003" cy="163" r="3" fill="#F8F8F8"/>
<circle cx="203" cy="163" r="3" fill="#F8F8F8"/>
<circle cx="843" cy="163" r="3" fill="#F8F8F8"/>
<circle cx="523" cy="163" r="3" fill="#F8F8F8"/>
<circle cx="1163" cy="163" r="3" fill="#F8F8F8"/>
<circle cx="1283" cy="163" r="3" fill="#F8F8F8"/>
<circle cx="123" cy="163" r="3" fill="#F8F8F8"/>
<circle cx="763" cy="163" r="3" fill="#F8F8F8"/>
<circle cx="443" cy="163" r="3" fill="#F8F8F8"/>
<circle cx="1083" cy="163" r="3" fill="#F8F8F8"/>
<circle cx="283" cy="163" r="3" fill="#F8F8F8"/>
<circle cx="923" cy="163" r="3" fill="#F8F8F8"/>
<circle cx="603" cy="163" r="3" fill="#F8F8F8"/>
<circle cx="1243" cy="163" r="3" fill="#F8F8F8"/>
<circle cx="1363" cy="163" r="3" fill="#F8F8F8"/>
<circle cx="1403" cy="163" r="3" fill="#F8F8F8"/>
<circle cx="3" cy="483" r="3" fill="#F8F8F8"/>
<circle cx="643" cy="483" r="3" fill="#F8F8F8"/>
<circle cx="323" cy="483" r="3" fill="#F8F8F8"/>
<circle cx="963" cy="483" r="3" fill="#F8F8F8"/>
<circle cx="163" cy="483" r="3" fill="#F8F8F8"/>
<circle cx="803" cy="483" r="3" fill="#F8F8F8"/>
<circle cx="483" cy="483" r="3" fill="#F8F8F8"/>
<circle cx="1123" cy="483" r="3" fill="#F8F8F8"/>
<circle cx="83" cy="483" r="3" fill="#F8F8F8"/>
<circle cx="723" cy="483" r="3" fill="#F8F8F8"/>
<circle cx="403" cy="483" r="3" fill="#F8F8F8"/>
<circle cx="1043" cy="483" r="3" fill="#F8F8F8"/>
<circle cx="243" cy="483" r="3" fill="#F8F8F8"/>
<circle cx="883" cy="483" r="3" fill="#F8F8F8"/>
<circle cx="563" cy="483" r="3" fill="#F8F8F8"/>
<circle cx="1203" cy="483" r="3" fill="#F8F8F8"/>
<circle cx="1323" cy="483" r="3" fill="#F8F8F8"/>
<circle cx="43" cy="483" r="3" fill="#F8F8F8"/>
<circle cx="683" cy="483" r="3" fill="#F8F8F8"/>
<circle cx="363" cy="483" r="3" fill="#F8F8F8"/>
<circle cx="1003" cy="483" r="3" fill="#F8F8F8"/>
<circle cx="203" cy="483" r="3" fill="#F8F8F8"/>
<circle cx="843" cy="483" r="3" fill="#F8F8F8"/>
<circle cx="523" cy="483" r="3" fill="#F8F8F8"/>
<circle cx="1163" cy="483" r="3" fill="#F8F8F8"/>
<circle cx="1283" cy="483" r="3" fill="#F8F8F8"/>
<circle cx="123" cy="483" r="3" fill="#F8F8F8"/>
<circle cx="763" cy="483" r="3" fill="#F8F8F8"/>
<circle cx="443" cy="483" r="3" fill="#F8F8F8"/>
<circle cx="1083" cy="483" r="3" fill="#F8F8F8"/>
<circle cx="283" cy="483" r="3" fill="#F8F8F8"/>
<circle cx="923" cy="483" r="3" fill="#F8F8F8"/>
<circle cx="603" cy="483" r="3" fill="#F8F8F8"/>
<circle cx="1243" cy="483" r="3" fill="#F8F8F8"/>
<circle cx="1363" cy="483" r="3" fill="#F8F8F8"/>
<circle cx="1403" cy="483" r="3" fill="#F8F8F8"/>
<circle cx="3" cy="723" r="3" fill="#F8F8F8"/>
<circle cx="643" cy="723" r="3" fill="#F8F8F8"/>
<circle cx="323" cy="723" r="3" fill="#F8F8F8"/>
<circle cx="963" cy="723" r="3" fill="#F8F8F8"/>
<circle cx="163" cy="723" r="3" fill="#F8F8F8"/>
<circle cx="803" cy="723" r="3" fill="#F8F8F8"/>
<circle cx="483" cy="723" r="3" fill="#F8F8F8"/>
<circle cx="1123" cy="723" r="3" fill="#F8F8F8"/>
<circle cx="83" cy="723" r="3" fill="#F8F8F8"/>
<circle cx="723" cy="723" r="3" fill="#F8F8F8"/>
<circle cx="403" cy="723" r="3" fill="#F8F8F8"/>
<circle cx="1043" cy="723" r="3" fill="#F8F8F8"/>
<circle cx="243" cy="723" r="3" fill="#F8F8F8"/>
<circle cx="883" cy="723" r="3" fill="#F8F8F8"/>
<circle cx="563" cy="723" r="3" fill="#F8F8F8"/>
<circle cx="1203" cy="723" r="3" fill="#F8F8F8"/>
<circle cx="1323" cy="723" r="3" fill="#F8F8F8"/>
<circle cx="43" cy="723" r="3" fill="#F8F8F8"/>
<circle cx="683" cy="723" r="3" fill="#F8F8F8"/>
<circle cx="363" cy="723" r="3" fill="#F8F8F8"/>
<circle cx="1003" cy="723" r="3" fill="#F8F8F8"/>
<circle cx="203" cy="723" r="3" fill="#F8F8F8"/>
<circle cx="843" cy="723" r="3" fill="#F8F8F8"/>
<circle cx="523" cy="723" r="3" fill="#F8F8F8"/>
<circle cx="1163" cy="723" r="3" fill="#F8F8F8"/>
<circle cx="1283" cy="723" r="3" fill="#F8F8F8"/>
<circle cx="123" cy="723" r="3" fill="#F8F8F8"/>
<circle cx="763" cy="723" r="3" fill="#F8F8F8"/>
<circle cx="443" cy="723" r="3" fill="#F8F8F8"/>
<circle cx="1083" cy="723" r="3" fill="#F8F8F8"/>
<circle cx="283" cy="723" r="3" fill="#F8F8F8"/>
<circle cx="923" cy="723" r="3" fill="#F8F8F8"/>
<circle cx="603" cy="723" r="3" fill="#F8F8F8"/>
<circle cx="1243" cy="723" r="3" fill="#F8F8F8"/>
<circle cx="1363" cy="723" r="3" fill="#F8F8F8"/>
<circle cx="1403" cy="723" r="3" fill="#F8F8F8"/>
<circle cx="3" cy="83" r="3" fill="#F8F8F8"/>
<circle cx="643" cy="83" r="3" fill="#F8F8F8"/>
<circle cx="323" cy="83" r="3" fill="#F8F8F8"/>
<circle cx="963" cy="83" r="3" fill="#F8F8F8"/>
<circle cx="163" cy="83" r="3" fill="#F8F8F8"/>
<circle cx="803" cy="83" r="3" fill="#F8F8F8"/>
<circle cx="483" cy="83" r="3" fill="#F8F8F8"/>
<circle cx="1123" cy="83" r="3" fill="#F8F8F8"/>
<circle cx="83" cy="83" r="3" fill="#F8F8F8"/>
<circle cx="723" cy="83" r="3" fill="#F8F8F8"/>
<circle cx="403" cy="83" r="3" fill="#F8F8F8"/>
<circle cx="1043" cy="83" r="3" fill="#F8F8F8"/>
<circle cx="243" cy="83" r="3" fill="#F8F8F8"/>
<circle cx="883" cy="83" r="3" fill="#F8F8F8"/>
<circle cx="563" cy="83" r="3" fill="#F8F8F8"/>
<circle cx="1203" cy="83" r="3" fill="#F8F8F8"/>
<circle cx="1323" cy="83" r="3" fill="#F8F8F8"/>
<circle cx="43" cy="83" r="3" fill="#F8F8F8"/>
<circle cx="683" cy="83" r="3" fill="#F8F8F8"/>
<circle cx="363" cy="83" r="3" fill="#F8F8F8"/>
<circle cx="1003" cy="83" r="3" fill="#F8F8F8"/>
<circle cx="203" cy="83" r="3" fill="#F8F8F8"/>
<circle cx="843" cy="83" r="3" fill="#F8F8F8"/>
<circle cx="523" cy="83" r="3" fill="#F8F8F8"/>
<circle cx="1163" cy="83" r="3" fill="#F8F8F8"/>
<circle cx="1283" cy="83" r="3" fill="#F8F8F8"/>
<circle cx="123" cy="83" r="3" fill="#F8F8F8"/>
<circle cx="763" cy="83" r="3" fill="#F8F8F8"/>
<circle cx="443" cy="83" r="3" fill="#F8F8F8"/>
<circle cx="1083" cy="83" r="3" fill="#F8F8F8"/>
<circle cx="283" cy="83" r="3" fill="#F8F8F8"/>
<circle cx="923" cy="83" r="3" fill="#F8F8F8"/>
<circle cx="603" cy="83" r="3" fill="#F8F8F8"/>
<circle cx="1243" cy="83" r="3" fill="#F8F8F8"/>
<circle cx="1363" cy="83" r="3" fill="#F8F8F8"/>
<circle cx="1403" cy="83" r="3" fill="#F8F8F8"/>
<circle cx="3" cy="403" r="3" fill="#F8F8F8"/>
<circle cx="643" cy="403" r="3" fill="#F8F8F8"/>
<circle cx="323" cy="403" r="3" fill="#F8F8F8"/>
<circle cx="963" cy="403" r="3" fill="#F8F8F8"/>
<circle cx="163" cy="403" r="3" fill="#F8F8F8"/>
<circle cx="803" cy="403" r="3" fill="#F8F8F8"/>
<circle cx="483" cy="403" r="3" fill="#F8F8F8"/>
<circle cx="1123" cy="403" r="3" fill="#F8F8F8"/>
<circle cx="83" cy="403" r="3" fill="#F8F8F8"/>
<circle cx="723" cy="403" r="3" fill="#F8F8F8"/>
<circle cx="403" cy="403" r="3" fill="#F8F8F8"/>
<circle cx="1043" cy="403" r="3" fill="#F8F8F8"/>
<circle cx="243" cy="403" r="3" fill="#F8F8F8"/>
<circle cx="883" cy="403" r="3" fill="#F8F8F8"/>
<circle cx="563" cy="403" r="3" fill="#F8F8F8"/>
<circle cx="1203" cy="403" r="3" fill="#F8F8F8"/>
<circle cx="1323" cy="403" r="3" fill="#F8F8F8"/>
<circle cx="43" cy="403" r="3" fill="#F8F8F8"/>
<circle cx="683" cy="403" r="3" fill="#F8F8F8"/>
<circle cx="363" cy="403" r="3" fill="#F8F8F8"/>
<circle cx="1003" cy="403" r="3" fill="#F8F8F8"/>
<circle cx="203" cy="403" r="3" fill="#F8F8F8"/>
<circle cx="843" cy="403" r="3" fill="#F8F8F8"/>
<circle cx="523" cy="403" r="3" fill="#F8F8F8"/>
<circle cx="1163" cy="403" r="3" fill="#F8F8F8"/>
<circle cx="1283" cy="403" r="3" fill="#F8F8F8"/>
<circle cx="123" cy="403" r="3" fill="#F8F8F8"/>
<circle cx="763" cy="403" r="3" fill="#F8F8F8"/>
<circle cx="443" cy="403" r="3" fill="#F8F8F8"/>
<circle cx="1083" cy="403" r="3" fill="#F8F8F8"/>
<circle cx="283" cy="403" r="3" fill="#F8F8F8"/>
<circle cx="923" cy="403" r="3" fill="#F8F8F8"/>
<circle cx="603" cy="403" r="3" fill="#F8F8F8"/>
<circle cx="1243" cy="403" r="3" fill="#F8F8F8"/>
<circle cx="1363" cy="403" r="3" fill="#F8F8F8"/>
<circle cx="1403" cy="403" r="3" fill="#F8F8F8"/>
<circle cx="3" cy="643" r="3" fill="#F8F8F8"/>
<circle cx="643" cy="643" r="3" fill="#F8F8F8"/>
<circle cx="323" cy="643" r="3" fill="#F8F8F8"/>
<circle cx="963" cy="643" r="3" fill="#F8F8F8"/>
<circle cx="163" cy="643" r="3" fill="#F8F8F8"/>
<circle cx="803" cy="643" r="3" fill="#F8F8F8"/>
<circle cx="483" cy="643" r="3" fill="#F8F8F8"/>
<circle cx="1123" cy="643" r="3" fill="#F8F8F8"/>
<circle cx="83" cy="643" r="3" fill="#F8F8F8"/>
<circle cx="723" cy="643" r="3" fill="#F8F8F8"/>
<circle cx="403" cy="643" r="3" fill="#F8F8F8"/>
<circle cx="1043" cy="643" r="3" fill="#F8F8F8"/>
<circle cx="243" cy="643" r="3" fill="#F8F8F8"/>
<circle cx="883" cy="643" r="3" fill="#F8F8F8"/>
<circle cx="563" cy="643" r="3" fill="#F8F8F8"/>
<circle cx="1203" cy="643" r="3" fill="#F8F8F8"/>
<circle cx="1323" cy="643" r="3" fill="#F8F8F8"/>
<circle cx="43" cy="643" r="3" fill="#F8F8F8"/>
<circle cx="683" cy="643" r="3" fill="#F8F8F8"/>
<circle cx="363" cy="643" r="3" fill="#F8F8F8"/>
<circle cx="1003" cy="643" r="3" fill="#F8F8F8"/>
<circle cx="203" cy="643" r="3" fill="#F8F8F8"/>
<circle cx="843" cy="643" r="3" fill="#F8F8F8"/>
<circle cx="523" cy="643" r="3" fill="#F8F8F8"/>
<circle cx="1163" cy="643" r="3" fill="#F8F8F8"/>
<circle cx="1283" cy="643" r="3" fill="#F8F8F8"/>
<circle cx="123" cy="643" r="3" fill="#F8F8F8"/>
<circle cx="763" cy="643" r="3" fill="#F8F8F8"/>
<circle cx="443" cy="643" r="3" fill="#F8F8F8"/>
<circle cx="1083" cy="643" r="3" fill="#F8F8F8"/>
<circle cx="283" cy="643" r="3" fill="#F8F8F8"/>
<circle cx="923" cy="643" r="3" fill="#F8F8F8"/>
<circle cx="603" cy="643" r="3" fill="#F8F8F8"/>
<circle cx="1243" cy="643" r="3" fill="#F8F8F8"/>
<circle cx="1363" cy="643" r="3" fill="#F8F8F8"/>
<circle cx="1403" cy="643" r="3" fill="#F8F8F8"/>
<circle cx="3" cy="243" r="3" fill="#F8F8F8"/>
<circle cx="643" cy="243" r="3" fill="#F8F8F8"/>
<circle cx="323" cy="243" r="3" fill="#F8F8F8"/>
<circle cx="963" cy="243" r="3" fill="#F8F8F8"/>
<circle cx="163" cy="243" r="3" fill="#F8F8F8"/>
<circle cx="803" cy="243" r="3" fill="#F8F8F8"/>
<circle cx="483" cy="243" r="3" fill="#F8F8F8"/>
<circle cx="1123" cy="243" r="3" fill="#F8F8F8"/>
<circle cx="83" cy="243" r="3" fill="#F8F8F8"/>
<circle cx="723" cy="243" r="3" fill="#F8F8F8"/>
<circle cx="403" cy="243" r="3" fill="#F8F8F8"/>
<circle cx="1043" cy="243" r="3" fill="#F8F8F8"/>
<circle cx="243" cy="243" r="3" fill="#F8F8F8"/>
<circle cx="883" cy="243" r="3" fill="#F8F8F8"/>
<circle cx="563" cy="243" r="3" fill="#F8F8F8"/>
<circle cx="1203" cy="243" r="3" fill="#F8F8F8"/>
<circle cx="1323" cy="243" r="3" fill="#F8F8F8"/>
<circle cx="43" cy="243" r="3" fill="#F8F8F8"/>
<circle cx="683" cy="243" r="3" fill="#F8F8F8"/>
<circle cx="363" cy="243" r="3" fill="#F8F8F8"/>
<circle cx="1003" cy="243" r="3" fill="#F8F8F8"/>
<circle cx="203" cy="243" r="3" fill="#F8F8F8"/>
<circle cx="843" cy="243" r="3" fill="#F8F8F8"/>
<circle cx="523" cy="243" r="3" fill="#F8F8F8"/>
<circle cx="1163" cy="243" r="3" fill="#F8F8F8"/>
<circle cx="1283" cy="243" r="3" fill="#F8F8F8"/>
<circle cx="123" cy="243" r="3" fill="#F8F8F8"/>
<circle cx="763" cy="243" r="3" fill="#F8F8F8"/>
<circle cx="443" cy="243" r="3" fill="#F8F8F8"/>
<circle cx="1083" cy="243" r="3" fill="#F8F8F8"/>
<circle cx="283" cy="243" r="3" fill="#F8F8F8"/>
<circle cx="923" cy="243" r="3" fill="#F8F8F8"/>
<circle cx="603" cy="243" r="3" fill="#F8F8F8"/>
<circle cx="1243" cy="243" r="3" fill="#F8F8F8"/>
<circle cx="1363" cy="243" r="3" fill="#F8F8F8"/>
<circle cx="1403" cy="243" r="3" fill="#F8F8F8"/>
<circle cx="3" cy="563" r="3" fill="#F8F8F8"/>
<circle cx="643" cy="563" r="3" fill="#F8F8F8"/>
<circle cx="323" cy="563" r="3" fill="#F8F8F8"/>
<circle cx="963" cy="563" r="3" fill="#F8F8F8"/>
<circle cx="163" cy="563" r="3" fill="#F8F8F8"/>
<circle cx="803" cy="563" r="3" fill="#F8F8F8"/>
<circle cx="483" cy="563" r="3" fill="#F8F8F8"/>
<circle cx="1123" cy="563" r="3" fill="#F8F8F8"/>
<circle cx="83" cy="563" r="3" fill="#F8F8F8"/>
<circle cx="723" cy="563" r="3" fill="#F8F8F8"/>
<circle cx="403" cy="563" r="3" fill="#F8F8F8"/>
<circle cx="1043" cy="563" r="3" fill="#F8F8F8"/>
<circle cx="243" cy="563" r="3" fill="#F8F8F8"/>
<circle cx="883" cy="563" r="3" fill="#F8F8F8"/>
<circle cx="563" cy="563" r="3" fill="#F8F8F8"/>
<circle cx="1203" cy="563" r="3" fill="#F8F8F8"/>
<circle cx="1323" cy="563" r="3" fill="#F8F8F8"/>
<circle cx="43" cy="563" r="3" fill="#F8F8F8"/>
<circle cx="683" cy="563" r="3" fill="#F8F8F8"/>
<circle cx="363" cy="563" r="3" fill="#F8F8F8"/>
<circle cx="1003" cy="563" r="3" fill="#F8F8F8"/>
<circle cx="203" cy="563" r="3" fill="#F8F8F8"/>
<circle cx="843" cy="563" r="3" fill="#F8F8F8"/>
<circle cx="523" cy="563" r="3" fill="#F8F8F8"/>
<circle cx="1163" cy="563" r="3" fill="#F8F8F8"/>
<circle cx="1283" cy="563" r="3" fill="#F8F8F8"/>
<circle cx="123" cy="563" r="3" fill="#F8F8F8"/>
<circle cx="763" cy="563" r="3" fill="#F8F8F8"/>
<circle cx="443" cy="563" r="3" fill="#F8F8F8"/>
<circle cx="1083" cy="563" r="3" fill="#F8F8F8"/>
<circle cx="283" cy="563" r="3" fill="#F8F8F8"/>
<circle cx="923" cy="563" r="3" fill="#F8F8F8"/>
<circle cx="603" cy="563" r="3" fill="#F8F8F8"/>
<circle cx="1243" cy="563" r="3" fill="#F8F8F8"/>
<circle cx="1363" cy="563" r="3" fill="#F8F8F8"/>
<circle cx="1403" cy="563" r="3" fill="#F8F8F8"/>
<circle cx="3" cy="803" r="3" fill="#F8F8F8"/>
<circle cx="643" cy="803" r="3" fill="#F8F8F8"/>
<circle cx="323" cy="803" r="3" fill="#F8F8F8"/>
<circle cx="963" cy="803" r="3" fill="#F8F8F8"/>
<circle cx="163" cy="803" r="3" fill="#F8F8F8"/>
<circle cx="803" cy="803" r="3" fill="#F8F8F8"/>
<circle cx="483" cy="803" r="3" fill="#F8F8F8"/>
<circle cx="1123" cy="803" r="3" fill="#F8F8F8"/>
<circle cx="83" cy="803" r="3" fill="#F8F8F8"/>
<circle cx="723" cy="803" r="3" fill="#F8F8F8"/>
<circle cx="403" cy="803" r="3" fill="#F8F8F8"/>
<circle cx="1043" cy="803" r="3" fill="#F8F8F8"/>
<circle cx="243" cy="803" r="3" fill="#F8F8F8"/>
<circle cx="883" cy="803" r="3" fill="#F8F8F8"/>
<circle cx="563" cy="803" r="3" fill="#F8F8F8"/>
<circle cx="1203" cy="803" r="3" fill="#F8F8F8"/>
<circle cx="1323" cy="803" r="3" fill="#F8F8F8"/>
<circle cx="43" cy="803" r="3" fill="#F8F8F8"/>
<circle cx="683" cy="803" r="3" fill="#F8F8F8"/>
<circle cx="363" cy="803" r="3" fill="#F8F8F8"/>
<circle cx="1003" cy="803" r="3" fill="#F8F8F8"/>
<circle cx="203" cy="803" r="3" fill="#F8F8F8"/>
<circle cx="843" cy="803" r="3" fill="#F8F8F8"/>
<circle cx="523" cy="803" r="3" fill="#F8F8F8"/>
<circle cx="1163" cy="803" r="3" fill="#F8F8F8"/>
<circle cx="1283" cy="803" r="3" fill="#F8F8F8"/>
<circle cx="123" cy="803" r="3" fill="#F8F8F8"/>
<circle cx="763" cy="803" r="3" fill="#F8F8F8"/>
<circle cx="443" cy="803" r="3" fill="#F8F8F8"/>
<circle cx="1083" cy="803" r="3" fill="#F8F8F8"/>
<circle cx="283" cy="803" r="3" fill="#F8F8F8"/>
<circle cx="923" cy="803" r="3" fill="#F8F8F8"/>
<circle cx="603" cy="803" r="3" fill="#F8F8F8"/>
<circle cx="1243" cy="803" r="3" fill="#F8F8F8"/>
<circle cx="1363" cy="803" r="3" fill="#F8F8F8"/>
<circle cx="1403" cy="803" r="3" fill="#F8F8F8"/>
<circle cx="6" cy="923" r="3" fill="#F8F8F8"/>
<circle cx="646" cy="923" r="3" fill="#F8F8F8"/>
<circle cx="326" cy="923" r="3" fill="#F8F8F8"/>
<circle cx="966" cy="923" r="3" fill="#F8F8F8"/>
<circle cx="166" cy="923" r="3" fill="#F8F8F8"/>
<circle cx="806" cy="923" r="3" fill="#F8F8F8"/>
<circle cx="486" cy="923" r="3" fill="#F8F8F8"/>
<circle cx="1126" cy="923" r="3" fill="#F8F8F8"/>
<circle cx="86" cy="923" r="3" fill="#F8F8F8"/>
<circle cx="726" cy="923" r="3" fill="#F8F8F8"/>
<circle cx="406" cy="923" r="3" fill="#F8F8F8"/>
<circle cx="1046" cy="923" r="3" fill="#F8F8F8"/>
<circle cx="246" cy="923" r="3" fill="#F8F8F8"/>
<circle cx="886" cy="923" r="3" fill="#F8F8F8"/>
<circle cx="566" cy="923" r="3" fill="#F8F8F8"/>
<circle cx="1206" cy="923" r="3" fill="#F8F8F8"/>
<circle cx="1326" cy="923" r="3" fill="#F8F8F8"/>
<circle cx="46" cy="923" r="3" fill="#F8F8F8"/>
<circle cx="686" cy="923" r="3" fill="#F8F8F8"/>
<circle cx="366" cy="923" r="3" fill="#F8F8F8"/>
<circle cx="1006" cy="923" r="3" fill="#F8F8F8"/>
<circle cx="206" cy="923" r="3" fill="#F8F8F8"/>
<circle cx="846" cy="923" r="3" fill="#F8F8F8"/>
<circle cx="526" cy="923" r="3" fill="#F8F8F8"/>
<circle cx="1166" cy="923" r="3" fill="#F8F8F8"/>
<circle cx="1286" cy="923" r="3" fill="#F8F8F8"/>
<circle cx="126" cy="923" r="3" fill="#F8F8F8"/>
<circle cx="766" cy="923" r="3" fill="#F8F8F8"/>
<circle cx="446" cy="923" r="3" fill="#F8F8F8"/>
<circle cx="1086" cy="923" r="3" fill="#F8F8F8"/>
<circle cx="286" cy="923" r="3" fill="#F8F8F8"/>
<circle cx="926" cy="923" r="3" fill="#F8F8F8"/>
<circle cx="606" cy="923" r="3" fill="#F8F8F8"/>
<circle cx="1246" cy="923" r="3" fill="#F8F8F8"/>
<circle cx="1366" cy="923" r="3" fill="#F8F8F8"/>
<circle cx="1406" cy="923" r="3" fill="#F8F8F8"/>
<circle cx="3" cy="43" r="3" fill="#F8F8F8"/>
<circle cx="643" cy="43" r="3" fill="#F8F8F8"/>
<circle cx="323" cy="43" r="3" fill="#F8F8F8"/>
<circle cx="963" cy="43" r="3" fill="#F8F8F8"/>
<circle cx="163" cy="43" r="3" fill="#F8F8F8"/>
<circle cx="803" cy="43" r="3" fill="#F8F8F8"/>
<circle cx="483" cy="43" r="3" fill="#F8F8F8"/>
<circle cx="1123" cy="43" r="3" fill="#F8F8F8"/>
<circle cx="83" cy="43" r="3" fill="#F8F8F8"/>
<circle cx="723" cy="43" r="3" fill="#F8F8F8"/>
<circle cx="403" cy="43" r="3" fill="#F8F8F8"/>
<circle cx="1043" cy="43" r="3" fill="#F8F8F8"/>
<circle cx="243" cy="43" r="3" fill="#F8F8F8"/>
<circle cx="883" cy="43" r="3" fill="#F8F8F8"/>
<circle cx="563" cy="43" r="3" fill="#F8F8F8"/>
<circle cx="1203" cy="43" r="3" fill="#F8F8F8"/>
<circle cx="1323" cy="43" r="3" fill="#F8F8F8"/>
<circle cx="43" cy="43" r="3" fill="#F8F8F8"/>
<circle cx="683" cy="43" r="3" fill="#F8F8F8"/>
<circle cx="363" cy="43" r="3" fill="#F8F8F8"/>
<circle cx="1003" cy="43" r="3" fill="#F8F8F8"/>
<circle cx="203" cy="43" r="3" fill="#F8F8F8"/>
<circle cx="843" cy="43" r="3" fill="#F8F8F8"/>
<circle cx="523" cy="43" r="3" fill="#F8F8F8"/>
<circle cx="1163" cy="43" r="3" fill="#F8F8F8"/>
<circle cx="1283" cy="43" r="3" fill="#F8F8F8"/>
<circle cx="123" cy="43" r="3" fill="#F8F8F8"/>
<circle cx="763" cy="43" r="3" fill="#F8F8F8"/>
<circle cx="443" cy="43" r="3" fill="#F8F8F8"/>
<circle cx="1083" cy="43" r="3" fill="#F8F8F8"/>
<circle cx="283" cy="43" r="3" fill="#F8F8F8"/>
<circle cx="923" cy="43" r="3" fill="#F8F8F8"/>
<circle cx="603" cy="43" r="3" fill="#F8F8F8"/>
<circle cx="1243" cy="43" r="3" fill="#F8F8F8"/>
<circle cx="1363" cy="43" r="3" fill="#F8F8F8"/>
<circle cx="1403" cy="43" r="3" fill="#F8F8F8"/>
<circle cx="3" cy="363" r="3" fill="#F8F8F8"/>
<circle cx="643" cy="363" r="3" fill="#F8F8F8"/>
<circle cx="323" cy="363" r="3" fill="#F8F8F8"/>
<circle cx="963" cy="363" r="3" fill="#F8F8F8"/>
<circle cx="163" cy="363" r="3" fill="#F8F8F8"/>
<circle cx="803" cy="363" r="3" fill="#F8F8F8"/>
<circle cx="483" cy="363" r="3" fill="#F8F8F8"/>
<circle cx="1123" cy="363" r="3" fill="#F8F8F8"/>
<circle cx="83" cy="363" r="3" fill="#F8F8F8"/>
<circle cx="723" cy="363" r="3" fill="#F8F8F8"/>
<circle cx="403" cy="363" r="3" fill="#F8F8F8"/>
<circle cx="1043" cy="363" r="3" fill="#F8F8F8"/>
<circle cx="243" cy="363" r="3" fill="#F8F8F8"/>
<circle cx="883" cy="363" r="3" fill="#F8F8F8"/>
<circle cx="563" cy="363" r="3" fill="#F8F8F8"/>
<circle cx="1203" cy="363" r="3" fill="#F8F8F8"/>
<circle cx="1323" cy="363" r="3" fill="#F8F8F8"/>
<circle cx="43" cy="363" r="3" fill="#F8F8F8"/>
<circle cx="683" cy="363" r="3" fill="#F8F8F8"/>
<circle cx="363" cy="363" r="3" fill="#F8F8F8"/>
<circle cx="1003" cy="363" r="3" fill="#F8F8F8"/>
<circle cx="203" cy="363" r="3" fill="#F8F8F8"/>
<circle cx="843" cy="363" r="3" fill="#F8F8F8"/>
<circle cx="523" cy="363" r="3" fill="#F8F8F8"/>
<circle cx="1163" cy="363" r="3" fill="#F8F8F8"/>
<circle cx="1283" cy="363" r="3" fill="#F8F8F8"/>
<circle cx="123" cy="363" r="3" fill="#F8F8F8"/>
<circle cx="763" cy="363" r="3" fill="#F8F8F8"/>
<circle cx="443" cy="363" r="3" fill="#F8F8F8"/>
<circle cx="1083" cy="363" r="3" fill="#F8F8F8"/>
<circle cx="283" cy="363" r="3" fill="#F8F8F8"/>
<circle cx="923" cy="363" r="3" fill="#F8F8F8"/>
<circle cx="603" cy="363" r="3" fill="#F8F8F8"/>
<circle cx="1243" cy="363" r="3" fill="#F8F8F8"/>
<circle cx="1363" cy="363" r="3" fill="#F8F8F8"/>
<circle cx="1403" cy="363" r="3" fill="#F8F8F8"/>
<circle cx="3" cy="203" r="3" fill="#F8F8F8"/>
<circle cx="643" cy="203" r="3" fill="#F8F8F8"/>
<circle cx="323" cy="203" r="3" fill="#F8F8F8"/>
<circle cx="963" cy="203" r="3" fill="#F8F8F8"/>
<circle cx="163" cy="203" r="3" fill="#F8F8F8"/>
<circle cx="803" cy="203" r="3" fill="#F8F8F8"/>
<circle cx="483" cy="203" r="3" fill="#F8F8F8"/>
<circle cx="1123" cy="203" r="3" fill="#F8F8F8"/>
<circle cx="83" cy="203" r="3" fill="#F8F8F8"/>
<circle cx="723" cy="203" r="3" fill="#F8F8F8"/>
<circle cx="403" cy="203" r="3" fill="#F8F8F8"/>
<circle cx="1043" cy="203" r="3" fill="#F8F8F8"/>
<circle cx="243" cy="203" r="3" fill="#F8F8F8"/>
<circle cx="883" cy="203" r="3" fill="#F8F8F8"/>
<circle cx="563" cy="203" r="3" fill="#F8F8F8"/>
<circle cx="1203" cy="203" r="3" fill="#F8F8F8"/>
<circle cx="1323" cy="203" r="3" fill="#F8F8F8"/>
<circle cx="43" cy="203" r="3" fill="#F8F8F8"/>
<circle cx="683" cy="203" r="3" fill="#F8F8F8"/>
<circle cx="363" cy="203" r="3" fill="#F8F8F8"/>
<circle cx="1003" cy="203" r="3" fill="#F8F8F8"/>
<circle cx="203" cy="203" r="3" fill="#F8F8F8"/>
<circle cx="843" cy="203" r="3" fill="#F8F8F8"/>
<circle cx="523" cy="203" r="3" fill="#F8F8F8"/>
<circle cx="1163" cy="203" r="3" fill="#F8F8F8"/>
<circle cx="1283" cy="203" r="3" fill="#F8F8F8"/>
<circle cx="123" cy="203" r="3" fill="#F8F8F8"/>
<circle cx="763" cy="203" r="3" fill="#F8F8F8"/>
<circle cx="443" cy="203" r="3" fill="#F8F8F8"/>
<circle cx="1083" cy="203" r="3" fill="#F8F8F8"/>
<circle cx="283" cy="203" r="3" fill="#F8F8F8"/>
<circle cx="923" cy="203" r="3" fill="#F8F8F8"/>
<circle cx="603" cy="203" r="3" fill="#F8F8F8"/>
<circle cx="1243" cy="203" r="3" fill="#F8F8F8"/>
<circle cx="1363" cy="203" r="3" fill="#F8F8F8"/>
<circle cx="1403" cy="203" r="3" fill="#F8F8F8"/>
<circle cx="3" cy="523" r="3" fill="#F8F8F8"/>
<circle cx="643" cy="523" r="3" fill="#F8F8F8"/>
<circle cx="323" cy="523" r="3" fill="#F8F8F8"/>
<circle cx="963" cy="523" r="3" fill="#F8F8F8"/>
<circle cx="163" cy="523" r="3" fill="#F8F8F8"/>
<circle cx="803" cy="523" r="3" fill="#F8F8F8"/>
<circle cx="483" cy="523" r="3" fill="#F8F8F8"/>
<circle cx="1123" cy="523" r="3" fill="#F8F8F8"/>
<circle cx="83" cy="523" r="3" fill="#F8F8F8"/>
<circle cx="723" cy="523" r="3" fill="#F8F8F8"/>
<circle cx="403" cy="523" r="3" fill="#F8F8F8"/>
<circle cx="1043" cy="523" r="3" fill="#F8F8F8"/>
<circle cx="243" cy="523" r="3" fill="#F8F8F8"/>
<circle cx="883" cy="523" r="3" fill="#F8F8F8"/>
<circle cx="563" cy="523" r="3" fill="#F8F8F8"/>
<circle cx="1203" cy="523" r="3" fill="#F8F8F8"/>
<circle cx="1323" cy="523" r="3" fill="#F8F8F8"/>
<circle cx="43" cy="523" r="3" fill="#F8F8F8"/>
<circle cx="683" cy="523" r="3" fill="#F8F8F8"/>
<circle cx="363" cy="523" r="3" fill="#F8F8F8"/>
<circle cx="1003" cy="523" r="3" fill="#F8F8F8"/>
<circle cx="203" cy="523" r="3" fill="#F8F8F8"/>
<circle cx="843" cy="523" r="3" fill="#F8F8F8"/>
<circle cx="523" cy="523" r="3" fill="#F8F8F8"/>
<circle cx="1163" cy="523" r="3" fill="#F8F8F8"/>
<circle cx="1283" cy="523" r="3" fill="#F8F8F8"/>
<circle cx="123" cy="523" r="3" fill="#F8F8F8"/>
<circle cx="763" cy="523" r="3" fill="#F8F8F8"/>
<circle cx="443" cy="523" r="3" fill="#F8F8F8"/>
<circle cx="1083" cy="523" r="3" fill="#F8F8F8"/>
<circle cx="283" cy="523" r="3" fill="#F8F8F8"/>
<circle cx="923" cy="523" r="3" fill="#F8F8F8"/>
<circle cx="603" cy="523" r="3" fill="#F8F8F8"/>
<circle cx="1243" cy="523" r="3" fill="#F8F8F8"/>
<circle cx="1363" cy="523" r="3" fill="#F8F8F8"/>
<circle cx="1403" cy="523" r="3" fill="#F8F8F8"/>
<circle cx="3" cy="763" r="3" fill="#F8F8F8"/>
<circle cx="643" cy="763" r="3" fill="#F8F8F8"/>
<circle cx="323" cy="763" r="3" fill="#F8F8F8"/>
<circle cx="963" cy="763" r="3" fill="#F8F8F8"/>
<circle cx="163" cy="763" r="3" fill="#F8F8F8"/>
<circle cx="803" cy="763" r="3" fill="#F8F8F8"/>
<circle cx="483" cy="763" r="3" fill="#F8F8F8"/>
<circle cx="1123" cy="763" r="3" fill="#F8F8F8"/>
<circle cx="83" cy="763" r="3" fill="#F8F8F8"/>
<circle cx="723" cy="763" r="3" fill="#F8F8F8"/>
<circle cx="403" cy="763" r="3" fill="#F8F8F8"/>
<circle cx="1043" cy="763" r="3" fill="#F8F8F8"/>
<circle cx="243" cy="763" r="3" fill="#F8F8F8"/>
<circle cx="883" cy="763" r="3" fill="#F8F8F8"/>
<circle cx="563" cy="763" r="3" fill="#F8F8F8"/>
<circle cx="1203" cy="763" r="3" fill="#F8F8F8"/>
<circle cx="1323" cy="763" r="3" fill="#F8F8F8"/>
<circle cx="43" cy="763" r="3" fill="#F8F8F8"/>
<circle cx="683" cy="763" r="3" fill="#F8F8F8"/>
<circle cx="363" cy="763" r="3" fill="#F8F8F8"/>
<circle cx="1003" cy="763" r="3" fill="#F8F8F8"/>
<circle cx="203" cy="763" r="3" fill="#F8F8F8"/>
<circle cx="843" cy="763" r="3" fill="#F8F8F8"/>
<circle cx="523" cy="763" r="3" fill="#F8F8F8"/>
<circle cx="1163" cy="763" r="3" fill="#F8F8F8"/>
<circle cx="1283" cy="763" r="3" fill="#F8F8F8"/>
<circle cx="123" cy="763" r="3" fill="#F8F8F8"/>
<circle cx="763" cy="763" r="3" fill="#F8F8F8"/>
<circle cx="443" cy="763" r="3" fill="#F8F8F8"/>
<circle cx="1083" cy="763" r="3" fill="#F8F8F8"/>
<circle cx="283" cy="763" r="3" fill="#F8F8F8"/>
<circle cx="923" cy="763" r="3" fill="#F8F8F8"/>
<circle cx="603" cy="763" r="3" fill="#F8F8F8"/>
<circle cx="1243" cy="763" r="3" fill="#F8F8F8"/>
<circle cx="1363" cy="763" r="3" fill="#F8F8F8"/>
<circle cx="1403" cy="763" r="3" fill="#F8F8F8"/>
<circle cx="6" cy="883" r="3" fill="#F8F8F8"/>
<circle cx="646" cy="883" r="3" fill="#F8F8F8"/>
<circle cx="326" cy="883" r="3" fill="#F8F8F8"/>
<circle cx="966" cy="883" r="3" fill="#F8F8F8"/>
<circle cx="166" cy="883" r="3" fill="#F8F8F8"/>
<circle cx="806" cy="883" r="3" fill="#F8F8F8"/>
<circle cx="486" cy="883" r="3" fill="#F8F8F8"/>
<circle cx="1126" cy="883" r="3" fill="#F8F8F8"/>
<circle cx="86" cy="883" r="3" fill="#F8F8F8"/>
<circle cx="726" cy="883" r="3" fill="#F8F8F8"/>
<circle cx="406" cy="883" r="3" fill="#F8F8F8"/>
<circle cx="1046" cy="883" r="3" fill="#F8F8F8"/>
<circle cx="246" cy="883" r="3" fill="#F8F8F8"/>
<circle cx="886" cy="883" r="3" fill="#F8F8F8"/>
<circle cx="566" cy="883" r="3" fill="#F8F8F8"/>
<circle cx="1206" cy="883" r="3" fill="#F8F8F8"/>
<circle cx="1326" cy="883" r="3" fill="#F8F8F8"/>
<circle cx="46" cy="883" r="3" fill="#F8F8F8"/>
<circle cx="686" cy="883" r="3" fill="#F8F8F8"/>
<circle cx="366" cy="883" r="3" fill="#F8F8F8"/>
<circle cx="1006" cy="883" r="3" fill="#F8F8F8"/>
<circle cx="206" cy="883" r="3" fill="#F8F8F8"/>
<circle cx="846" cy="883" r="3" fill="#F8F8F8"/>
<circle cx="526" cy="883" r="3" fill="#F8F8F8"/>
<circle cx="1166" cy="883" r="3" fill="#F8F8F8"/>
<circle cx="1286" cy="883" r="3" fill="#F8F8F8"/>
<circle cx="126" cy="883" r="3" fill="#F8F8F8"/>
<circle cx="766" cy="883" r="3" fill="#F8F8F8"/>
<circle cx="446" cy="883" r="3" fill="#F8F8F8"/>
<circle cx="1086" cy="883" r="3" fill="#F8F8F8"/>
<circle cx="286" cy="883" r="3" fill="#F8F8F8"/>
<circle cx="926" cy="883" r="3" fill="#F8F8F8"/>
<circle cx="606" cy="883" r="3" fill="#F8F8F8"/>
<circle cx="1246" cy="883" r="3" fill="#F8F8F8"/>
<circle cx="1366" cy="883" r="3" fill="#F8F8F8"/>
<circle cx="1406" cy="883" r="3" fill="#F8F8F8"/>
<circle cx="3" cy="123" r="3" fill="#F8F8F8"/>
<circle cx="643" cy="123" r="3" fill="#F8F8F8"/>
<circle cx="323" cy="123" r="3" fill="#F8F8F8"/>
<circle cx="963" cy="123" r="3" fill="#F8F8F8"/>
<circle cx="163" cy="123" r="3" fill="#F8F8F8"/>
<circle cx="803" cy="123" r="3" fill="#F8F8F8"/>
<circle cx="483" cy="123" r="3" fill="#F8F8F8"/>
<circle cx="1123" cy="123" r="3" fill="#F8F8F8"/>
<circle cx="83" cy="123" r="3" fill="#F8F8F8"/>
<circle cx="723" cy="123" r="3" fill="#F8F8F8"/>
<circle cx="403" cy="123" r="3" fill="#F8F8F8"/>
<circle cx="1043" cy="123" r="3" fill="#F8F8F8"/>
<circle cx="243" cy="123" r="3" fill="#F8F8F8"/>
<circle cx="883" cy="123" r="3" fill="#F8F8F8"/>
<circle cx="563" cy="123" r="3" fill="#F8F8F8"/>
<circle cx="1203" cy="123" r="3" fill="#F8F8F8"/>
<circle cx="1323" cy="123" r="3" fill="#F8F8F8"/>
<circle cx="43" cy="123" r="3" fill="#F8F8F8"/>
<circle cx="683" cy="123" r="3" fill="#F8F8F8"/>
<circle cx="363" cy="123" r="3" fill="#F8F8F8"/>
<circle cx="1003" cy="123" r="3" fill="#F8F8F8"/>
<circle cx="203" cy="123" r="3" fill="#F8F8F8"/>
<circle cx="843" cy="123" r="3" fill="#F8F8F8"/>
<circle cx="523" cy="123" r="3" fill="#F8F8F8"/>
<circle cx="1163" cy="123" r="3" fill="#F8F8F8"/>
<circle cx="1283" cy="123" r="3" fill="#F8F8F8"/>
<circle cx="123" cy="123" r="3" fill="#F8F8F8"/>
<circle cx="763" cy="123" r="3" fill="#F8F8F8"/>
<circle cx="443" cy="123" r="3" fill="#F8F8F8"/>
<circle cx="1083" cy="123" r="3" fill="#F8F8F8"/>
<circle cx="283" cy="123" r="3" fill="#F8F8F8"/>
<circle cx="923" cy="123" r="3" fill="#F8F8F8"/>
<circle cx="603" cy="123" r="3" fill="#F8F8F8"/>
<circle cx="1243" cy="123" r="3" fill="#F8F8F8"/>
<circle cx="1363" cy="123" r="3" fill="#F8F8F8"/>
<circle cx="1403" cy="123" r="3" fill="#F8F8F8"/>
<circle cx="3" cy="443" r="3" fill="#F8F8F8"/>
<circle cx="643" cy="443" r="3" fill="#F8F8F8"/>
<circle cx="323" cy="443" r="3" fill="#F8F8F8"/>
<circle cx="963" cy="443" r="3" fill="#F8F8F8"/>
<circle cx="163" cy="443" r="3" fill="#F8F8F8"/>
<circle cx="803" cy="443" r="3" fill="#F8F8F8"/>
<circle cx="483" cy="443" r="3" fill="#F8F8F8"/>
<circle cx="1123" cy="443" r="3" fill="#F8F8F8"/>
<circle cx="83" cy="443" r="3" fill="#F8F8F8"/>
<circle cx="723" cy="443" r="3" fill="#F8F8F8"/>
<circle cx="403" cy="443" r="3" fill="#F8F8F8"/>
<circle cx="1043" cy="443" r="3" fill="#F8F8F8"/>
<circle cx="243" cy="443" r="3" fill="#F8F8F8"/>
<circle cx="883" cy="443" r="3" fill="#F8F8F8"/>
<circle cx="563" cy="443" r="3" fill="#F8F8F8"/>
<circle cx="1203" cy="443" r="3" fill="#F8F8F8"/>
<circle cx="1323" cy="443" r="3" fill="#F8F8F8"/>
<circle cx="43" cy="443" r="3" fill="#F8F8F8"/>
<circle cx="683" cy="443" r="3" fill="#F8F8F8"/>
<circle cx="363" cy="443" r="3" fill="#F8F8F8"/>
<circle cx="1003" cy="443" r="3" fill="#F8F8F8"/>
<circle cx="203" cy="443" r="3" fill="#F8F8F8"/>
<circle cx="843" cy="443" r="3" fill="#F8F8F8"/>
<circle cx="523" cy="443" r="3" fill="#F8F8F8"/>
<circle cx="1163" cy="443" r="3" fill="#F8F8F8"/>
<circle cx="1283" cy="443" r="3" fill="#F8F8F8"/>
<circle cx="123" cy="443" r="3" fill="#F8F8F8"/>
<circle cx="763" cy="443" r="3" fill="#F8F8F8"/>
<circle cx="443" cy="443" r="3" fill="#F8F8F8"/>
<circle cx="1083" cy="443" r="3" fill="#F8F8F8"/>
<circle cx="283" cy="443" r="3" fill="#F8F8F8"/>
<circle cx="923" cy="443" r="3" fill="#F8F8F8"/>
<circle cx="603" cy="443" r="3" fill="#F8F8F8"/>
<circle cx="1243" cy="443" r="3" fill="#F8F8F8"/>
<circle cx="1363" cy="443" r="3" fill="#F8F8F8"/>
<circle cx="1403" cy="443" r="3" fill="#F8F8F8"/>
<circle cx="3" cy="683" r="3" fill="#F8F8F8"/>
<circle cx="643" cy="683" r="3" fill="#F8F8F8"/>
<circle cx="323" cy="683" r="3" fill="#F8F8F8"/>
<circle cx="963" cy="683" r="3" fill="#F8F8F8"/>
<circle cx="163" cy="683" r="3" fill="#F8F8F8"/>
<circle cx="803" cy="683" r="3" fill="#F8F8F8"/>
<circle cx="483" cy="683" r="3" fill="#F8F8F8"/>
<circle cx="1123" cy="683" r="3" fill="#F8F8F8"/>
<circle cx="83" cy="683" r="3" fill="#F8F8F8"/>
<circle cx="723" cy="683" r="3" fill="#F8F8F8"/>
<circle cx="403" cy="683" r="3" fill="#F8F8F8"/>
<circle cx="1043" cy="683" r="3" fill="#F8F8F8"/>
<circle cx="243" cy="683" r="3" fill="#F8F8F8"/>
<circle cx="883" cy="683" r="3" fill="#F8F8F8"/>
<circle cx="563" cy="683" r="3" fill="#F8F8F8"/>
<circle cx="1203" cy="683" r="3" fill="#F8F8F8"/>
<circle cx="1323" cy="683" r="3" fill="#F8F8F8"/>
<circle cx="43" cy="683" r="3" fill="#F8F8F8"/>
<circle cx="683" cy="683" r="3" fill="#F8F8F8"/>
<circle cx="363" cy="683" r="3" fill="#F8F8F8"/>
<circle cx="1003" cy="683" r="3" fill="#F8F8F8"/>
<circle cx="203" cy="683" r="3" fill="#F8F8F8"/>
<circle cx="843" cy="683" r="3" fill="#F8F8F8"/>
<circle cx="523" cy="683" r="3" fill="#F8F8F8"/>
<circle cx="1163" cy="683" r="3" fill="#F8F8F8"/>
<circle cx="1283" cy="683" r="3" fill="#F8F8F8"/>
<circle cx="123" cy="683" r="3" fill="#F8F8F8"/>
<circle cx="763" cy="683" r="3" fill="#F8F8F8"/>
<circle cx="443" cy="683" r="3" fill="#F8F8F8"/>
<circle cx="1083" cy="683" r="3" fill="#F8F8F8"/>
<circle cx="283" cy="683" r="3" fill="#F8F8F8"/>
<circle cx="923" cy="683" r="3" fill="#F8F8F8"/>
<circle cx="603" cy="683" r="3" fill="#F8F8F8"/>
<circle cx="1243" cy="683" r="3" fill="#F8F8F8"/>
<circle cx="1363" cy="683" r="3" fill="#F8F8F8"/>
<circle cx="1403" cy="683" r="3" fill="#F8F8F8"/>
<circle cx="3" cy="283" r="3" fill="#F8F8F8"/>
<circle cx="643" cy="283" r="3" fill="#F8F8F8"/>
<circle cx="323" cy="283" r="3" fill="#F8F8F8"/>
<circle cx="963" cy="283" r="3" fill="#F8F8F8"/>
<circle cx="163" cy="283" r="3" fill="#F8F8F8"/>
<circle cx="803" cy="283" r="3" fill="#F8F8F8"/>
<circle cx="483" cy="283" r="3" fill="#F8F8F8"/>
<circle cx="1123" cy="283" r="3" fill="#F8F8F8"/>
<circle cx="83" cy="283" r="3" fill="#F8F8F8"/>
<circle cx="723" cy="283" r="3" fill="#F8F8F8"/>
<circle cx="403" cy="283" r="3" fill="#F8F8F8"/>
<circle cx="1043" cy="283" r="3" fill="#F8F8F8"/>
<circle cx="243" cy="283" r="3" fill="#F8F8F8"/>
<circle cx="883" cy="283" r="3" fill="#F8F8F8"/>
<circle cx="563" cy="283" r="3" fill="#F8F8F8"/>
<circle cx="1203" cy="283" r="3" fill="#F8F8F8"/>
<circle cx="1323" cy="283" r="3" fill="#F8F8F8"/>
<circle cx="43" cy="283" r="3" fill="#F8F8F8"/>
<circle cx="683" cy="283" r="3" fill="#F8F8F8"/>
<circle cx="363" cy="283" r="3" fill="#F8F8F8"/>
<circle cx="1003" cy="283" r="3" fill="#F8F8F8"/>
<circle cx="203" cy="283" r="3" fill="#F8F8F8"/>
<circle cx="843" cy="283" r="3" fill="#F8F8F8"/>
<circle cx="523" cy="283" r="3" fill="#F8F8F8"/>
<circle cx="1163" cy="283" r="3" fill="#F8F8F8"/>
<circle cx="1283" cy="283" r="3" fill="#F8F8F8"/>
<circle cx="123" cy="283" r="3" fill="#F8F8F8"/>
<circle cx="763" cy="283" r="3" fill="#F8F8F8"/>
<circle cx="443" cy="283" r="3" fill="#F8F8F8"/>
<circle cx="1083" cy="283" r="3" fill="#F8F8F8"/>
<circle cx="283" cy="283" r="3" fill="#F8F8F8"/>
<circle cx="923" cy="283" r="3" fill="#F8F8F8"/>
<circle cx="603" cy="283" r="3" fill="#F8F8F8"/>
<circle cx="1243" cy="283" r="3" fill="#F8F8F8"/>
<circle cx="1363" cy="283" r="3" fill="#F8F8F8"/>
<circle cx="1403" cy="283" r="3" fill="#F8F8F8"/>
<circle cx="3" cy="603" r="3" fill="#F8F8F8"/>
<circle cx="643" cy="603" r="3" fill="#F8F8F8"/>
<circle cx="323" cy="603" r="3" fill="#F8F8F8"/>
<circle cx="963" cy="603" r="3" fill="#F8F8F8"/>
<circle cx="163" cy="603" r="3" fill="#F8F8F8"/>
<circle cx="803" cy="603" r="3" fill="#F8F8F8"/>
<circle cx="483" cy="603" r="3" fill="#F8F8F8"/>
<circle cx="1123" cy="603" r="3" fill="#F8F8F8"/>
<circle cx="83" cy="603" r="3" fill="#F8F8F8"/>
<circle cx="723" cy="603" r="3" fill="#F8F8F8"/>
<circle cx="403" cy="603" r="3" fill="#F8F8F8"/>
<circle cx="1043" cy="603" r="3" fill="#F8F8F8"/>
<circle cx="243" cy="603" r="3" fill="#F8F8F8"/>
<circle cx="883" cy="603" r="3" fill="#F8F8F8"/>
<circle cx="563" cy="603" r="3" fill="#F8F8F8"/>
<circle cx="1203" cy="603" r="3" fill="#F8F8F8"/>
<circle cx="1323" cy="603" r="3" fill="#F8F8F8"/>
<circle cx="43" cy="603" r="3" fill="#F8F8F8"/>
<circle cx="683" cy="603" r="3" fill="#F8F8F8"/>
<circle cx="363" cy="603" r="3" fill="#F8F8F8"/>
<circle cx="1003" cy="603" r="3" fill="#F8F8F8"/>
<circle cx="203" cy="603" r="3" fill="#F8F8F8"/>
<circle cx="843" cy="603" r="3" fill="#F8F8F8"/>
<circle cx="523" cy="603" r="3" fill="#F8F8F8"/>
<circle cx="1163" cy="603" r="3" fill="#F8F8F8"/>
<circle cx="1283" cy="603" r="3" fill="#F8F8F8"/>
<circle cx="123" cy="603" r="3" fill="#F8F8F8"/>
<circle cx="763" cy="603" r="3" fill="#F8F8F8"/>
<circle cx="443" cy="603" r="3" fill="#F8F8F8"/>
<circle cx="1083" cy="603" r="3" fill="#F8F8F8"/>
<circle cx="283" cy="603" r="3" fill="#F8F8F8"/>
<circle cx="923" cy="603" r="3" fill="#F8F8F8"/>
<circle cx="603" cy="603" r="3" fill="#F8F8F8"/>
<circle cx="1243" cy="603" r="3" fill="#F8F8F8"/>
<circle cx="1363" cy="603" r="3" fill="#F8F8F8"/>
<circle cx="1403" cy="603" r="3" fill="#F8F8F8"/>
<circle cx="3" cy="843" r="3" fill="#F8F8F8"/>
<circle cx="643" cy="843" r="3" fill="#F8F8F8"/>
<circle cx="323" cy="843" r="3" fill="#F8F8F8"/>
<circle cx="963" cy="843" r="3" fill="#F8F8F8"/>
<circle cx="163" cy="843" r="3" fill="#F8F8F8"/>
<circle cx="803" cy="843" r="3" fill="#F8F8F8"/>
<circle cx="483" cy="843" r="3" fill="#F8F8F8"/>
<circle cx="1123" cy="843" r="3" fill="#F8F8F8"/>
<circle cx="83" cy="843" r="3" fill="#F8F8F8"/>
<circle cx="723" cy="843" r="3" fill="#F8F8F8"/>
<circle cx="403" cy="843" r="3" fill="#F8F8F8"/>
<circle cx="1043" cy="843" r="3" fill="#F8F8F8"/>
<circle cx="243" cy="843" r="3" fill="#F8F8F8"/>
<circle cx="883" cy="843" r="3" fill="#F8F8F8"/>
<circle cx="563" cy="843" r="3" fill="#F8F8F8"/>
<circle cx="1203" cy="843" r="3" fill="#F8F8F8"/>
<circle cx="1323" cy="843" r="3" fill="#F8F8F8"/>
<circle cx="43" cy="843" r="3" fill="#F8F8F8"/>
<circle cx="683" cy="843" r="3" fill="#F8F8F8"/>
<circle cx="363" cy="843" r="3" fill="#F8F8F8"/>
<circle cx="1003" cy="843" r="3" fill="#F8F8F8"/>
<circle cx="203" cy="843" r="3" fill="#F8F8F8"/>
<circle cx="843" cy="843" r="3" fill="#F8F8F8"/>
<circle cx="523" cy="843" r="3" fill="#F8F8F8"/>
<circle cx="1163" cy="843" r="3" fill="#F8F8F8"/>
<circle cx="1283" cy="843" r="3" fill="#F8F8F8"/>
<circle cx="123" cy="843" r="3" fill="#F8F8F8"/>
<circle cx="763" cy="843" r="3" fill="#F8F8F8"/>
<circle cx="443" cy="843" r="3" fill="#F8F8F8"/>
<circle cx="1083" cy="843" r="3" fill="#F8F8F8"/>
<circle cx="283" cy="843" r="3" fill="#F8F8F8"/>
<circle cx="923" cy="843" r="3" fill="#F8F8F8"/>
<circle cx="603" cy="843" r="3" fill="#F8F8F8"/>
<circle cx="1243" cy="843" r="3" fill="#F8F8F8"/>
<circle cx="1363" cy="843" r="3" fill="#F8F8F8"/>
<circle cx="1403" cy="843" r="3" fill="#F8F8F8"/>
</svg>
