<svg width="731" height="466" viewBox="0 0 731 466" fill="none" xmlns="http://www.w3.org/2000/svg">
<g clip-path="url(#clip0_202:509)">
<path fill-rule="evenodd" clip-rule="evenodd" d="M600.6 374.4H444.9V465.3H590.7L600.6 374.4Z" fill="#19194F"/>
<path fill-rule="evenodd" clip-rule="evenodd" d="M444.7 159.4C444.7 159.4 430.7 163.2 422.8 180.4C414.8 197.7 395.4 252.2 390.5 267.4C385.6 282.7 403.3 348.1 425.8 383H455.3C455.3 383 426.8 295.8 425.5 287.4C424.3 279 452.5 230.2 452.5 230.2C460.3 205.8 459.9 181.4 444.7 159.4Z" fill="#19194F"/>
<path fill-rule="evenodd" clip-rule="evenodd" d="M522.3 73.7C535.4 73.7 546.1 92 546.1 114.5V147.6C546.1 170 535.4 188.4 522.3 188.4C509.2 188.4 498.5 170.1 498.5 147.6V114.5C498.5 92 509.2 73.7 522.3 73.7Z" fill="#D7766D"/>
<path fill-rule="evenodd" clip-rule="evenodd" d="M600.7 159.4C600.7 159.4 614.7 163.2 622.6 180.4C630.6 197.7 650 252.2 654.9 267.4C659.8 282.7 642.1 348.1 619.6 383H590.1C590.1 383 618.6 295.8 619.9 287.4C621.1 279 592.9 230.2 592.9 230.2C585.1 205.8 585.6 181.4 600.7 159.4Z" fill="#19194F"/>
<path fill-rule="evenodd" clip-rule="evenodd" d="M528.6 157.3L524.7 157.8L522.7 159.2L520.7 157.8L516.8 157.3L494.1 139.5L444.7 159.5L442.2 206.9C445.9 254 457.5 329.5 457.5 333.2C457.5 336.9 449.7 362.4 444.8 378H522.7H600.6C595.7 362.4 587.9 336.9 587.9 333.2C587.9 329.5 599.5 254 603.2 206.9L600.7 159.5L551.3 139.5L528.6 157.3Z" fill="#2C2A64"/>
<path fill-rule="evenodd" clip-rule="evenodd" d="M517.6 158.1L519.9 157.8C519.9 157.8 520.4 158.2 520.4 158.9C520.5 159.6 520.5 161.8 520.5 161.8L518.7 162.4C518.7 162.4 515.2 162.5 515.2 162.4C515.4 162.1 517.6 158.1 517.6 158.1Z" fill="#ACCBDB"/>
<path fill-rule="evenodd" clip-rule="evenodd" d="M527 158.1L524.7 157.8C524.7 157.8 524.2 158.2 524.2 158.9C524.1 159.6 524.1 161.8 524.1 161.8L525.9 162.4C525.9 162.4 529.4 162.5 529.4 162.4C529.3 162.1 527 158.1 527 158.1Z" fill="#ACCBDB"/>
<path fill-rule="evenodd" clip-rule="evenodd" d="M546.2 131.9C546.2 131.9 548.3 131.6 549 131.9C549.7 132.2 552.1 140.7 553.6 142.8C553.6 142.8 554.9 144.5 554 147.4C553 150.3 540 174.1 540 174.1C540 174.1 539.1 175.4 537.6 174.1C536.1 172.9 524.8 157.7 524.8 157.7L546.2 133.7V131.9Z" fill="white"/>
<path fill-rule="evenodd" clip-rule="evenodd" d="M498.5 132.1C498.5 132.1 496.4 131.8 495.7 132.1C495 132.4 492.6 140.7 491.1 142.8C491.1 142.8 489.8 144.5 490.7 147.4C491.7 150.3 504.7 174.1 504.7 174.1C504.7 174.1 505.6 175.4 507.1 174.1C508.6 172.9 519.9 157.7 519.9 157.7L498.5 134V132.1Z" fill="white"/>
<path fill-rule="evenodd" clip-rule="evenodd" d="M565.6 66.9C565.9 66.9 566.2 67 566.6 67.1C572.4 68.4 576.7 73.5 576.8 79.6C576.9 86.8 571.1 92.7 564 92.7C556.8 92.8 550.9 87 550.9 79.9C550.8 75.7 552.8 72 555.8 69.6C555.4 73.4 556 78.2 560.9 78.7L560.8 71.2C560.7 68.2 563.5 66.8 565.6 66.9Z" fill="#D77F68"/>
<path fill-rule="evenodd" clip-rule="evenodd" d="M480 66.9C479.7 66.9 479.4 67 479 67.1C473.2 68.3 468.8 73.3 468.6 79.5C468.4 86.7 474.1 92.6 481.2 92.8C488.4 93 494.3 87.3 494.5 80.2C494.6 76 492.7 72.3 489.8 69.8C490.1 73.6 489.5 78.4 484.6 78.8L484.8 71.3C484.9 68.2 482.1 66.8 480 66.9Z" fill="#D77F68"/>
<path fill-rule="evenodd" clip-rule="evenodd" d="M522.7 131.9C498.5 131.9 478.2 102 478.2 78.4V47C478.2 22.5 498.2 2.5 522.7 2.5C547.2 2.5 567.2 22.5 567.2 47V77.7C567.2 103.6 549.6 131.9 522.7 131.9Z" fill="#E6AD83"/>
<path fill-rule="evenodd" clip-rule="evenodd" d="M553.3 77.2C549.2 77.3 545.9 80.7 545.9 84.8C546 88.9 549.4 92.2 553.5 92.2C557.6 92.1 560.9 88.7 560.9 84.6C560.8 80.5 557.4 77.2 553.3 77.2Z" fill="#D7766D"/>
<path fill-rule="evenodd" clip-rule="evenodd" d="M491.9 78.4C487.8 78.5 484.5 81.9 484.5 86C484.6 90.1 488 93.4 492.1 93.4C496.2 93.3 499.5 89.9 499.5 85.8C499.5 81.7 496.1 78.4 491.9 78.4Z" fill="#D7766D"/>
<path fill-rule="evenodd" clip-rule="evenodd" d="M508.1 58.9C508.9 59.6 508.9 60.8 508.2 61.5C507.5 62.3 506.3 62.3 505.6 61.6C505.6 61.6 501.1 57.3 494.9 58.9C493.9 59.2 492.9 58.5 492.6 57.5C492.3 56.5 493 55.5 494 55.2C502.1 53.3 508.1 58.9 508.1 58.9Z" fill="#19194F"/>
<path fill-rule="evenodd" clip-rule="evenodd" d="M551.5 55.6C552.5 55.9 553.1 56.9 552.8 57.9C552.5 58.9 551.5 59.5 550.5 59.2C550.5 59.2 544.5 57.5 539.8 61.8C539 62.5 537.8 62.4 537.2 61.7C536.5 60.9 536.6 59.7 537.3 59.1C543.6 53.4 551.5 55.6 551.5 55.6Z" fill="#19194F"/>
<path fill-rule="evenodd" clip-rule="evenodd" d="M523.9 79.4C524.7 81.7 526.2 85.7 526.1 86.4C525.9 87.4 521 88.2 519.7 87C518.8 86.2 519.9 82.5 520.8 80C522.1 76.6 522.8 76.4 523.9 79.4Z" fill="#EBBF9E"/>
<path fill-rule="evenodd" clip-rule="evenodd" d="M532.1 97.2C532.1 102.4 527.9 106.5 522.8 106.5C517.6 106.5 513.5 102.3 513.5 97.2C513.5 96.3 514.3 95.5 515.2 95.5H530.4C531.3 95.5 532.1 96.2 532.1 97.2Z" fill="#12151D"/>
<path fill-rule="evenodd" clip-rule="evenodd" d="M516 95.5H529.4V97C529.4 97.8 528.7 98.5 527.9 98.5H517.5C516.7 98.5 516 97.8 516 97V95.5Z" fill="white"/>
<path fill-rule="evenodd" clip-rule="evenodd" d="M529.5 103.6C527.8 105.4 525.4 106.5 522.7 106.5C520 106.5 517.6 105.4 515.9 103.6C517.6 101.8 520 100.7 522.7 100.7C525.4 100.7 527.8 101.8 529.5 103.6Z" fill="#D26070"/>
<path fill-rule="evenodd" clip-rule="evenodd" d="M501 76.2C504 76.2 506.4 73.8 506.4 70.8C506.4 67.9 504 65.4 501 65.4C498.1 65.4 495.6 67.8 495.6 70.8C495.6 73.8 498 76.2 501 76.2Z" fill="#19194F"/>
<path fill-rule="evenodd" clip-rule="evenodd" d="M544.5 76.2C547.4 76.2 549.9 73.8 549.9 70.8C549.9 67.9 547.5 65.4 544.5 65.4C541.5 65.4 539.1 67.8 539.1 70.8C539.1 73.8 541.5 76.2 544.5 76.2Z" fill="#19194F"/>
<path fill-rule="evenodd" clip-rule="evenodd" d="M509.6 159.5C509.9 158.1 511.2 158.4 511.2 158.4L519.4 162.6L522.7 166.5L519.4 170.4L511.2 174.6C511.2 174.6 509.9 174.9 509.6 173.5L512.1 166.6L509.6 159.5Z" fill="#CF4A60"/>
<path fill-rule="evenodd" clip-rule="evenodd" d="M535.9 159.5C535.6 158.1 534.3 158.4 534.3 158.4L526.1 162.6L522.8 166.5L526.1 170.4L534.3 174.6C534.3 174.6 535.6 174.9 535.9 173.5L533.4 166.6L535.9 159.5Z" fill="#CF4A60"/>
<path fill-rule="evenodd" clip-rule="evenodd" d="M521 161H524.5C525.4 161 526.1 161.7 526.1 162.6V170.3C526.1 171.2 525.4 171.9 524.5 171.9H521C520.1 171.9 519.4 171.2 519.4 170.3V162.6C519.4 161.7 520.1 161 521 161Z" fill="#BA3147"/>
<path fill-rule="evenodd" clip-rule="evenodd" d="M555.6 112.7C555.2 112.7 554.9 112.5 554.9 112.1C554.9 111.7 555.1 111.4 555.5 111.4H555.7C559.7 110.9 563 107.2 565.2 102.7C566.9 99.2 568 95.3 568.2 92C568.7 91.8 569.1 91.6 569.6 91.4C569.4 95 568.3 99.4 566.4 103.3C564 108.2 560.4 112.2 555.8 112.8L555.6 112.7Z" fill="#ACCBDB"/>
<path fill-rule="evenodd" clip-rule="evenodd" d="M489.8 112.7C490.2 112.7 490.5 112.5 490.5 112.1C490.5 111.7 490.3 111.4 489.9 111.4H489.7C485.7 110.9 482.4 107.2 480.2 102.7C478.5 99.2 477.4 95.3 477.2 92C476.7 91.8 476.3 91.6 475.8 91.4C476 95 477.1 99.4 479 103.3C481.4 108.2 485 112.2 489.6 112.8L489.8 112.7Z" fill="#ACCBDB"/>
<path fill-rule="evenodd" clip-rule="evenodd" d="M504.8 33.8C500.1 33.8 490.9 36 490.9 45.5C490.9 55 489.1 62.5 483.1 62.5C483.1 62.5 483.1 65.8 483.1 69.9C483.1 74 482.7 78.2 478.8 78.2C478.8 69.3 476.1 65.8 476.1 65.8C476.1 65.8 476.1 53.9 476.1 43.4C476 33 479 19 492.7 9.3C510.4 -3.1 535.1 -3.1 552.8 9.3C566.5 18.9 569.4 32.9 569.4 43.4C569.4 53.8 569.4 65.8 569.4 65.8C569.4 65.8 566.7 69.3 566.7 78.2C562.8 78.2 562.4 74 562.4 69.9C562.4 65.8 562.4 62.5 562.4 62.5C556.4 62.5 554.6 55 554.6 45.5C554.6 36 545.4 33.8 540.7 33.8C528.7 33.8 516.7 33.8 504.8 33.8Z" fill="#19194F"/>
<path fill-rule="evenodd" clip-rule="evenodd" d="M476 65.8C476 65.8 479.8 88.6 479.8 99.3C479.8 110.1 492.9 126.9 504.4 130.8C515.8 134.7 519.8 134.5 522.7 134.5C525.6 134.5 529.6 134.7 541 130.8C552.4 126.9 566.5 110.3 566.5 99.5C566.5 88.7 569.4 65.7 569.4 65.7L563.3 62.1C563.3 68.2 561 82.3 560.6 90C560.1 98 554.1 98.7 546.3 100.8C540.7 102.3 539.5 117.3 535 117.3C530.5 117.3 527.7 115.6 526.5 115.1C525.2 114.6 522.7 114.6 522.7 114.6C522.7 114.6 520.2 114.6 518.9 115.1C517.6 115.6 514.9 117.3 510.4 117.3C505.9 117.3 505.6 102.1 500.1 100.6C492.3 98.5 486.3 97.8 485.8 89.8C485.3 82.1 482.1 68.2 482.1 62.1L476 65.8Z" fill="#19194F"/>
<path fill-rule="evenodd" clip-rule="evenodd" d="M495.2 36.7C492.8 38.5 490.9 41.3 490.9 45.5C490.9 55 489.1 62.5 483.1 62.5V63.3V64.7V67.8C483.1 69.7 481.5 71.3 479.6 71.3C477.7 71.3 476.1 69.7 476.1 67.8V63.3V63.2V43.4C476.1 40.8 476.3 37.9 476.8 34.9C484.9 30.9 495.2 36.7 495.2 36.7ZM562.4 63.1V63.2V67.7C562.4 69.6 564 71.2 565.9 71.2C567.8 71.2 569.4 69.6 569.4 67.7V64.6V63.2V43.4C569.4 40.8 569.2 37.9 568.7 34.9C560.6 30.9 550.4 36.6 550.2 36.7C552.7 38.5 554.5 41.3 554.5 45.5C554.5 55 556.3 62.5 562.3 62.5V63.1H562.4Z" fill="#2C2A64"/>
<path fill-rule="evenodd" clip-rule="evenodd" d="M559.2 85.1C559.1 85.5 558.7 85.7 558.3 85.6C557.9 85.5 557.7 85.1 557.8 84.7C557.8 84.7 561.4 72.5 567.6 67.4L568 68.9C562.5 73.8 559.2 85.1 559.2 85.1Z" fill="#ACCBDB"/>
<path fill-rule="evenodd" clip-rule="evenodd" d="M486.3 85.1C486.4 85.5 486.8 85.7 487.2 85.6C487.6 85.5 487.8 85.1 487.7 84.7C487.7 84.7 484.1 72.5 477.9 67.4L477.5 68.9C482.9 73.8 486.2 85.1 486.3 85.1Z" fill="#ACCBDB"/>
<path fill-rule="evenodd" clip-rule="evenodd" d="M522.7 79.7L559.3 81.7C559.3 81.7 560.8 82.1 560.7 83.5C560.7 84.8 559.4 110.8 559.4 110.8C559.4 110.8 559.3 113.1 557.9 115.1C556.4 117.1 544.9 136.1 522.7 136.1C500.5 136.1 489 117.1 487.5 115.1C486.1 113.1 486 110.8 486 110.8C486 110.8 484.7 84.9 484.7 83.5C484.7 82.2 486.1 81.7 486.1 81.7L522.7 79.7Z" fill="white"/>
<path fill-rule="evenodd" clip-rule="evenodd" d="M522.7 82.5L487.5 84.4C487.8 93.1 488.4 101.9 488.8 110.6C488.8 111.5 489.2 112.7 489.8 113.4C490.8 114.8 491.7 116.1 492.7 117.4C494.6 119.8 496.8 122.1 499.1 124.1C505.8 129.8 513.7 133.2 522.6 133.2C531.5 133.2 539.4 129.9 546.1 124.1C548.5 122.1 550.6 119.8 552.5 117.4C553.6 116.1 554.4 114.7 555.4 113.4C555.9 112.7 556.3 111.5 556.4 110.6C556.8 101.9 557.4 93.1 557.7 84.4L522.7 82.5Z" fill="#D3E4EC"/>
<path fill-rule="evenodd" clip-rule="evenodd" d="M488.1 95.7C488.3 99.1 488.5 102.5 488.6 105.9L521 93.4L488.1 95.7ZM488.8 109.4L488.9 110.6C488.9 111.5 489.3 112.7 489.9 113.4C490.9 114.8 491.8 116.1 492.8 117.4C494.7 119.8 496.9 122.1 499.2 124.1C505.9 129.8 513.8 133.2 522.7 133.2C531.6 133.2 539.5 129.9 546.2 124.1C548.6 122.1 550.7 119.8 552.6 117.4C553.7 116.1 554.5 114.7 555.5 113.4C555.6 113.2 555.8 113 555.9 112.7C555.9 112.7 550.2 118.9 530.4 118.9C510.7 118.8 488.8 109.4 488.8 109.4ZM556.7 108.1C556.8 105.6 557 103.1 557.1 100.6L532.9 98.9L556.7 108.1Z" fill="#ACCBDB"/>
<path fill-rule="evenodd" clip-rule="evenodd" d="M159.1 159.4C159.1 159.4 145.1 163.2 137.2 180.4C129.2 197.7 109.8 252.2 104.9 267.4C100 282.7 117.7 348.1 140.2 383H169.7C169.7 383 141.2 295.8 139.9 287.4C138.7 279 166.9 230.2 166.9 230.2C174.7 205.8 174.3 181.4 159.1 159.4Z" fill="#E7F0F4"/>
<path fill-rule="evenodd" clip-rule="evenodd" d="M236.7 73.7C249.8 73.7 260.5 92 260.5 114.5V147.6C260.5 170 249.8 188.4 236.7 188.4C223.6 188.4 212.9 170.1 212.9 147.6V114.5C212.9 92 223.6 73.7 236.7 73.7Z" fill="#D7766D"/>
<path fill-rule="evenodd" clip-rule="evenodd" d="M315.1 159.4C315.1 159.4 329.1 163.2 337 180.4C345 197.7 364.4 252.2 369.3 267.4C374.2 282.7 356.5 348.1 334 383H304.5C304.5 383 333 295.8 334.3 287.4C335.5 279 307.3 230.2 307.3 230.2C299.5 205.8 300 181.4 315.1 159.4Z" fill="#E7F0F4"/>
<path fill-rule="evenodd" clip-rule="evenodd" d="M243 157.3L239.1 157.8L237.1 159.2L235.1 157.8L231.2 157.3L208.5 139.5L159.1 159.5L156.6 206.9C160.4 254 172 329.5 172 333.1C172 336.8 164.2 362.3 159.3 377.9H237.2H315C310.1 362.3 302.3 336.8 302.3 333.1C302.3 329.4 313.9 253.9 317.6 206.8L315.1 159.4L265.7 139.4L243 157.3Z" fill="white"/>
<path fill-rule="evenodd" clip-rule="evenodd" d="M242.1 169.7L243.1 175.4L253.9 315.8L236.7 352.3L219.6 315.8L230.4 175.4L231.4 169.7L236.7 173.2L242.1 169.7Z" fill="#CF4A60"/>
<path fill-rule="evenodd" clip-rule="evenodd" d="M242.1 169.7L243.2 175.4L254 315.8L236.8 352.3C236.8 352.3 246.9 320.9 247.3 316C247.7 311.1 241.2 177.2 239.3 175.9C237.4 174.7 233.6 174.8 233.6 174.8L236 172.6L236.7 173.1L242.1 169.7Z" fill="#BA3147"/>
<path fill-rule="evenodd" clip-rule="evenodd" d="M232 158.1L234.3 157.8C234.3 157.8 234.8 158.2 234.8 158.9C234.9 159.6 234.9 161.8 234.9 161.8L233.1 162.4C233.1 162.4 229.6 162.5 229.6 162.4C229.8 162.1 232 158.1 232 158.1Z" fill="#ACCBDB"/>
<path fill-rule="evenodd" clip-rule="evenodd" d="M241.4 158.1L239.1 157.8C239.1 157.8 238.6 158.2 238.6 158.9C238.5 159.6 238.5 161.8 238.5 161.8L240.3 162.4C240.3 162.4 243.8 162.5 243.8 162.4C243.7 162.1 241.4 158.1 241.4 158.1Z" fill="#ACCBDB"/>
<path fill-rule="evenodd" clip-rule="evenodd" d="M230.4 175.4L225.4 164.4C229.7 160.3 243.9 160.3 248.2 164.4L243.2 175.4C239.6 174.4 233.9 174.4 230.4 175.4Z" fill="#CF4A60"/>
<path fill-rule="evenodd" clip-rule="evenodd" d="M227.3 168.7L225.3 164.3C226.9 162.8 229.7 161.9 232.9 161.5L227.3 168.7ZM236.9 161.3C241.5 161.3 246.1 162.3 248.2 164.4L243.2 175.4C241.8 175 240.1 174.8 238.4 174.7C239.4 173.9 240.6 172.9 240.6 172.6C240.7 172.2 240.6 162.7 240.2 162.5L236.9 161.3Z" fill="#BA3147"/>
<path fill-rule="evenodd" clip-rule="evenodd" d="M260.6 132C260.6 132 262.7 131.7 263.4 132C264.1 132.3 266.5 140.7 268 142.8C268 142.8 269.3 144.5 268.4 147.4C267.4 150.3 254.4 174.1 254.4 174.1C254.4 174.1 253.5 175.4 252 174.1C250.5 172.9 239.2 157.7 239.2 157.7L260.6 133.9V132Z" fill="#D3E4EC"/>
<path fill-rule="evenodd" clip-rule="evenodd" d="M212.9 131.5C212.9 131.5 210.8 131.2 210.1 131.5C209.4 131.8 207 140.7 205.5 142.8C205.5 142.8 204.2 144.5 205.1 147.4C206.1 150.3 219.1 174.1 219.1 174.1C219.1 174.1 220 175.4 221.5 174.1C223 172.9 234.3 157.7 234.3 157.7L212.9 133.4V131.5Z" fill="#D3E4EC"/>
<path fill-rule="evenodd" clip-rule="evenodd" d="M280 66.9C280.3 66.9 280.6 67 281 67.1C286.8 68.4 291.1 73.5 291.2 79.6C291.3 86.8 285.5 92.7 278.4 92.7C271.2 92.8 265.3 87 265.3 79.9C265.2 75.7 267.2 72 270.2 69.6C269.8 73.4 270.4 78.2 275.3 78.7L275.2 71.2C275.1 68.2 277.9 66.8 280 66.9Z" fill="#D77F68"/>
<path fill-rule="evenodd" clip-rule="evenodd" d="M194.4 66.9C194.1 66.9 193.8 67 193.4 67.1C187.6 68.3 183.2 73.3 183 79.5C182.8 86.7 188.5 92.6 195.6 92.8C202.8 93 208.7 87.3 208.9 80.2C209 76 207.1 72.3 204.2 69.8C204.5 73.6 203.9 78.4 199 78.8L199.2 71.3C199.3 68.2 196.5 66.8 194.4 66.9Z" fill="#D77F68"/>
<path fill-rule="evenodd" clip-rule="evenodd" d="M237.1 131.9C212.9 131.9 192.6 102 192.6 78.4V47C192.6 22.5 212.6 2.5 237.1 2.5C261.6 2.5 281.6 22.5 281.6 47V77.7C281.6 103.6 264 131.9 237.1 131.9Z" fill="#E6AD83"/>
<path fill-rule="evenodd" clip-rule="evenodd" d="M267.7 77.2C263.6 77.3 260.3 80.7 260.3 84.8C260.4 88.9 263.8 92.2 267.9 92.2C272 92.1 275.3 88.7 275.3 84.6C275.2 80.5 271.8 77.2 267.7 77.2Z" fill="#D7766D"/>
<path fill-rule="evenodd" clip-rule="evenodd" d="M206.3 78.4C202.2 78.5 198.9 81.9 198.9 86C199 90.1 202.4 93.4 206.5 93.4C210.6 93.3 213.9 89.9 213.9 85.8C213.9 81.7 210.5 78.4 206.3 78.4Z" fill="#D7766D"/>
<path fill-rule="evenodd" clip-rule="evenodd" d="M222.4 56.6C223.3 57 223.8 58.1 223.3 59.1C222.9 60 221.8 60.5 220.8 60C220.8 60 215.2 57.3 209.8 60.7C208.9 61.2 207.8 61 207.2 60.1C206.7 59.2 206.9 58.1 207.8 57.5C214.9 53.1 222.3 56.6 222.4 56.6Z" fill="#19194F"/>
<path fill-rule="evenodd" clip-rule="evenodd" d="M266.3 57.4C267.2 57.9 267.5 59 267 59.9C266.5 60.8 265.4 61.1 264.5 60.6C264.5 60.6 259.1 57.5 253.5 60.4C252.6 60.9 251.5 60.5 251 59.6C250.5 58.7 250.9 57.6 251.8 57.1C259.2 53.3 266.3 57.4 266.3 57.4Z" fill="#19194F"/>
<path fill-rule="evenodd" clip-rule="evenodd" d="M238.3 79.4C239.1 81.7 240.6 85.7 240.5 86.4C240.3 87.4 235.4 88.2 234.1 87C233.2 86.2 234.3 82.5 235.2 80C236.5 76.6 237.2 76.4 238.3 79.4Z" fill="#EBBF9E"/>
<path fill-rule="evenodd" clip-rule="evenodd" d="M246.5 97.2C246.5 102.4 242.3 106.5 237.2 106.5C232 106.5 227.9 102.3 227.9 97.2C227.9 96.3 228.7 95.5 229.6 95.5H244.8C245.7 95.5 246.5 96.2 246.5 97.2Z" fill="#12151D"/>
<path fill-rule="evenodd" clip-rule="evenodd" d="M230.4 95.5H243.8V97C243.8 97.8 243.1 98.5 242.3 98.5H231.9C231.1 98.5 230.4 97.8 230.4 97V95.5Z" fill="white"/>
<path fill-rule="evenodd" clip-rule="evenodd" d="M243.9 103.6C242.2 105.4 239.8 106.5 237.1 106.5C234.4 106.5 232 105.4 230.3 103.6C232 101.8 234.4 100.7 237.1 100.7C239.8 100.7 242.2 101.8 243.9 103.6Z" fill="#D26070"/>
<path fill-rule="evenodd" clip-rule="evenodd" d="M215.4 76.2C218.3 76.2 220.8 73.8 220.8 70.8C220.8 67.9 218.4 65.4 215.4 65.4C212.4 65.4 210 67.8 210 70.8C210 73.8 212.4 76.2 215.4 76.2Z" fill="#19194F"/>
<path fill-rule="evenodd" clip-rule="evenodd" d="M258.9 76.2C261.8 76.2 264.3 73.8 264.3 70.8C264.3 67.9 261.9 65.4 258.9 65.4C255.9 65.4 253.5 67.8 253.5 70.8C253.5 73.8 255.9 76.2 258.9 76.2Z" fill="#19194F"/>
<path fill-rule="evenodd" clip-rule="evenodd" d="M271.7 86C271.6 86.4 271.2 86.6 270.9 86.5C270.5 86.4 270.3 86 270.4 85.7C270.4 85.7 273.8 74.1 279.7 69.3L280.1 70.7C274.8 75.3 271.7 86 271.7 86Z" fill="#ACCBDB"/>
<path fill-rule="evenodd" clip-rule="evenodd" d="M270 112.7C269.6 112.7 269.3 112.5 269.3 112.1C269.3 111.7 269.5 111.4 269.9 111.4H270.1C274.1 110.9 277.4 107.2 279.6 102.7C281.3 99.2 282.4 95.3 282.6 92C283.1 91.8 283.5 91.6 284 91.4C283.8 95 282.7 99.4 280.8 103.3C278.4 108.2 274.8 112.2 270.2 112.8L270 112.7Z" fill="#ACCBDB"/>
<path fill-rule="evenodd" clip-rule="evenodd" d="M202.6 86C202.7 86.4 203.1 86.6 203.4 86.5C203.8 86.4 204 86 203.9 85.7C203.9 85.7 200.5 74.1 194.6 69.3L194.2 70.7C199.5 75.3 202.6 86 202.6 86Z" fill="#ACCBDB"/>
<path fill-rule="evenodd" clip-rule="evenodd" d="M204.3 112.7C204.7 112.7 205 112.5 205 112.1C205 111.7 204.8 111.4 204.4 111.4H204.2C200.2 110.9 196.9 107.2 194.7 102.7C193 99.2 191.9 95.3 191.7 92C191.2 91.8 190.8 91.6 190.3 91.4C190.5 95 191.6 99.4 193.5 103.3C195.9 108.2 199.5 112.2 204.1 112.8L204.3 112.7Z" fill="#ACCBDB"/>
<path fill-rule="evenodd" clip-rule="evenodd" d="M237.1 80.8L271.7 82.7C271.7 82.7 273.1 83.1 273 84.4C273 85.7 271.7 110.2 271.7 110.2C271.7 110.2 271.6 112.4 270.3 114.3C268.9 116.2 258 134.2 237 134.2C216 134.2 205.1 116.2 203.7 114.3C202.3 112.4 202.3 110.2 202.3 110.2C202.3 110.2 201.1 85.7 201 84.4C201 83.1 202.3 82.7 202.3 82.7L237.1 80.8Z" fill="white"/>
<path fill-rule="evenodd" clip-rule="evenodd" d="M237.1 83.5L203.8 85.3C204.1 93.5 204.7 101.8 205 110.1C205 111 205.4 112.1 205.9 112.8C206.8 114.1 207.7 115.4 208.7 116.6C210.5 118.9 212.6 121.1 214.8 123C221.2 128.4 228.6 131.6 237.1 131.6C245.5 131.6 253 128.5 259.4 123C261.6 121.1 263.7 118.9 265.5 116.6C266.5 115.3 267.3 114.1 268.3 112.8C268.8 112.1 269.2 111 269.2 110.1C269.6 101.9 270.1 93.6 270.4 85.3L237.1 83.5Z" fill="#D3E4EC"/>
<path fill-rule="evenodd" clip-rule="evenodd" d="M204.3 96C204.5 99.2 204.7 102.4 204.8 105.7L235.5 93.9L204.3 96ZM205 109V110.1C205 111 205.4 112.1 205.9 112.8C206.8 114.1 207.7 115.4 208.7 116.6C210.5 118.9 212.6 121.1 214.8 123C221.2 128.4 228.6 131.6 237.1 131.6C245.5 131.6 253 128.5 259.4 123C261.6 121.1 263.7 118.9 265.5 116.6C266.5 115.3 267.3 114.1 268.3 112.8C268.4 112.6 268.6 112.4 268.7 112.1C268.7 112.1 263.3 117.9 244.6 117.9C225.8 117.9 205 109 205 109ZM269.3 107.7C269.4 105.3 269.5 103 269.7 100.6L246.8 99L269.3 107.7Z" fill="#ACCBDB"/>
<path fill-rule="evenodd" clip-rule="evenodd" d="M237.1 1.60001C247.8 1.60001 258.5 4.70001 267.5 11C281.3 20.7 284.3 34.9 284.3 45.4C284.3 55.9 284.3 68 284.3 68C284.3 68 281.6 71.5 281.6 80.6C277.6 80.6 277.2 76.4 277.2 72.2C277.2 68 277.2 64.7 277.2 64.7C268.5 64.7 267.5 41.4 269.1 38.6C270.4 36.3 274.5 30.3 276 28.6C276 28.6 276.6 27.8 276 27.4C275.4 27 274.9 27.6 272.5 30.1C270 32.6 267 35.3 265.6 36C263.4 37.1 256.3 35.7 252.9 35.7H237.2H221.5C218 35.7 210.9 37.2 208.8 36C207.4 35.3 204.3 32.6 201.9 30.1C199.4 27.6 199 27 198.4 27.4C197.8 27.7 198.4 28.6 198.4 28.6C199.8 30.4 204 36.4 205.3 38.6C206.9 41.4 205.9 64.7 197.2 64.7C197.2 64.7 197.2 68 197.2 72.2C197.2 76.4 196.8 80.6 192.8 80.6C192.8 71.6 190.1 68 190.1 68C190.1 68 190.1 55.9 190.1 45.4C190.1 34.9 193.1 20.7 206.9 11C215.7 4.80001 226.4 1.60001 237.1 1.60001Z" fill="#2C2A64"/>
<path fill-rule="evenodd" clip-rule="evenodd" d="M198.3 27.5C198.9 27.1 199.4 27.7 201.8 30.2C204.3 32.7 207.3 35.4 208.7 36.1C210.9 37.2 218 35.8 221.4 35.8H237.1H252.8C256.3 35.8 263.4 37.3 265.5 36.1C266.9 35.4 270 32.7 272.4 30.2C274.9 27.7 275.4 27.1 275.9 27.5C276.5 27.8 275.9 28.7 275.9 28.7L276.7 27.7L279.4 24.5C276.8 19.6 273 15 267.4 11.1C258.4 4.80001 247.7 1.70001 237 1.70001C226.3 1.70001 215.6 4.80001 206.6 11.1C201 15 197.2 19.7 194.6 24.5L197.3 27.7L198.1 28.7C198.3 28.6 197.7 27.8 198.3 27.5Z" fill="#19194F"/>
<path fill-rule="evenodd" clip-rule="evenodd" d="M315 377.9H186.3V465.3H306.8L315 377.9Z" fill="#19194F"/>
<path fill-rule="evenodd" clip-rule="evenodd" d="M83.6 202C83.6 202 84.8 222.2 77.2 240.3C77.2 240.3 75.8 244.8 78.9 247.5C81.9 250.2 103.2 257.6 130.4 257.6C157.6 257.6 178.9 250.2 181.9 247.5C184.9 244.8 183.6 240.3 183.6 240.3C176 222.2 177.2 202 177.2 202L130.4 197.4L83.6 202Z" fill="#19194F"/>
<path fill-rule="evenodd" clip-rule="evenodd" d="M71.4 465.3C75.6 443.1 72.6 422.6 68.3 392.3C60.1 376.4 53.9 347.6 58.2 326.9C62.5 306.2 63 276.4 63 276.4C63 276.4 103.8 267.4 107.4 265.6C111 263.8 111.3 256.2 111.3 256.2L130.3 252.1L149.3 256.2C149.3 256.2 149.6 263.8 153.2 265.6C156.8 267.4 197.6 276.4 197.6 276.4C197.6 276.4 198.1 306.3 202.4 326.9C206.7 347.6 200.5 376.4 192.3 392.3C188 422.6 185 443 189.2 465.3H71.4Z" fill="#E6AD83"/>
<path fill-rule="evenodd" clip-rule="evenodd" d="M130.4 208.2C140.9 208.2 149.4 216.8 149.4 227.2V263.7C149.4 274.2 140.8 282.7 130.4 282.7C119.9 282.7 111.4 274.1 111.4 263.7V227.2C111.3 216.8 119.9 208.2 130.4 208.2Z" fill="#E6AD83"/>
<path fill-rule="evenodd" clip-rule="evenodd" d="M171.9 191.4C172.2 191.4 172.5 191.5 172.8 191.6C178.2 192.8 182.3 197.5 182.3 203.3C182.4 210 177 215.5 170.3 215.6C163.6 215.7 158.1 210.3 158 203.6C158 199.7 159.7 196.2 162.6 194C162.3 197.6 162.8 202 167.4 202.5L167.3 195.5C167.3 192.6 170 191.3 171.9 191.4Z" fill="#D7766D"/>
<path fill-rule="evenodd" clip-rule="evenodd" d="M89 190.9C88.7 190.9 88.4 191 88.1 191C82.7 192.1 78.5 196.8 78.4 202.6C78.2 209.3 83.5 214.9 90.2 215C96.9 215.2 102.5 209.9 102.6 203.2C102.7 199.3 101 195.8 98.2 193.5C98.5 197.1 97.9 201.5 93.3 201.9L93.5 194.9C93.6 192.1 90.9 190.8 89 190.9Z" fill="#D7766D"/>
<path fill-rule="evenodd" clip-rule="evenodd" d="M130.4 252.2C107.8 252.2 88.9 224.3 88.9 202.2V172.9C88.9 150.1 107.6 131.4 130.4 131.4C153.2 131.4 171.9 150.1 171.9 172.9V201.6C171.9 225.7 155.4 252.2 130.4 252.2Z" fill="#E6AD83"/>
<path fill-rule="evenodd" clip-rule="evenodd" d="M93.4 154.1C95.8 149.4 99.1 145.2 103 141.8L150.2 148.2C150.2 148.2 167.2 160 171.8 169.1C171.9 170.3 172 171.6 172 172.9V176C171 177.2 169.3 178.2 166.5 178.9C145.4 183.7 130.9 167.1 130.9 167.1C130.9 167.1 144.7 167.6 126.1 173.5C107.5 179.4 95 162.5 95 162.5L93.4 154.1Z" fill="#D7766D"/>
<path fill-rule="evenodd" clip-rule="evenodd" d="M160.4 210C156.6 210.1 153.6 213.2 153.7 217C153.8 220.8 156.9 223.8 160.7 223.7C164.5 223.6 167.5 220.5 167.4 216.7C167.3 213 164.2 210 160.4 210Z" fill="#D7766D"/>
<path fill-rule="evenodd" clip-rule="evenodd" d="M100.1 211.1C96.3 211.2 93.3 214.3 93.4 218.1C93.5 221.9 96.6 224.9 100.4 224.8C104.2 224.7 107.2 221.6 107.1 217.8C107 214.1 103.9 211.1 100.1 211.1Z" fill="#D7766D"/>
<path fill-rule="evenodd" clip-rule="evenodd" d="M118 181.2C118.9 181.6 119.3 182.6 118.9 183.5C118.5 184.4 117.5 184.8 116.6 184.4C116.6 184.4 111.3 181.9 106.3 185.1C105.5 185.6 104.4 185.4 103.9 184.6C103.4 183.8 103.6 182.7 104.4 182.2C111.1 178 118 181.2 118 181.2Z" fill="#19194F"/>
<path fill-rule="evenodd" clip-rule="evenodd" d="M159.1 182C159.9 182.5 160.2 183.5 159.8 184.4C159.3 185.2 158.3 185.5 157.4 185.1C157.4 185.1 152.4 182.2 147.1 184.9C146.2 185.3 145.2 185 144.7 184.2C144.3 183.3 144.6 182.3 145.4 181.8C152.4 178.2 159.1 182 159.1 182Z" fill="#19194F"/>
<path fill-rule="evenodd" clip-rule="evenodd" d="M120.1 222.3C120 229.1 125.5 234.6 132.3 234.7C139.1 234.8 144.6 229.3 144.7 222.5C144.7 221.3 143.8 220.4 142.6 220.4L122.3 220.2C121.1 220.2 120.1 221.2 120.1 222.3Z" fill="white"/>
<path fill-rule="evenodd" clip-rule="evenodd" d="M124.6 231.9C126.7 233.6 129.4 234.7 132.3 234.7C134.7 234.7 136.9 234.1 138.8 232.9C137.9 230.4 135.1 228.5 131.8 228.3C128.6 228.2 125.8 229.7 124.6 231.9Z" fill="white"/>
<path fill-rule="evenodd" clip-rule="evenodd" d="M141.9 220.4L122.8 220.2C122.5 222.3 123.4 224.4 124.8 224.9C126.5 225.5 140.3 225.2 141.3 224.2C141.8 223.7 141.9 222 141.9 220.4Z" fill="white"/>
<path fill-rule="evenodd" clip-rule="evenodd" d="M133.2 203.1C134.1 205.6 135.6 210.2 135.5 210.9C135.3 211.9 130 212.2 128.6 210.6C127.7 209.6 128.8 205.8 129.8 203.3C131.2 199.8 132 199.7 133.2 203.1Z" fill="#F1D3C8"/>
<path fill-rule="evenodd" clip-rule="evenodd" d="M175.4 271.3L167.2 381.7L184 382.1C184 382.1 187.3 435.5 193.4 465.2H67.8C73.9 435.4 77.2 382.1 77.2 382.1L94 381.7L85.8 271.3C109.8 310.5 151.5 310.5 175.4 271.3Z" fill="white"/>
<path fill-rule="evenodd" clip-rule="evenodd" d="M114 465.3H67.8C73.9 435.5 77.2 382.2 77.2 382.2L94 381.8L87.4 292.9C93.1 291.9 98.2 291.2 102.5 290.6C106.9 294 111.5 296.6 116.3 298.3C115.3 456.4 114 464.7 114 464.7V465.3Z" fill="#CFD0D2"/>
<path fill-rule="evenodd" clip-rule="evenodd" d="M173.8 292.8L167.2 381.7L184 382.1C184 382.1 187.3 435.5 193.4 465.2H147.2V464.5C147.2 464.5 145.8 456.2 144.9 298.1C149.6 296.4 154.3 293.8 158.7 290.4C163 291.1 168.1 291.9 173.8 292.8Z" fill="#CFD0D2"/>
<path fill-rule="evenodd" clip-rule="evenodd" d="M150.3 284.7C150.3 284.7 148.2 282.1 147.5 280.3C146.8 278.4 147 277.2 149.1 275.1C151.2 273 159.1 265.7 160.6 264.3C162.1 262.9 163.7 263.5 164.5 264.4C165.3 265.2 168.4 268.9 168.4 268.9C168.4 268.9 163.1 278.8 150.3 284.7Z" fill="#BA3147"/>
<path fill-rule="evenodd" clip-rule="evenodd" d="M150.3 284.7C150.3 284.7 149.4 287.5 149.4 291.6C149.4 295.7 150.8 352.3 151.7 380.6C152.6 409 153.1 455.2 153.1 458.7C153.1 462.2 154.7 463.3 157.5 462.9C160.3 462.4 194.5 455 206.1 452.2C206.1 452.2 210.5 449.6 210.5 445C210.5 440.4 205.2 357.2 205.2 357.2C205.2 357.2 194.6 301.5 212.2 285.4C212.2 285.4 210.5 282.5 207 279.8C203.5 277.1 168.3 268.9 168.3 268.9L150.3 284.7Z" fill="#CF4A60"/>
<path fill-rule="evenodd" clip-rule="evenodd" d="M111 284.7C111 284.7 113.1 282.1 113.8 280.3C114.5 278.4 114.3 277.2 112.2 275.1C110.1 273 102.2 265.7 100.7 264.3C99.2 262.9 97.6 263.5 96.8 264.4C96 265.2 92.9 268.9 92.9 268.9C92.9 268.9 98.1 278.8 111 284.7Z" fill="#BA3147"/>
<path fill-rule="evenodd" clip-rule="evenodd" d="M111 284.7C111 284.7 111.9 287.5 111.9 291.6C111.9 295.7 110.5 352.3 109.6 380.6C108.7 409 108.2 455.2 108.2 458.7C108.2 462.2 106.6 463.3 103.8 462.9C101 462.4 66.8 455 55.2 452.2C55.2 452.2 50.8 449.6 50.8 445C50.8 440.4 56.1 357.2 56.1 357.2C56.1 357.2 66.7 301.5 49.1 285.4C49.1 285.4 50.8 282.5 54.3 279.8C57.8 277.1 93 268.9 93 268.9L111 284.7Z" fill="#CF4A60"/>
<path fill-rule="evenodd" clip-rule="evenodd" d="M149.4 255.5V246.4C143.9 249.9 137.6 252.1 130.6 252.1C130.5 252.1 130.4 252.1 130.3 252.1C130.2 252.1 130.1 252.1 130 252.1C123.3 252 116.9 249.5 111.2 245.4V256.4C111.1 257.8 110.5 263.9 107.3 265.5C106.7 265.8 105.3 266.2 103.3 266.8C103.7 267.2 105.8 269.3 106.2 269.7L149.4 255.5Z" fill="#D7766D"/>
<path fill-rule="evenodd" clip-rule="evenodd" d="M88.9 200.7C88.9 200.7 98.3 197 94.5 186C94.5 186 105 179 102.6 160.1C103.8 164.7 118.1 181.2 134.2 176.2C144.2 173.1 139 165.4 139 165.4C139 165.4 147.1 175.5 161.9 174.2C161.9 174.2 158.1 186.3 168.4 189C168.4 189 167.2 200.2 172 201.1C172 201.1 173 191.2 177.3 193.5C177.3 193.5 183.6 163.1 180.8 146.7C178 130.3 134.9 117 122.5 117C110.1 117 89.7 131.6 88.4 142.4C88.4 142.4 74.8 145.5 73.8 152.9C72.9 160.3 81.8 194.6 81.8 194.6C81.8 194.6 88.9 192.2 88.9 200.7Z" fill="#19194F"/>
<path fill-rule="evenodd" clip-rule="evenodd" d="M108.6 194.8C107.4 194.8 106.2 195.2 105.3 195.9C105 195.8 104.6 195.6 104.3 195.1C104.1 194.8 103.8 194.7 103.5 194.8C103.2 195 103.1 195.3 103.2 195.6C103.5 196.2 103.9 196.5 104.4 196.8V196.9C103.9 196.8 103.3 196.5 102.9 195.9C102.7 195.6 102.3 195.6 102 195.8C101.7 196 101.7 196.4 101.9 196.7C102.4 197.4 103.1 197.8 103.7 198C103.1 198 102.5 197.8 101.8 197.4C101.5 197.2 101.1 197.3 100.9 197.6C100.7 197.9 100.8 198.3 101.1 198.5C101.7 198.9 102.4 199.1 103 199.2H103.2C103.1 199.5 103.1 199.8 103.1 200.2C103.1 203.2 105.5 205.6 108.5 205.6C111.5 205.6 113.9 203.2 113.9 200.2C114 197.2 111.6 194.8 108.6 194.8ZM152.1 194.8C149.1 194.8 146.7 197.2 146.7 200.2C146.7 203.2 149.1 205.6 152.1 205.6C155.1 205.6 157.5 203.2 157.5 200.2C157.5 199.9 157.5 199.5 157.4 199.2H157.6C158.2 199.1 158.9 198.9 159.5 198.5C159.8 198.3 159.9 197.9 159.7 197.6C159.5 197.3 159.1 197.2 158.8 197.4C158.2 197.8 157.6 198 157 198C157.6 197.8 158.2 197.4 158.8 196.8C159 196.5 159 196.1 158.7 195.9C158.4 195.7 158 195.7 157.8 196C157.4 196.5 156.8 196.8 156.4 197L156.3 196.9C156.7 196.7 157.1 196.3 157.4 195.8C157.6 195.5 157.4 195.1 157.1 195C156.8 194.8 156.4 195 156.3 195.3C156.1 195.8 155.7 196 155.4 196.1C154.5 195.2 153.3 194.8 152.1 194.8Z" fill="#19194F"/>
<path fill-rule="evenodd" clip-rule="evenodd" d="M161.7 209.3C161.6 209.7 161.2 209.9 160.9 209.8C160.5 209.7 160.3 209.3 160.4 209C160.4 209 170.2 192.5 175.4 193.3L173.9 194.4C168.8 199 161.7 209.3 161.7 209.3Z" fill="#ACCBDB"/>
<path fill-rule="evenodd" clip-rule="evenodd" d="M99.3 209.1C99.4 209.5 99.8 209.7 100.1 209.6C100.5 209.5 100.7 209.1 100.6 208.8C100.6 208.8 90.7 193.8 85.5 194.6L86.3 194.9L86.9 195.3C92.1 200 99.3 209 99.3 209.1Z" fill="#ACCBDB"/>
<path fill-rule="evenodd" clip-rule="evenodd" d="M100.9 234.4C101.3 234.4 101.6 234.2 101.6 233.8C101.6 233.4 101.4 233.1 101 233.1H100.8C93.2 232.2 86.6 220.9 86.1 214.2C85.6 213.9 85.2 213.6 84.7 213.3C85.1 220.8 92.1 233.3 100.7 234.4H100.9Z" fill="#ACCBDB"/>
<path fill-rule="evenodd" clip-rule="evenodd" d="M159.7 234.4C159.3 234.4 159 234.2 159 233.8C159 233.4 159.2 233.1 159.6 233.1H159.8C167.4 232.2 175.4 220.9 175.9 214.2C176.4 213.9 176.8 213.6 177.3 213.3C176.9 220.8 168.5 233.3 160 234.4H159.7Z" fill="#ACCBDB"/>
<path fill-rule="evenodd" clip-rule="evenodd" d="M130.4 206.1L161.2 207.7C161.2 207.7 162.4 208.1 162.4 209.2C162.4 210.3 161.3 232.1 161.3 232.1C161.3 232.1 161.2 234.1 160 235.8C158.8 237.5 149.1 253.5 130.4 253.5C111.7 253.5 102 237.5 100.8 235.8C99.6 234.1 99.5 232.1 99.5 232.1C99.5 232.1 98.4 210.3 98.4 209.2C98.4 208.1 99.6 207.7 99.6 207.7L130.4 206.1Z" fill="white"/>
<path fill-rule="evenodd" clip-rule="evenodd" d="M130.4 208.5L100.8 210.1C101.1 217.4 101.6 224.8 101.9 232.1C101.9 232.9 102.3 233.9 102.7 234.5C103.5 235.6 104.3 236.8 105.1 237.9C106.7 239.9 108.5 241.9 110.5 243.6C116.1 248.4 122.8 251.2 130.3 251.2C137.8 251.2 144.5 248.4 150.1 243.6C152.1 241.9 153.9 240 155.5 237.9C156.4 236.8 157.1 235.7 157.9 234.5C158.4 233.9 158.7 232.9 158.7 232.1C159 224.8 159.5 217.4 159.8 210.1L130.4 208.5Z" fill="#D3E4EC"/>
<path fill-rule="evenodd" clip-rule="evenodd" d="M101.2 219.6C101.4 222.5 101.5 225.3 101.7 228.2L129 217.7L101.2 219.6ZM101.8 231.1V232.1C101.8 232.9 102.2 233.9 102.6 234.5C103.4 235.6 104.2 236.8 105 237.9C106.6 239.9 108.4 241.9 110.4 243.6C116 248.4 122.7 251.2 130.2 251.2C137.7 251.2 144.4 248.4 150 243.6C152 241.9 153.8 240 155.4 237.9C156.3 236.8 157 235.7 157.8 234.5C157.9 234.3 158 234.1 158.1 233.9C158.1 233.9 153.3 239.1 136.6 239.1C120.3 239.1 101.8 231.1 101.8 231.1ZM159 230C159.1 227.9 159.2 225.8 159.3 223.7L138.9 222.3L159 230Z" fill="#ACCBDB"/>
<path fill-rule="evenodd" clip-rule="evenodd" d="M54.2 279.8C54.2 279.8 44.5 283 39.9 292.3C35.3 301.5 2.80002 376.6 1.20002 384.6C-0.299977 392.3 -2.89998 414.4 11.2 465.3H50.6C49.1 458.8 40.4 404.3 39 402.8L56.1 356.3C56.2 356.2 76.3 300.1 54.2 279.8Z" fill="#BA3147"/>
<path fill-rule="evenodd" clip-rule="evenodd" d="M207.1 279.8C207.1 279.8 216.8 283 221.4 292.3C226 301.5 258.5 376.6 260.1 384.6C261.6 392.3 264.2 414.4 250.1 465.3H210.7C212.2 458.8 220.9 404.3 222.3 402.8L205 356.2C205 356.2 185 300.1 207.1 279.8Z" fill="#BA3147"/>
<path fill-rule="evenodd" clip-rule="evenodd" d="M556.1 202.9L548.8 206C548.8 206 549.8 237.8 542.4 259.7C535 281.6 540.9 300.1 552.8 295.7C552.8 295.7 553.5 309 563.4 312.1C573.3 315.2 585.6 317.6 585.6 317.6L618.9 319.7C618.9 319.7 650.5 329.6 652.9 287.6C652.9 287.6 663.7 287.1 663.8 272.5C664 257.9 649.2 234.2 649.2 203.9C649.2 173.7 556.1 202.9 556.1 202.9ZM551.7 177.9L549.4 173.8C549.4 173.8 545 149.1 545.3 140.5C545.6 131.9 553.3 121.1 575.2 111.2C597.1 101.3 614.3 121.7 619.3 126C619.3 126 642.7 125.1 648.6 131.5C654.5 138 650 176.2 650 176.2L551.7 177.9Z" fill="#19194F"/>
<path fill-rule="evenodd" clip-rule="evenodd" d="M540.6 465C544.8 442.8 541.8 422.3 537.5 392C529.3 376.1 523.1 347.3 527.4 326.6C531.7 305.9 530.6 282.6 530.6 282.6C530.6 282.6 573 267.1 576.6 265.3C580.2 263.5 580.5 255.9 580.5 255.9L599.5 251.8L618.5 255.9C618.5 255.9 618.8 263.5 622.4 265.3C626 267.1 666.8 276.1 666.8 276.1C666.8 276.1 667.3 306 671.6 326.6C675.9 347.3 669.7 376.1 661.5 392C657.2 422.3 654.2 442.7 658.4 465H540.6Z" fill="#E6AD83"/>
<path fill-rule="evenodd" clip-rule="evenodd" d="M599.5 208C610 208 618.5 216.6 618.5 227V263.5C618.5 274 609.9 282.5 599.5 282.5C589 282.5 580.5 273.9 580.5 263.5V227C580.5 216.5 589.1 208 599.5 208Z" fill="#E6AD83"/>
<path fill-rule="evenodd" clip-rule="evenodd" d="M641.1 191.2C641.4 191.2 641.7 191.3 642 191.4C647.4 192.6 651.5 197.3 651.5 203.1C651.6 209.8 646.2 215.3 639.5 215.4C632.8 215.5 627.3 210.1 627.2 203.4C627.2 199.5 628.9 196 631.8 193.8C631.5 197.4 632 201.8 636.6 202.3L636.5 195.3C636.5 192.4 639.1 191.1 641.1 191.2Z" fill="#D7766D"/>
<path fill-rule="evenodd" clip-rule="evenodd" d="M558.2 190.6C557.9 190.6 557.6 190.7 557.3 190.7C551.9 191.8 547.7 196.5 547.6 202.3C547.4 209 552.7 214.6 559.4 214.7C566.1 214.9 571.7 209.6 571.8 202.9C571.9 199 570.2 195.5 567.4 193.2C567.7 196.8 567.1 201.2 562.5 201.6L562.7 194.6C562.7 191.9 560.1 190.6 558.2 190.6Z" fill="#D7766D"/>
<path fill-rule="evenodd" clip-rule="evenodd" d="M599.5 251.9C576.9 251.9 558 224 558 201.9V172.6C558 149.8 576.7 131.1 599.5 131.1C622.3 131.1 641 149.8 641 172.6V201.3C641 225.5 624.6 251.9 599.5 251.9Z" fill="#E6AD83"/>
<path fill-rule="evenodd" clip-rule="evenodd" d="M624.1 157.7C624.1 157.7 617.1 154.6 609 159.2C600.9 163.9 588.8 182.9 566.3 180.5C543.8 178 595.7 156.6 595.7 156.6C595.7 156.6 621.9 143.5 623.3 144.3C624.7 145.1 624.1 157.7 624.1 157.7Z" fill="#D7766D"/>
<path fill-rule="evenodd" clip-rule="evenodd" d="M629.5 209.8C625.7 209.9 622.7 213 622.8 216.8C622.9 220.6 626 223.6 629.8 223.5C633.6 223.4 636.6 220.3 636.5 216.5C636.5 212.7 633.3 209.7 629.5 209.8Z" fill="#D7766D"/>
<path fill-rule="evenodd" clip-rule="evenodd" d="M569.3 210.9C565.5 211 562.5 214.1 562.6 217.9C562.7 221.7 565.8 224.7 569.6 224.6C573.4 224.5 576.4 221.4 576.3 217.6C576.2 213.8 573.1 210.8 569.3 210.9Z" fill="#D7766D"/>
<path fill-rule="evenodd" clip-rule="evenodd" d="M587.2 181C588.1 181.4 588.5 182.4 588.1 183.3C587.7 184.2 586.7 184.6 585.8 184.2C585.8 184.2 580.5 181.7 575.5 184.9C574.7 185.4 573.6 185.2 573.1 184.4C572.6 183.6 572.8 182.5 573.6 182C580.3 177.7 587.2 181 587.2 181Z" fill="#19194F"/>
<path fill-rule="evenodd" clip-rule="evenodd" d="M628.2 181.8C629 182.3 629.3 183.3 628.9 184.2C628.4 185 627.4 185.3 626.5 184.9C626.5 184.9 621.5 182 616.2 184.7C615.3 185.1 614.3 184.8 613.8 184C613.4 183.1 613.7 182.1 614.5 181.6C621.6 177.9 628.2 181.8 628.2 181.8Z" fill="#19194F"/>
<path fill-rule="evenodd" clip-rule="evenodd" d="M589.3 222.1C589.2 228.9 594.7 234.4 601.5 234.5C608.3 234.6 613.8 229.1 613.9 222.3C613.9 221.1 613 220.2 611.8 220.2L591.5 220C590.3 220 589.3 220.9 589.3 222.1Z" fill="white"/>
<path fill-rule="evenodd" clip-rule="evenodd" d="M593.7 231.7C595.8 233.4 598.5 234.5 601.4 234.5C603.8 234.5 606 233.9 607.9 232.7C607 230.2 604.2 228.3 600.9 228.1C597.8 227.9 595 229.4 593.7 231.7Z" fill="white"/>
<path fill-rule="evenodd" clip-rule="evenodd" d="M611 220.2L592 220C591.7 222.1 592.6 224.2 594 224.7C595.7 225.3 609.5 225 610.5 224C611 223.5 611.1 221.8 611 220.2Z" fill="white"/>
<path fill-rule="evenodd" clip-rule="evenodd" d="M602.4 202.8C603.3 205.3 604.8 209.9 604.7 210.6C604.5 211.6 599.2 211.9 597.8 210.3C596.9 209.3 598 205.5 599 203C600.4 199.6 601.2 199.4 602.4 202.8Z" fill="#F1D3C8"/>
<path fill-rule="evenodd" clip-rule="evenodd" d="M644.6 271L636.4 381.4L653.2 381.8C653.2 381.8 656.5 435.2 662.6 464.9H537C543.1 435.1 546.4 381.8 546.4 381.8L563.2 381.4L555 271C579 310.3 620.6 310.3 644.6 271Z" fill="white"/>
<path fill-rule="evenodd" clip-rule="evenodd" d="M619.5 284.5C619.5 284.5 617.4 281.9 616.7 280.1C616 278.2 616.2 277 618.3 274.9C620.4 272.8 628.3 265.5 629.8 264.1C631.3 262.7 632.9 263.3 633.7 264.2C634.5 265 637.6 268.7 637.6 268.7C637.6 268.7 632.3 278.5 619.5 284.5Z" fill="white"/>
<path fill-rule="evenodd" clip-rule="evenodd" d="M619.5 284.5C619.3 285.3 602.1 366.2 599.2 384.9C598.9 386.6 593.2 418 593.2 418.6C593.2 419.4 602.6 443.7 610.7 465.2H682.7C678.2 440.3 670.3 398.9 670.3 397.6C670.2 394.6 674.4 356.9 674.4 356.9C674.4 356.9 663.8 301.2 681.4 285.1C681.4 285.1 679.7 282.2 676.2 279.5C672.7 276.8 637.5 268.6 637.5 268.6L619.5 284.5Z" fill="#2F3A72"/>
<path fill-rule="evenodd" clip-rule="evenodd" d="M602.1 368.5C600.7 375.6 599.7 381.4 599.1 385C598.8 386.7 593.1 418.1 593.1 418.7C593.1 419.5 602.5 443.8 610.6 465.3H632.6L605.8 390.5L620.4 362.1L611 361.3C611.2 361.1 607.3 364.2 602.1 368.5Z" fill="#232458"/>
<path fill-rule="evenodd" clip-rule="evenodd" d="M612.4 317.9C606.4 346.7 598.7 384.4 598.7 388.4L636.3 342.8L627.7 309.8C627.7 309.8 620.8 313.4 612.4 317.9Z" fill="#385DA2"/>
<path fill-rule="evenodd" clip-rule="evenodd" d="M580.6 265.1L609 253.9L618.7 250.1V246.2C613.2 249.7 606.9 251.9 599.9 251.9C599.8 251.9 599.7 251.9 599.6 251.9C599.5 251.9 599.4 251.9 599.3 251.9C592.6 251.8 586.2 249.3 580.5 245.2V256.2C580.4 257.6 579.8 263.7 576.6 265.3C576 265.6 574.6 266 572.6 266.6C573 267 573.4 267.3 573.8 267.7L580.6 265.1Z" fill="#D7766D"/>
<path fill-rule="evenodd" clip-rule="evenodd" d="M577.8 192.1C576.6 192.1 575.4 192.5 574.5 193.2C574.2 193.1 573.8 192.9 573.5 192.4C573.3 192.1 573 192 572.7 192.1C572.4 192.3 572.3 192.6 572.4 192.9C572.7 193.5 573.1 193.8 573.6 194.1V194.2C573.1 194.1 572.5 193.8 572.1 193.2C571.9 192.9 571.5 192.9 571.2 193.1C570.9 193.3 570.9 193.7 571.1 194C571.6 194.7 572.3 195.1 572.9 195.3C572.3 195.3 571.7 195.1 571 194.7C570.7 194.5 570.3 194.6 570.1 194.9C569.9 195.2 570 195.6 570.3 195.8C570.9 196.2 571.6 196.4 572.2 196.5H572.4C572.3 196.8 572.3 197.1 572.3 197.5C572.3 200.5 574.7 202.9 577.7 202.9C580.7 202.9 583.1 200.5 583.1 197.5C583.1 194.5 580.7 192.1 577.8 192.1ZM621.3 192.1C618.3 192.1 615.9 194.5 615.9 197.5C615.9 200.5 618.3 202.9 621.3 202.9C624.3 202.9 626.7 200.5 626.7 197.5C626.7 197.2 626.7 196.8 626.6 196.5H626.8C627.4 196.4 628.1 196.2 628.7 195.8C629 195.6 629.1 195.2 628.9 194.9C628.7 194.6 628.3 194.5 628 194.7C627.4 195.1 626.8 195.3 626.2 195.3C626.8 195.1 627.4 194.7 628 194.1C628.2 193.8 628.2 193.4 627.9 193.2C627.6 193 627.2 193 627 193.3C626.6 193.8 626 194.1 625.6 194.3L625.5 194.2C625.9 194 626.3 193.6 626.6 193.1C626.8 192.8 626.6 192.4 626.3 192.3C626 192.1 625.6 192.3 625.5 192.6C625.3 193.1 624.9 193.3 624.6 193.4C623.6 192.5 622.5 192.1 621.3 192.1Z" fill="#19194F"/>
<path fill-rule="evenodd" clip-rule="evenodd" d="M630.8 209.1C630.7 209.5 630.3 209.7 630 209.6C629.6 209.5 629.4 209.1 629.5 208.8C629.5 208.8 639.3 192.3 644.5 193.1L643 194.2C637.9 198.8 630.8 209 630.8 209.1Z" fill="#ACCBDB"/>
<path fill-rule="evenodd" clip-rule="evenodd" d="M568.5 208.8C568.6 209.2 569 209.4 569.3 209.3C569.7 209.2 569.9 208.8 569.8 208.5C569.8 208.5 559.9 193.5 554.7 194.3L555.5 194.6L556.1 195C561.3 199.7 568.5 208.8 568.5 208.8Z" fill="#ACCBDB"/>
<path fill-rule="evenodd" clip-rule="evenodd" d="M570.1 234.2C570.5 234.2 570.8 234 570.8 233.6C570.8 233.2 570.6 232.9 570.2 232.9H570C562.4 232 555.8 220.7 555.3 214C554.8 213.7 554.4 213.4 553.9 213.1C554.3 220.6 561.3 233.2 569.9 234.2H570.1Z" fill="#ACCBDB"/>
<path fill-rule="evenodd" clip-rule="evenodd" d="M628.9 234.2C628.5 234.2 628.2 234 628.2 233.6C628.2 233.2 628.4 232.9 628.8 232.9H629C636.6 232 644.6 220.7 645.1 214C645.6 213.7 646 213.4 646.5 213.1C646.1 220.6 637.7 233.2 629.2 234.2H628.9Z" fill="#ACCBDB"/>
<path fill-rule="evenodd" clip-rule="evenodd" d="M599.5 205.9L630.3 207.5C630.3 207.5 631.5 207.9 631.5 209C631.5 210.1 630.4 231.9 630.4 231.9C630.4 231.9 630.3 233.9 629.1 235.6C627.9 237.3 618.2 253.3 599.5 253.3C580.8 253.3 571.1 237.3 569.9 235.6C568.7 233.9 568.6 231.9 568.6 231.9C568.6 231.9 567.5 210.1 567.5 209C567.5 207.9 568.7 207.5 568.7 207.5L599.5 205.9Z" fill="white"/>
<path fill-rule="evenodd" clip-rule="evenodd" d="M599.5 208.2L569.9 209.8C570.2 217.1 570.7 224.5 571 231.8C571 232.6 571.4 233.6 571.8 234.2C572.6 235.3 573.4 236.5 574.2 237.6C575.8 239.7 577.6 241.6 579.6 243.3C585.2 248.1 591.9 250.9 599.4 250.9C606.9 250.9 613.6 248.1 619.2 243.3C621.2 241.6 623 239.7 624.6 237.6C625.5 236.5 626.2 235.4 627 234.2C627.5 233.6 627.8 232.6 627.8 231.8C628.1 224.5 628.6 217.1 628.9 209.8L599.5 208.2Z" fill="#D3E4EC"/>
<path fill-rule="evenodd" clip-rule="evenodd" d="M570.4 219.3C570.6 222.2 570.7 225 570.9 227.9L598.2 217.4L570.4 219.3ZM571 230.9V231.9C571 232.7 571.4 233.7 571.8 234.3C572.6 235.4 573.4 236.6 574.2 237.7C575.8 239.8 577.6 241.7 579.6 243.4C585.2 248.2 591.9 251 599.4 251C606.9 251 613.6 248.2 619.2 243.4C621.2 241.7 623 239.8 624.6 237.7C625.5 236.6 626.2 235.5 627 234.3C627.1 234.1 627.2 233.9 627.3 233.7C627.3 233.7 622.5 238.9 605.8 238.9C589.4 238.8 571 230.9 571 230.9ZM628.1 229.8C628.2 227.7 628.3 225.6 628.4 223.5L608.1 222.1L628.1 229.8Z" fill="#ACCBDB"/>
<path fill-rule="evenodd" clip-rule="evenodd" d="M676.2 279.6C676.2 279.6 685.9 282.8 690.5 292.1C695.1 301.3 727.6 376.4 729.2 384.4C730.7 392.1 733.3 414.2 719.2 465.1H679.8C681.3 458.6 690 404.1 691.4 402.6L672.7 365C672.6 364.9 654.1 299.8 676.2 279.6Z" fill="#304786"/>
<path fill-rule="evenodd" clip-rule="evenodd" d="M558 201.9C558 201.9 562.8 198.4 562.8 190C562.8 190 570.5 182.8 569.9 175.3C569.3 167.8 560.8 157.7 560.8 157.7C560.8 157.7 553.1 162.5 550.4 167.7C547.6 172.9 551.2 194.5 551.2 194.5C551.2 194.5 556.4 190.8 558 201.9Z" fill="#19194F"/>
<path fill-rule="evenodd" clip-rule="evenodd" d="M641 201.9C641 201.9 636.2 198.4 636.2 190C636.2 190 628.5 182.8 629.1 175.3C629.7 167.8 638.2 157.7 638.2 157.7C638.2 157.7 645.9 162.5 648.6 167.7C651.4 172.9 647.8 194.5 647.8 194.5C647.8 194.5 642.7 190.8 641 201.9Z" fill="#19194F"/>
<path fill-rule="evenodd" clip-rule="evenodd" d="M621.5 155.1L621.4 155C621.2 155.1 620.9 155.1 620.7 155C614.6 151.4 609 156.6 602.3 162.6C595.6 168.7 588 175.7 577.7 176C576.8 176.3 575.8 176.4 574.9 176.6C557.2 178.7 549.2 154.6 565.5 138.7C583 121.6 621.4 119.1 625.8 146.5C625.7 146.6 626.5 152.5 621.5 155.1ZM610.4 154.2C600.9 156.9 593.1 167.9 583.6 173.5C590.5 171.3 596.2 166.2 601.3 161.5C604.5 158.6 607.5 155.9 610.4 154.2Z" fill="#19194F"/>
<path fill-rule="evenodd" clip-rule="evenodd" d="M620.7 155C620.7 155 619.8 175.2 631.3 178.2C642.9 181.1 646.9 166.2 641.2 151.7C635.5 137.2 621.2 130.7 618.2 131.8C615.3 132.9 620.7 155 620.7 155Z" fill="#19194F"/>
<path fill-rule="evenodd" clip-rule="evenodd" d="M619.5 284.5C619.4 285 613.1 314.2 607.6 341.6L649.3 297.6L642.5 269.9C639.5 269.2 637.6 268.7 637.6 268.7L619.5 284.5Z" fill="#304786"/>
<path fill-rule="evenodd" clip-rule="evenodd" d="M579.6 284.5C579.6 284.5 581.7 281.9 582.4 280.1C583.1 278.2 582.9 277 580.8 274.9C578.7 272.8 570.8 265.5 569.3 264.1C567.8 262.7 566.2 263.3 565.4 264.2C564.6 265 561.5 268.7 561.5 268.7C561.5 268.7 566.8 278.5 579.6 284.5Z" fill="white"/>
<path fill-rule="evenodd" clip-rule="evenodd" d="M579.6 284.5C579.9 285.4 600.3 381.9 600.3 388.4C600.3 389.3 600.2 433.6 600.2 465.2H516.3C520.8 440.3 528.7 398.9 528.7 397.6C528.8 394.6 524.6 356.9 524.6 356.9C524.6 356.9 535.2 301.2 517.6 285.1C517.6 285.1 519.3 282.2 522.8 279.5C526.3 276.8 561.5 268.6 561.5 268.6L579.6 284.5Z" fill="#2F3A72"/>
<path fill-rule="evenodd" clip-rule="evenodd" d="M586.7 317.9C592.7 346.7 600.4 384.4 600.4 388.4L562.8 342.8L571.4 309.8C571.4 309.8 578.3 313.4 586.7 317.9Z" fill="#385DA2"/>
<path fill-rule="evenodd" clip-rule="evenodd" d="M522.8 279.6C522.8 279.6 513.1 282.8 508.5 292.1C503.9 301.3 471.4 376.4 469.8 384.4C468.3 392.1 465.7 414.2 479.8 465.1H519.2C517.7 458.6 509 404.1 507.6 402.6L526.5 363.4C526.6 363.3 545 299.8 522.8 279.6Z" fill="#304786"/>
<path fill-rule="evenodd" clip-rule="evenodd" d="M579.6 284.5C579.7 285 586 314.2 591.5 341.6L549.8 297.6L556.6 269.9C559.6 269.2 561.5 268.7 561.5 268.7L579.6 284.5Z" fill="#304786"/>
<path fill-rule="evenodd" clip-rule="evenodd" d="M594.4 397.8C595.6 397.8 596.6 396.8 596.6 395.6C596.6 394.4 595.6 393.4 594.4 393.4C593.2 393.4 592.2 394.4 592.2 395.6C592.2 396.8 593.2 397.8 594.4 397.8Z" fill="white"/>
<path fill-rule="evenodd" clip-rule="evenodd" d="M594.4 418.6C595.6 418.6 596.6 417.6 596.6 416.4C596.6 415.2 595.6 414.2 594.4 414.2C593.2 414.2 592.2 415.2 592.2 416.4C592.2 417.6 593.2 418.6 594.4 418.6Z" fill="white"/>
<path fill-rule="evenodd" clip-rule="evenodd" d="M364.8 160.7C377.9 160.7 388.6 179 388.6 201.5V234.6C388.6 257 377.9 275.4 364.8 275.4C351.7 275.4 341 257.1 341 234.6V201.5C341 179 351.7 160.7 364.8 160.7Z" fill="#D7766D"/>
<path fill-rule="evenodd" clip-rule="evenodd" d="M440.2 241.6C440.2 241.6 454.2 245.4 462.1 262.6C470.1 279.9 489.5 334.4 494.4 349.7C499.3 365 481.6 430.4 459.1 465.3H429.6C429.6 465.3 458.1 378.1 459.4 369.7C460.6 361.3 432.4 312.5 432.4 312.5C424.6 288 425.1 263.6 440.2 241.6Z" fill="#5E90CC"/>
<path fill-rule="evenodd" clip-rule="evenodd" d="M494.3 367.9C490.6 394.2 476.3 438.6 459.1 465.2H440.8C437.9 461.2 435.8 458.2 435.8 458.2L438.6 437.5C471.5 471.4 490.6 388.7 494.3 367.9Z" fill="#4377B3"/>
<path fill-rule="evenodd" clip-rule="evenodd" d="M371.1 244.3L367.2 244.8L364.8 246.4L362.4 244.8L358.5 244.3L335.8 226.5L286.4 246.5L283.9 293.9C287.6 341 298.6 416.5 298.6 420.2C298.6 423.9 290.8 449.4 285.9 465H364.7H443C438.1 449.4 430.3 423.9 430.3 420.2C430.3 416.5 441.9 341 445.6 293.9L443.1 246.5L393.7 226.5L371.1 244.3Z" fill="#19194F"/>
<path fill-rule="evenodd" clip-rule="evenodd" d="M370.2 256.7L371.2 262.4L382 402.8L364.8 439.3L347.7 402.8L358.4 262.4L359.5 256.7L364.8 260.2L370.2 256.7Z" fill="#CF4A60"/>
<path fill-rule="evenodd" clip-rule="evenodd" d="M370.2 256.7L371.3 262.4L382 402.8L364.8 439.3C364.8 439.3 374.9 407.9 375.3 403C375.7 398.1 369.2 264.2 367.3 262.9C365.4 261.7 361.6 261.8 361.6 261.8L364 259.6L364.7 260.1L370.2 256.7Z" fill="#BA3147"/>
<path fill-rule="evenodd" clip-rule="evenodd" d="M360.1 245.1L362.4 244.8C362.4 244.8 362.9 245.2 362.9 245.9C363 246.6 363 248.8 363 248.8L361.2 249.3C361.2 249.3 357.7 249.4 357.7 249.3C357.9 249.1 360.1 245.1 360.1 245.1Z" fill="#19194F"/>
<path fill-rule="evenodd" clip-rule="evenodd" d="M369.5 245.1L367.2 244.8C367.2 244.8 366.7 245.2 366.7 245.9C366.6 246.6 366.6 248.8 366.6 248.8L368.4 249.3C368.4 249.3 371.9 249.4 371.9 249.3C371.8 249.1 369.5 245.1 369.5 245.1Z" fill="#19194F"/>
<path fill-rule="evenodd" clip-rule="evenodd" d="M358.4 262.4L353.4 251.4C357.7 247.3 371.9 247.3 376.2 251.4L371.2 262.4C367.7 261.4 362 261.4 358.4 262.4Z" fill="#CF4A60"/>
<path fill-rule="evenodd" clip-rule="evenodd" d="M355.4 255.7L353.4 251.3C355 249.8 357.8 248.9 361 248.5L355.4 255.7ZM364.9 248.3C369.5 248.3 374 249.3 376.2 251.4L371.2 262.4C369.8 262 368.1 261.8 366.4 261.7C367.3 260.9 368.6 259.9 368.6 259.6C368.7 259.2 368.6 249.7 368.2 249.5L364.9 248.3Z" fill="#BA3147"/>
<path fill-rule="evenodd" clip-rule="evenodd" d="M388.7 216.9C388.7 216.9 390.8 216.6 391.5 216.9C392.2 217.2 397.5 231.6 396.5 234.5C395.5 237.4 382.5 261.2 382.5 261.2C382.5 261.2 381.6 262.5 380.1 261.2C378.6 260 367.3 244.8 367.3 244.8L388.7 218.9V216.9Z" fill="#2C2A64"/>
<path fill-rule="evenodd" clip-rule="evenodd" d="M395.7 225.5L439.4 241.3C440.3 241.6 449.4 245.3 450.5 258.4C451 264.6 446.7 293.7 443.1 327.9C438.6 369.9 434.7 417.8 434.7 420.2C434.7 424.6 442.6 449.7 447.5 465.2H383.8L395 227.2C394.9 227.2 394.9 225.9 395.7 225.5Z" fill="#5E90CC"/>
<path fill-rule="evenodd" clip-rule="evenodd" d="M341 216.8C341 216.8 338.9 216.5 338.2 216.8C337.5 217.1 335.1 227.7 333.6 229.8C333.6 229.8 332.3 231.5 333.2 234.4C334.2 237.3 347.2 261.1 347.2 261.1C347.2 261.1 348.1 262.4 349.6 261.1C351.1 259.9 362.4 244.7 362.4 244.7L341 218.7V216.8Z" fill="#2C2A64"/>
<path fill-rule="evenodd" clip-rule="evenodd" d="M333.9 226.8L290.2 241.3C289.3 241.6 280.2 245.3 279.1 258.4C278.6 264.7 283.6 295.2 287.3 330.3C291.7 371.5 295 417.8 295 420.2C295 424.6 287.1 449.7 282.2 465.2H346L333.9 233.8C333.9 233.8 334.8 227.3 333.9 226.8Z" fill="#5E90CC"/>
<path fill-rule="evenodd" clip-rule="evenodd" d="M449.2 246.3C445.2 257.6 434.1 294.9 444.7 333.3C444.8 333.6 444.6 333.8 444.3 334C443.8 333 443.2 332 442.7 331C433.1 292.7 444.3 256.2 448.1 245.6C448.4 245.8 448.8 246.1 449.2 246.3Z" fill="#4377B3"/>
<path fill-rule="evenodd" clip-rule="evenodd" d="M290.2 241.6C290.2 241.6 276.2 245.4 268.3 262.6C260.3 279.9 240.9 334.4 236 349.7C231.1 365 248.8 430.4 271.3 465.3H300.8C300.8 465.3 272.3 378.1 271 369.7C269.8 361.3 298 312.5 298 312.5C305.8 288 305.4 263.6 290.2 241.6Z" fill="#5E90CC"/>
<path fill-rule="evenodd" clip-rule="evenodd" d="M236.1 367.9C239.8 394.2 254.1 438.6 271.3 465.2H284.9C285.1 464.9 290.4 437.4 290.7 434.6C285.4 438.4 280.9 442.6 269.2 438.7C254.5 433.9 240 389.3 236.1 367.9Z" fill="#4377B3"/>
<path fill-rule="evenodd" clip-rule="evenodd" d="M271.6 372.2C271.3 371.1 271.1 370.2 271 369.7C270.3 364.8 278.8 346.6 286.7 331.9C287.9 329.6 288.9 354.3 290 352.2C289.6 347.4 290.5 316.8 290.5 316.5C290.2 315.1 270.8 354.6 269.7 357.7C268.6 360.8 271.6 372.2 271.6 372.2Z" fill="#4377B3"/>
<path fill-rule="evenodd" clip-rule="evenodd" d="M281.3 246.3C285.3 257.6 296.4 294.9 285.8 333.3C285.7 333.6 285.9 333.8 286.2 334C286.7 333 287.3 332 287.8 331C297.4 292.7 286.2 256.2 282.4 245.6C282 245.8 281.6 246.1 281.3 246.3Z" fill="#4377B3"/>
<path fill-rule="evenodd" clip-rule="evenodd" d="M396.1 226L407.7 230.4C410.9 237.4 421.8 262 421.3 262.8C420.7 263.8 404.1 266.6 404.1 266.6C404.1 266.6 416.8 271.8 417.2 272.1C417.6 272.4 418.3 273 418.1 274.8C417.9 276.4 392 391.3 385.2 421.5L395.1 227.7C395.2 227.7 395.2 226.4 396.1 226Z" fill="#4377B3"/>
<path fill-rule="evenodd" clip-rule="evenodd" d="M397.2 263L413.9 269C413.9 269 415.6 269.9 415.5 271C415.4 272.1 385.5 414.9 385.5 414.9L390.9 264.5L397.2 263Z" fill="#F0F5FB"/>
<path fill-rule="evenodd" clip-rule="evenodd" d="M387.4 360.1L390.8 264.5L391.8 264.3C390 303.2 387.4 360.2 387.4 360.2V360.1Z" fill="#ADB3D9"/>
<path fill-rule="evenodd" clip-rule="evenodd" d="M395.2 225.3L403.8 228.3C403.8 228.3 404.6 228.5 404.8 229.4C405 230.3 417 258.3 417.3 259.2C417.6 260.2 416.8 261.2 415.2 261.7C413.6 262.2 390.7 268.4 390.7 268.4L394.1 226.5C394.1 226.6 394.2 225.3 395.2 225.3Z" fill="white"/>
<path fill-rule="evenodd" clip-rule="evenodd" d="M332.7 226.6L321.9 230.3C318.7 237.3 307.8 261.9 308.3 262.7C308.9 263.7 325.5 266.5 325.5 266.5C325.5 266.5 312.8 271.7 312.4 272C312 272.3 311.3 272.9 311.5 274.7C311.7 276.3 337.6 391.2 344.4 421.4L333.1 231.4C333.1 231.5 333.6 227.1 332.7 226.6Z" fill="#4377B3"/>
<path fill-rule="evenodd" clip-rule="evenodd" d="M332.4 263L315.7 269C315.7 269 314 269.9 314.1 271C314.2 272.1 344.1 414.9 344.1 414.9L338.7 264.5L332.4 263Z" fill="#F0F5FB"/>
<path fill-rule="evenodd" clip-rule="evenodd" d="M342.2 360.1L338.8 264.5L337.8 264.3C339.6 303.2 342.2 360.2 342.2 360.2V360.1Z" fill="#ADB3D9"/>
<path fill-rule="evenodd" clip-rule="evenodd" d="M334.7 225.8L325.7 228.3C325.7 228.3 324.9 228.5 324.7 229.4C324.5 230.3 312.5 258.3 312.2 259.2C311.9 260.2 312.7 261.2 314.3 261.7C315.9 262.2 338.8 268.4 338.8 268.4C338.8 268.4 335.4 235.5 334.7 225.8Z" fill="white"/>
<path fill-rule="evenodd" clip-rule="evenodd" d="M408.1 153.9C408.4 153.9 408.7 154 409.1 154.1C414.9 155.4 419.2 160.5 419.3 166.6C419.4 173.8 413.6 179.7 406.5 179.7C399.3 179.8 393.4 174 393.4 166.9C393.3 162.7 395.3 159 398.3 156.6C397.9 160.4 398.5 165.2 403.4 165.7L403.3 158.2C403.2 155.2 406 153.8 408.1 153.9Z" fill="#D77F68"/>
<path fill-rule="evenodd" clip-rule="evenodd" d="M322.5 153.9C322.2 153.9 321.9 154 321.5 154.1C315.7 155.3 311.3 160.3 311.1 166.5C310.9 173.7 316.6 179.6 323.7 179.8C330.9 180 336.8 174.3 337 167.2C337.1 163 335.2 159.3 332.3 156.8C332.6 160.6 332 165.4 327.1 165.8L327.3 158.3C327.4 155.2 324.6 153.8 322.5 153.9Z" fill="#D77F68"/>
<path fill-rule="evenodd" clip-rule="evenodd" d="M365.2 218.9C341 218.9 320.7 189 320.7 165.4V134C320.7 109.5 340.7 89.5 365.2 89.5C389.7 89.5 409.7 109.5 409.7 134V164.7C409.7 190.6 392 218.9 365.2 218.9Z" fill="#E6AD83"/>
<path fill-rule="evenodd" clip-rule="evenodd" d="M321.3 124.7C324.5 103.4 343.1 86.9 365.3 86.9C386.8 86.9 404.8 102.3 408.9 122.7C402.7 122.7 395.9 130.5 395.9 130.5C354.3 150.3 328.7 130.7 328.7 130.7C325.7 128.7 323.2 126.7 321.3 124.7Z" fill="#D7766D"/>
<path fill-rule="evenodd" clip-rule="evenodd" d="M395.7 164.2C391.6 164.3 388.3 167.7 388.3 171.8C388.4 175.9 391.8 179.2 395.9 179.2C400 179.1 403.3 175.7 403.3 171.6C403.3 167.5 399.9 164.2 395.7 164.2Z" fill="#D7766D"/>
<path fill-rule="evenodd" clip-rule="evenodd" d="M334.4 165.4C330.3 165.5 327 168.9 327 173C327.1 177.1 330.5 180.4 334.6 180.4C338.7 180.3 342 176.9 342 172.8C342 168.6 338.6 165.4 334.4 165.4Z" fill="#D7766D"/>
<path fill-rule="evenodd" clip-rule="evenodd" d="M350.4 143.6C351.3 144 351.8 145.1 351.3 146.1C350.9 147 349.8 147.5 348.8 147C348.8 147 343.2 144.3 337.8 147.7C336.9 148.2 335.8 148 335.2 147.1C334.7 146.2 334.9 145.1 335.8 144.5C343 140.1 350.4 143.6 350.4 143.6Z" fill="#19194F"/>
<path fill-rule="evenodd" clip-rule="evenodd" d="M394.4 144.4C395.3 144.9 395.6 146 395.1 146.9C394.6 147.8 393.5 148.1 392.6 147.6C392.6 147.6 387.2 144.5 381.6 147.4C380.7 147.9 379.6 147.5 379.1 146.6C378.6 145.7 379 144.6 379.9 144.1C387.3 140.3 394.4 144.4 394.4 144.4Z" fill="#19194F"/>
<path fill-rule="evenodd" clip-rule="evenodd" d="M366.4 166.4C367.2 168.7 368.7 172.7 368.6 173.4C368.4 174.4 363.5 175.2 362.2 174C361.3 173.2 362.4 169.5 363.3 167C364.6 163.6 365.3 163.4 366.4 166.4Z" fill="#EBBF9E"/>
<path fill-rule="evenodd" clip-rule="evenodd" d="M374.6 184.2C374.6 189.4 370.4 193.5 365.3 193.5C360.1 193.5 356 189.3 356 184.2C356 183.3 356.8 182.5 357.7 182.5H372.9C373.8 182.5 374.6 183.2 374.6 184.2Z" fill="#12151D"/>
<path fill-rule="evenodd" clip-rule="evenodd" d="M358.5 182.5H371.9V184.1C371.9 184.9 371.2 185.6 370.4 185.6H360C359.2 185.6 358.5 184.9 358.5 184.1V182.5Z" fill="white"/>
<path fill-rule="evenodd" clip-rule="evenodd" d="M372 190.6C370.3 192.4 367.9 193.5 365.2 193.5C362.5 193.5 360.1 192.4 358.4 190.6C360.1 188.8 362.5 187.7 365.2 187.7C367.9 187.7 370.3 188.8 372 190.6Z" fill="#D26070"/>
<path fill-rule="evenodd" clip-rule="evenodd" d="M343.5 163.2C346.4 163.2 348.9 160.8 348.9 157.8C348.9 154.8 346.5 152.4 343.5 152.4C340.5 152.4 338.1 154.8 338.1 157.8C338.1 160.8 340.5 163.2 343.5 163.2Z" fill="#19194F"/>
<path fill-rule="evenodd" clip-rule="evenodd" d="M387 163.2C389.9 163.2 392.4 160.8 392.4 157.8C392.4 154.8 390 152.4 387 152.4C384 152.4 381.6 154.8 381.6 157.8C381.6 160.8 384 163.2 387 163.2Z" fill="#19194F"/>
<path fill-rule="evenodd" clip-rule="evenodd" d="M320.7 164.2L325 146.8C325 146.8 338.8 136.6 333.9 122.5C329 108.4 328 109.8 328 109.8C328 109.8 309.6 118.1 317.8 155.6L320.7 164.2Z" fill="#19194F"/>
<path fill-rule="evenodd" clip-rule="evenodd" d="M409.7 164.2L405.4 146.8C405.4 146.8 391.6 136.6 396.5 122.5C401.4 108.4 402.4 109.8 402.4 109.8C402.4 109.8 420.8 118.1 412.6 155.6L409.7 164.2Z" fill="#19194F"/>
<path fill-rule="evenodd" clip-rule="evenodd" d="M399.8 173C399.7 173.4 399.3 173.6 399 173.5C398.6 173.4 398.4 173 398.5 172.7C398.5 172.7 401.9 161.1 407.8 156.3L408.2 157.7C402.9 162.3 399.8 173 399.8 173Z" fill="#ACCBDB"/>
<path fill-rule="evenodd" clip-rule="evenodd" d="M398.1 199.7C397.7 199.7 397.4 199.5 397.4 199.1C397.4 198.7 397.6 198.4 398 198.4H398.2C402.2 197.9 405.5 194.2 407.7 189.7C409.4 186.2 410.5 182.3 410.7 179C411.2 178.8 411.6 178.6 412.1 178.4C411.9 182 410.8 186.4 408.9 190.3C406.5 195.2 402.9 199.2 398.3 199.8L398.1 199.7Z" fill="#ACCBDB"/>
<path fill-rule="evenodd" clip-rule="evenodd" d="M330.7 173C330.8 173.4 331.2 173.6 331.5 173.5C331.9 173.4 332.1 173 332 172.7C332 172.7 328.6 161.1 322.7 156.3L322.3 157.7C327.5 162.3 330.7 173 330.7 173Z" fill="#ACCBDB"/>
<path fill-rule="evenodd" clip-rule="evenodd" d="M332.3 199.7C332.7 199.7 333 199.5 333 199.1C333 198.7 332.8 198.4 332.4 198.4H332.2C328.2 197.9 324.9 194.2 322.7 189.7C321 186.2 319.9 182.3 319.7 179C319.2 178.8 318.8 178.6 318.3 178.4C318.5 182 319.6 186.4 321.5 190.3C323.9 195.2 327.5 199.2 332.1 199.8L332.3 199.7Z" fill="#ACCBDB"/>
<path fill-rule="evenodd" clip-rule="evenodd" d="M365.2 167.8L399.8 169.6C399.8 169.6 401.2 170 401.1 171.3C401.1 172.6 399.8 197.1 399.8 197.1C399.8 197.1 399.7 199.3 398.4 201.2C397 203.1 386.1 221.1 365.1 221.1C344.1 221.1 333.2 203.1 331.8 201.2C330.4 199.3 330.4 197.1 330.4 197.1C330.4 197.1 329.2 172.6 329.1 171.3C329.1 170 330.4 169.6 330.4 169.6L365.2 167.8Z" fill="white"/>
<path fill-rule="evenodd" clip-rule="evenodd" d="M365.2 170.5L331.9 172.3C332.2 180.5 332.8 188.8 333.1 197.1C333.1 198 333.5 199.1 334 199.8C334.9 201.1 335.8 202.4 336.8 203.6C338.6 205.9 340.7 208.1 342.9 210C349.3 215.4 356.7 218.6 365.2 218.6C373.6 218.6 381.1 215.5 387.5 210C389.7 208.1 391.8 205.9 393.6 203.6C394.6 202.3 395.4 201.1 396.4 199.8C396.9 199.1 397.3 198 397.3 197.1C397.7 188.9 398.2 180.6 398.5 172.3L365.2 170.5Z" fill="#D3E4EC"/>
<path fill-rule="evenodd" clip-rule="evenodd" d="M332.4 183C332.6 186.2 332.8 189.4 332.9 192.7L363.6 180.9L332.4 183ZM333.1 196V197.1C333.1 198 333.5 199.1 334 199.8C334.9 201.1 335.8 202.4 336.8 203.6C338.6 205.9 340.7 208.1 342.9 210C349.3 215.4 356.7 218.6 365.2 218.6C373.6 218.6 381.1 215.5 387.5 210C389.7 208.1 391.8 205.9 393.6 203.6C394.6 202.3 395.4 201.1 396.4 199.8C396.5 199.6 396.7 199.4 396.8 199.1C396.8 199.1 391.4 204.9 372.7 204.9C353.9 204.9 333.1 196 333.1 196ZM397.4 194.7C397.5 192.3 397.6 190 397.8 187.6L374.9 186L397.4 194.7Z" fill="#ACCBDB"/>
<path fill-rule="evenodd" clip-rule="evenodd" d="M333.1 127C333.1 127 356.9 146.6 395.5 126.8C395.5 126.8 405.4 114.7 411.6 120.7C411.6 120.7 414 87.4 390.1 87.1C390.1 87.1 394.4 82.4 393.2 78.7C392 74.9 381.9 65.8 360.6 79.3C360.6 79.3 359 69.5 351.1 69.2C335.6 68.4 299.9 103.8 333.1 127Z" fill="#19194F"/>
<path fill-rule="evenodd" clip-rule="evenodd" d="M458.8 372.2C459.1 371.1 459.3 370.2 459.4 369.7C460.1 364.7 451.8 346.4 443.8 331.6C442.7 329.6 440.2 364.8 439.2 363C439.6 358.2 439.9 316.8 439.9 316.6C440.2 315.2 459.6 354.7 460.7 357.8C461.9 360.8 458.8 372.2 458.8 372.2Z" fill="#4377B3"/>
</g>
<defs>
<clipPath id="clip0_202:509">
<rect width="730.4" height="465.3" fill="white"/>
</clipPath>
</defs>
</svg>
