<svg width="227" height="547" viewBox="0 0 227 547" fill="none" xmlns="http://www.w3.org/2000/svg">
<path d="M140.348 19.4748C140.348 15.0681 137.933 11.3721 134.24 9.38202C132.393 4.83316 128.558 0.568609 120.745 1.60933e-06C113.358 -0.568605 109.807 0.71076 106.539 2.55873C102.846 0.71076 98.1583 1.13722 94.7491 3.8381C92.7603 5.40177 91.4819 7.39189 90.9137 9.52417C88.7829 9.95063 86.51 10.5192 83.669 10.8035C74.2935 12.0829 70.174 16.0632 68.1853 20.8963C67.9011 21.0385 67.617 21.1806 67.475 21.4649C62.6452 25.1609 61.6508 32.1263 65.2022 37.1016C64.4919 38.381 64.0657 39.9447 63.9237 41.5083C63.6396 46.3415 66.3386 50.7482 70.6001 52.7383C70.8843 53.1648 71.3104 53.4491 71.5945 53.8755C71.1684 55.0127 70.8843 56.2921 70.8843 57.5715C70.8843 63.684 75.8561 68.5172 81.8223 68.5172C87.9306 68.5172 92.7604 63.5418 92.7604 57.5715C92.7604 51.4589 117.193 48.6159 123.302 48.6159C126.995 48.6159 130.262 46.7679 132.251 43.9249C135.092 42.0769 136.939 38.9496 137.223 35.2536C137.365 32.8371 136.797 30.5626 135.66 28.5725C138.501 26.5824 140.348 23.3129 140.348 19.4748Z" fill="#9E4540"/>
<path d="M109.807 25.4452C106.824 24.5923 103.84 24.0236 100.573 24.5923C98.0163 25.0187 94.3229 25.7295 91.1977 26.1559C87.7885 26.7245 85.3736 29.8519 85.6577 33.2635C85.6577 33.2635 85.6577 33.2635 85.6577 33.4057L86.51 44.4935L81.2541 44.7778H81.112C76.1402 45.0621 72.3048 49.3267 72.4468 54.302V54.4441C72.7309 58.7087 75.9981 62.2625 80.1177 62.8311C80.5438 62.8311 80.97 62.9732 81.5382 62.9732C81.5382 63.2575 81.5382 63.684 81.5382 63.9683V101.781C81.5382 111.873 89.3511 120.545 99.4368 121.113C110.233 121.682 119.182 113.011 119.182 102.349V89.4135C127.847 86.8547 133.956 78.8942 133.529 69.6544V68.6593L132.393 46.1993L132.109 39.6603L131.541 28.7147C131.257 28.7147 130.972 28.7147 130.688 28.5725C130.262 28.5725 129.552 28.999 129.126 28.999C128.558 29.1411 127.847 29.2833 127.279 29.2833C126.143 29.4254 124.864 29.4254 123.728 29.2833C121.455 28.999 119.182 28.4304 116.909 27.7196C114.494 27.151 112.079 26.1559 109.807 25.4452Z" fill="#FDBEA6"/>
<path opacity="0.46" d="M133.529 69.6544V68.6593C133.956 78.6099 126.285 87.139 116.341 87.5655L104.693 88.1341C94.7491 88.5606 86.2259 80.8844 85.7998 70.9337L85.2315 62.6889H84.9474L82.1064 62.8311L82.5325 72.071C82.9587 79.605 87.5044 85.8597 94.0388 88.7027C94.0388 88.987 94.0388 89.2713 94.0388 89.6978C94.0388 96.2368 99.5788 101.496 106.539 101.496C113.5 101.496 119.04 96.2368 119.04 89.6978C119.04 89.5556 119.04 89.4135 119.04 89.2713C127.705 86.9969 133.956 78.8942 133.529 69.6544Z" fill="#FF755F"/>
<path d="M94.607 40.9397C95.6014 41.224 96.5957 40.9397 97.7322 40.6554C98.8686 40.3711 100.005 40.229 100.857 40.0868C101.852 39.9447 102.988 39.8025 104.125 39.6604C105.261 39.5182 106.397 39.5182 107.25 38.9496C107.96 38.5231 108.244 37.3859 106.966 36.2487C105.829 35.1115 103.272 34.2586 100.005 34.685C96.7378 35.2536 94.607 36.8173 93.8967 38.2388C93.1865 39.8025 93.7547 40.6554 94.607 40.9397Z" fill="#9E4540"/>
<path d="M129.836 34.4007C129.126 34.8272 128.273 34.8272 127.421 34.8272C126.569 34.8272 125.717 34.9693 124.864 34.9693C124.154 35.1115 123.16 35.1115 122.307 35.2536C121.455 35.3958 120.603 35.5379 119.892 35.2536C119.182 34.9693 118.898 34.2586 119.608 33.2635C120.176 32.2684 122.023 30.9891 124.58 30.8469C127.137 30.5626 129.126 31.4155 129.836 32.4106C130.688 33.2635 130.404 34.1164 129.836 34.4007Z" fill="#9E4540"/>
<path d="M78.8392 57.2872C78.5551 57.2872 78.271 57.145 78.271 56.8607C78.1289 56.5764 78.271 56.1499 78.5551 55.8656L80.8279 54.7284L78.6971 50.606C78.5551 50.3217 78.6971 49.8953 78.9812 49.611C79.2653 49.4688 79.6915 49.611 79.9756 49.8953L82.8167 55.297L79.2653 57.145C78.9812 57.2872 78.8392 57.2872 78.8392 57.2872Z" fill="#FF755F"/>
<path d="M122.307 46.0572C121.881 46.9101 122.307 48.0473 123.16 48.4737C124.012 48.9002 125.148 48.4737 125.574 47.6208C126.001 46.7679 125.574 45.6307 124.722 45.2043C123.728 44.7778 122.733 45.2043 122.307 46.0572Z" fill="#441B14"/>
<path d="M102.562 47.0522C102.136 47.9051 102.562 49.0424 103.414 49.4688C104.267 49.8953 105.403 49.4688 105.829 48.6159C106.255 47.763 105.829 46.6258 104.977 46.1993C104.125 45.6307 102.988 46.0572 102.562 47.0522Z" fill="#441B14"/>
<path d="M122.733 49.4688C122.591 49.4688 122.449 49.4688 122.449 49.3267C122.165 49.1845 122.165 48.7581 122.307 48.6159C122.875 48.0473 124.296 47.1944 126.143 48.3316C126.427 48.4738 126.427 48.7581 126.285 49.0424C126.143 49.3267 125.859 49.3267 125.574 49.1845C124.012 48.1895 123.16 49.0424 123.16 49.1845C123.017 49.4688 122.875 49.4688 122.733 49.4688Z" fill="#FF755F"/>
<path d="M102.704 50.4639C102.562 50.4639 102.42 50.4639 102.42 50.3217C102.136 50.1796 102.136 49.7531 102.278 49.611C102.846 48.9002 104.267 48.0473 106.397 49.3267C106.681 49.4688 106.681 49.7531 106.539 50.0374C106.397 50.3217 106.113 50.3217 105.829 50.1796C104.125 49.0424 103.272 50.0374 103.13 50.1796C103.13 50.4639 102.988 50.4639 102.704 50.4639Z" fill="#FF755F"/>
<path opacity="0.57" d="M119.04 76.3355C118.898 76.3355 118.756 76.3355 118.614 76.1933C116.909 74.6297 114.92 75.7669 114.92 75.7669C114.636 75.909 114.21 75.7669 113.926 75.4826C113.784 75.1983 113.926 74.7718 114.21 74.4875C114.352 74.4875 117.193 72.9238 119.608 75.1983C119.892 75.4826 119.892 75.909 119.608 76.1933C119.324 76.3355 119.182 76.3355 119.04 76.3355Z" fill="#FF755F"/>
<path d="M104.125 56.2921C104.125 56.2921 108.528 58.8508 113.216 59.7037C117.762 60.5567 113.784 68.2329 106.824 67.2378C99.7209 66.2427 100.431 55.1549 104.125 56.2921Z" fill="white"/>
<path d="M102.42 56.5764C97.8742 56.5764 94.1808 52.8805 94.1808 48.3316C94.1808 43.7827 97.8742 40.0868 102.42 40.0868C106.966 40.0868 110.659 43.7827 110.659 48.3316C110.659 52.8805 106.966 56.5764 102.42 56.5764ZM102.42 41.0819C98.4424 41.0819 95.1752 44.3513 95.1752 48.3316C95.1752 52.3118 98.4424 55.5813 102.42 55.5813C106.397 55.5813 109.665 52.3118 109.665 48.3316C109.665 44.3513 106.397 41.0819 102.42 41.0819Z" fill="white"/>
<path d="M125.859 54.302C121.313 54.302 117.62 50.606 117.62 46.0572C117.62 41.5083 121.313 37.8124 125.859 37.8124C130.404 37.8124 134.098 41.5083 134.098 46.0572C134.098 50.606 130.404 54.302 125.859 54.302ZM125.859 38.8074C121.881 38.8074 118.614 42.0769 118.614 46.0572C118.614 50.0374 121.881 53.3069 125.859 53.3069C129.836 53.3069 133.103 50.0374 133.103 46.0572C132.961 42.0769 129.836 38.8074 125.859 38.8074Z" fill="white"/>
<path d="M111.937 56.8607C111.653 56.8607 111.227 56.5764 111.227 56.2921C111.227 55.8656 111.511 55.5813 111.795 55.4392L115.347 54.8706C116.909 54.5863 117.904 53.3069 117.904 51.7432L117.762 49.4688C117.762 49.0424 117.62 48.7581 117.193 48.4737C116.909 48.1894 116.483 48.0473 116.057 48.1894L115.489 48.3316C114.921 48.3316 114.352 48.1894 113.926 47.9051C113.5 47.4787 113.216 47.0522 113.216 46.3415L112.648 39.8025C112.648 39.376 112.932 39.0917 113.358 39.0917C113.784 39.0917 114.068 39.376 114.068 39.8025L114.494 46.3415C114.494 46.4836 114.636 46.7679 114.778 46.9101C114.921 46.9101 115.063 46.9101 115.347 46.9101L116.057 46.7679C116.909 46.6258 117.619 46.9101 118.188 47.4787C118.756 48.0473 119.182 48.7581 119.182 49.4688L119.324 51.7432C119.466 54.0177 117.762 56.0078 115.631 56.2921L111.937 56.8607Z" fill="#FF755F"/>
<path d="M110.091 46.6258L109.38 45.7729C109.38 45.7729 113.642 42.2191 118.188 44.92L117.62 45.7729C113.784 43.4985 110.233 46.4837 110.091 46.6258Z" fill="white"/>
<path d="M95.1752 46.4836L83.5269 44.6357C83.2428 44.6357 83.1007 44.3514 83.1007 44.067C83.1007 43.7827 83.3848 43.6406 83.669 43.6406L95.3173 45.4886C95.6014 45.4886 95.7434 45.7729 95.7434 46.0572C95.6014 46.3415 95.4593 46.4836 95.1752 46.4836Z" fill="white"/>
<path d="M109.807 516.58V544.868H170.463C170.463 539.466 166.77 534.775 161.656 533.496L146.314 529.658C145.178 529.373 144.041 528.662 143.189 527.81L137.223 516.437L109.807 516.58Z" fill="#B3CBDC"/>
<path d="M135.518 525.677C135.376 525.677 135.092 525.535 135.092 525.393C134.95 525.109 135.092 524.824 135.376 524.682L140.774 522.266C141.058 522.123 141.342 522.266 141.484 522.55C141.626 522.834 141.484 523.119 141.2 523.261L135.802 525.677C135.66 525.677 135.518 525.677 135.518 525.677Z" fill="#EAEAEA"/>
<path d="M137.365 530.368C137.223 530.368 136.939 530.226 136.939 530.084C136.797 529.8 136.939 529.515 137.223 529.373L142.621 526.957C142.905 526.814 143.189 526.957 143.331 527.241C143.473 527.525 143.331 527.809 143.047 527.952L137.649 530.368C137.507 530.368 137.507 530.368 137.365 530.368Z" fill="#EAEAEA"/>
<path d="M170.463 543.446H109.807V546.858H170.463V543.446Z" fill="#141C34"/>
<path d="M69.18 516.58V544.868H8.52356C8.52356 539.466 12.2169 534.775 17.3308 533.496L32.6725 529.658C33.8089 529.373 34.9453 528.662 35.7977 527.81L41.7639 516.437L69.18 516.58Z" fill="#B3CBDC"/>
<path d="M43.4681 525.677C43.3261 525.677 43.3261 525.677 43.184 525.677L37.786 523.261C37.5019 523.119 37.3598 522.834 37.5019 522.55C37.6439 522.266 37.9281 522.123 38.2122 522.266L43.6102 524.682C43.8943 524.824 44.0363 525.109 43.8943 525.393C43.8943 525.677 43.6102 525.677 43.4681 525.677Z" fill="#EAEAEA"/>
<path d="M41.4794 530.368C41.3373 530.368 41.3373 530.368 41.1953 530.368L35.7973 527.952C35.5132 527.809 35.3711 527.525 35.5132 527.241C35.6552 526.957 35.9393 526.814 36.2234 526.957L41.6214 529.373C41.9056 529.515 42.0476 529.8 41.9056 530.084C41.9056 530.226 41.7635 530.368 41.4794 530.368Z" fill="#EAEAEA"/>
<path d="M8.4956 546.956H69.152V543.544H8.4956V546.956Z" fill="#141C34"/>
<path d="M52.1333 260.706C52.4174 257.295 55.9687 255.02 59.236 256.442L146.456 262.696C149.723 261.844 152.849 264.402 152.849 267.814L146.314 515.158C146.172 517.859 144.041 520.133 141.2 520.133H105.261C102.42 520.133 100.147 517.859 100.147 515.016L98.4425 320.694L78.271 510.467C77.9869 513.736 75.1458 516.295 71.8786 516.295H37.9281C34.945 516.295 32.6721 513.736 32.8142 510.751L52.1333 260.706Z" fill="#141C34"/>
<path d="M111.653 102.918L102.278 106.756L74.0094 100.075L72.873 230.002L72.3048 276.485H129.978L126.995 239.384L126.711 140.02L126.569 96.8054L111.653 102.918Z" fill="#B3CBDC"/>
<path d="M114.921 106.472L109.523 120.971C106.966 127.937 97.164 128.079 94.465 121.113L89.4932 108.178L114.921 106.472Z" fill="#9F9FDD"/>
<path d="M102.704 192.758L111.369 171.719C111.937 170.44 112.08 169.161 111.795 167.881L105.261 121.398H103.698H101.141H99.4368L91.9081 167.597C91.624 169.018 91.9081 170.582 92.4763 171.862L102.136 192.758V193.611L102.42 193.184L102.704 193.611V192.758Z" fill="#9F9FDD"/>
<path d="M124.722 91.2614L126.143 103.202L116.767 118.697C115.915 120.118 113.926 120.26 112.79 118.981L102.278 106.756L120.319 89.6978C121.881 88.1341 124.438 89.1292 124.722 91.2614Z" fill="#F8F8EE"/>
<path d="M82.1065 88.4184L102.278 106.756L90.9137 118.981C89.7773 120.118 87.9306 120.118 86.9362 118.839L74.7197 103.06L80.1177 88.987C80.4018 87.992 81.5383 87.7077 82.1065 88.4184Z" fill="#F8F8EE"/>
<path d="M226.148 125.236L218.051 77.3306C217.909 76.6198 217.34 76.0512 216.63 76.0512L179.554 73.066C176.571 72.7817 174.156 75.3404 174.725 78.3256L179.839 115.854L159.099 107.182L122.165 92.2565L121.881 98.6533L115.773 243.79L125.006 328.086C125.575 333.914 130.83 338.037 136.513 337.468L166.344 334.625C171.884 334.057 175.861 328.797 174.583 323.253L151.286 209.816L156.116 156.083L169.611 163.475C185.521 171.009 200.862 169.161 212.653 161.627C218.903 157.646 223.307 151.676 225.437 144.568C227.284 138.598 227.568 132.059 226.148 125.236Z" fill="white"/>
<path d="M140.49 146.274H127.847C127.279 146.274 126.853 145.848 126.853 145.279V144C126.853 143.431 127.279 143.005 127.847 143.005H140.49C141.058 143.005 141.484 143.431 141.484 144V145.279C141.484 145.848 141.058 146.274 140.49 146.274Z" fill="#B3CBDC"/>
<path opacity="0.35" d="M155.974 156.225L150.008 153.097L153.133 189.062L155.974 156.225Z" fill="#D1D1D5"/>
<path opacity="0.35" d="M179.412 115.427L180.975 128.505L173.73 113.295L179.412 115.427Z" fill="#D1D1D5"/>
<path d="M50.8549 209.816L45.883 155.514L42.0476 108.604L79.8336 92.1143L86.226 243.648L76.9925 327.944C76.4243 333.772 71.1684 337.895 65.4863 337.326L35.6552 334.483C30.1152 333.915 26.1377 328.655 27.4162 323.111L50.8549 209.816Z" fill="white"/>
<path opacity="0.57" d="M51.423 191.478L83.3849 180.106H83.5269L84.2372 179.822L58.6677 185.082C57.6733 185.224 56.9631 184.371 57.2472 183.518L64.918 149.259L61.2247 149.828L61.5088 152.671L51.423 191.478Z" fill="#D1D1D5"/>
<path opacity="0.57" d="M44.6045 240.379L44.3204 242.937L75.572 232.702L75.1458 229.006L46.7353 239.526C46.0251 239.81 45.3148 240.094 44.6045 240.379Z" fill="#D1D1D5"/>
<path d="M128.7 228.154L73.8674 233.555C71.4525 233.84 69.1796 231.992 69.0376 229.575L60.5144 143.573C60.2303 141.157 62.077 138.882 64.4919 138.74L119.324 133.338C121.739 133.054 124.012 134.902 124.154 137.319L132.677 223.32C132.961 225.737 131.115 227.869 128.7 228.154Z" fill="#3B3047"/>
<g opacity="0.22">
<path opacity="0.22" d="M121.029 221.33L80.1177 225.311C77.7028 225.595 75.43 223.747 75.2879 221.33L68.0432 147.127C67.7591 144.71 69.6058 142.436 72.0207 142.294L112.932 138.314C115.347 138.029 117.62 139.877 117.762 142.294L125.006 216.497C125.29 218.914 123.444 221.046 121.029 221.33Z" fill="#141C34"/>
</g>
<path d="M106.255 140.304L78.5551 143.005C77.2766 143.147 76.1402 142.152 75.9982 140.872L75.572 136.608C75.43 135.328 76.4243 134.191 77.7028 134.049L105.403 131.348C106.682 131.206 107.818 132.201 107.96 133.481L108.386 137.745C108.528 139.024 107.534 140.162 106.255 140.304Z" fill="#141C34"/>
<path d="M129.268 188.067L124.58 187.64L128.131 187.925C130.12 188.067 131.967 186.645 132.109 184.513C132.251 181.954 130.546 179.822 127.989 179.538C125.574 179.253 122.591 179.111 119.466 179.396C116.909 178.258 109.949 175.131 105.119 175.7C99.1527 176.41 94.3229 182.665 94.3229 182.665L83.3849 185.65L88.2147 218.061L119.04 210.385C121.739 210.669 124.012 208.537 124.296 205.978C124.296 205.267 123.728 204.556 123.018 204.414L121.739 204.272L125.29 204.556C127.705 204.699 129.836 202.993 130.12 200.434V199.865C130.262 198.017 128.984 196.454 127.137 196.312L122.307 195.885L128.984 196.454C131.115 196.596 133.103 195.032 133.245 192.9V192.189C133.103 190.057 131.399 188.209 129.268 188.067Z" fill="#B3CBDC"/>
<path opacity="0.57" d="M122.875 188.493C122.449 188.493 122.023 188.067 122.165 187.498C122.165 187.072 122.591 186.645 123.16 186.645L129.41 187.214C129.836 187.214 130.262 187.64 130.262 188.209C130.262 188.635 129.836 189.062 129.268 189.062L122.875 188.493Z" fill="#779CAF"/>
<path opacity="0.57" d="M128.416 197.591L120.461 196.454C120.034 196.454 119.608 195.885 119.75 195.459C119.75 195.032 120.319 194.748 120.745 194.748L128.7 195.885C129.126 195.885 129.552 196.454 129.41 196.88C129.268 197.307 128.842 197.733 128.416 197.591Z" fill="#779CAF"/>
<path opacity="0.57" d="M117.762 204.699C117.335 204.699 116.909 204.272 117.051 203.703C117.051 203.277 117.477 202.851 118.046 202.851L124.012 203.419C124.438 203.419 124.864 203.846 124.864 204.414C124.864 204.841 124.438 205.267 123.87 205.267L117.762 204.699Z" fill="#779CAF"/>
<path opacity="0.57" d="M102.278 182.239L119.466 179.538C119.466 179.538 103.698 179.253 102.278 182.239Z" fill="#779CAF"/>
<path d="M89.3511 183.944C89.067 181.101 86.2259 179.253 83.5269 180.106H83.3849L51.4231 191.478L61.5088 152.671L61.2247 149.828L60.6565 143.573C60.3724 141.157 61.3667 139.167 63.7816 138.882L65.3442 138.74L66.1965 135.755C70.4581 124.525 72.1627 112.016 61.0826 107.609C49.8605 103.06 36.9337 108.604 32.6721 119.976L4.11956 193.184C-2.69896 207.684 -0.994333 222.894 8.66524 233.129C13.7791 238.531 20.4556 241.8 27.8423 242.511C33.2403 243.08 38.9224 242.369 44.6045 240.379C45.3148 240.094 46.0251 239.81 46.8774 239.526L75.2879 229.007L92.4763 222.61C93.1865 222.325 93.6127 221.615 93.4706 220.904L89.3511 183.944Z" fill="white"/>
<path d="M208.107 75.3405L208.391 72.4974C211.232 67.38 210.38 59.2773 209.101 53.4491L205.124 54.302C205.124 54.302 188.362 43.072 179.128 51.3168C176.855 53.3069 178.276 64.9634 181.117 73.066C181.259 73.3503 208.107 75.3405 208.107 75.3405Z" fill="#B3CBDC"/>
<path opacity="0.45" d="M205.834 53.5912C205.834 53.5912 206.402 68.9436 195.606 70.3651C184.81 71.9288 180.975 56.4343 180.975 56.4343C180.975 56.4343 190.777 45.2043 196.743 48.0473C202.709 51.0325 205.834 53.5912 205.834 53.5912Z" fill="#779CAF"/>
<path d="M190.208 83.5853C193.902 83.5853 196.743 80.4579 196.601 76.9041L195.748 32.9792L182.68 33.2635L183.532 77.1884C183.532 80.7422 186.657 83.5853 190.208 83.5853Z" fill="#DFF5FF"/>
<path opacity="0.43" d="M190.208 80.3158C193.191 80.3158 195.606 77.4727 195.464 74.0611L194.612 32.9792L183.816 33.1214L184.526 74.2032C184.668 77.6149 187.225 80.4579 190.208 80.3158Z" fill="white"/>
<path d="M190.066 78.0413C192.765 78.0413 194.896 75.7669 194.896 73.066L194.328 40.2289L184.526 40.3711L185.095 73.2082C185.095 75.909 187.367 78.0413 190.066 78.0413Z" fill="#9F9FDD"/>
<path d="M183.248 33.9743L195.322 33.69C196.743 33.69 197.879 32.4106 197.879 30.9891C197.879 29.5676 196.601 28.4304 195.18 28.4304L183.106 28.7147C181.685 28.7147 180.549 29.994 180.549 31.4155C180.549 32.8371 181.827 33.9743 183.248 33.9743Z" fill="#C5E4EF"/>
<path opacity="0.43" d="M187.936 50.606C187.936 50.8904 188.22 51.1747 188.504 51.1747C188.788 51.1747 189.072 50.8904 189.072 50.606C189.072 50.3217 188.788 50.0374 188.504 50.0374C188.22 50.0374 187.936 50.3217 187.936 50.606Z" fill="white"/>
<path opacity="0.43" d="M191.203 58.2822C191.203 58.5665 191.487 58.8508 191.771 58.8508C192.055 58.8508 192.339 58.5665 192.339 58.2822C192.339 57.9979 192.055 57.7136 191.771 57.7136C191.487 57.7136 191.203 57.9979 191.203 58.2822Z" fill="white"/>
<path opacity="0.43" d="M186.373 61.836C186.373 62.1203 186.657 62.4046 186.941 62.4046C187.225 62.4046 187.509 62.1203 187.509 61.836C187.509 61.5517 187.225 61.2674 186.941 61.2674C186.657 61.2674 186.373 61.5517 186.373 61.836Z" fill="white"/>
<path d="M207.539 42.7877C208.817 44.067 208.817 46.3415 207.539 47.6208L199.3 55.5813C198.021 56.8607 195.748 56.8607 194.47 55.5813C193.191 54.302 193.191 52.0275 194.47 50.7482L202.709 42.7877C204.13 41.3661 206.26 41.3661 207.539 42.7877Z" fill="#B3CBDC"/>
<path d="M202.851 37.8124C204.13 39.0917 204.13 41.3662 202.851 42.6455L194.612 50.606C193.334 51.8854 191.061 51.8854 189.782 50.606C188.504 49.3267 188.504 47.0522 189.782 45.7729L198.021 37.8124C199.442 36.533 201.573 36.533 202.851 37.8124Z" fill="#B3CBDC"/>
<path d="M209.954 49.7531C211.232 51.0325 211.232 53.3069 209.954 54.5863L204.982 59.4194C203.703 60.6988 201.431 60.6988 200.152 59.4194C198.874 58.1401 198.874 55.8656 200.152 54.5863L205.124 49.7531C206.544 48.3316 208.675 48.3316 209.954 49.7531Z" fill="#B3CBDC"/>
<path d="M178.702 59.4194C177.424 56.0078 178.986 52.3119 182.396 50.8903C185.521 49.611 189.356 48.9002 193.049 50.7482C193.049 50.7482 196.459 53.0226 192.907 55.4392C189.356 57.8558 182.68 60.9831 181.543 63.5419C180.407 66.1006 180.691 64.5369 180.691 64.5369L178.702 59.4194Z" fill="#B3CBDC"/>
</svg>
