<svg width="161" height="388" viewBox="0 0 161 388" fill="none" xmlns="http://www.w3.org/2000/svg">
<path d="M99.542 13.8139C99.542 10.6881 97.8292 8.06653 95.2097 6.65488C93.8999 3.42827 91.1796 0.403323 85.6383 -3.76254e-06C80.3993 -0.40333 77.8805 0.504154 75.5632 1.81497C72.9437 0.504154 69.6189 0.806649 67.2009 2.72245C65.7904 3.8316 64.8836 5.24324 64.4806 6.75571C62.9694 7.05821 61.3573 7.46154 59.3423 7.6632C52.6928 8.57068 49.771 11.394 48.3605 14.8222C48.159 14.9231 47.9575 15.0239 47.8567 15.2256C44.4312 17.8472 43.7259 22.7879 46.2447 26.317C45.7409 27.2245 45.4387 28.3337 45.3379 29.4428C45.1364 32.8711 47.0507 35.9969 50.0732 37.4085C50.2747 37.711 50.577 37.9127 50.7785 38.2152C50.4762 39.0218 50.2747 39.9293 50.2747 40.8368C50.2747 45.1726 53.801 48.6008 58.0326 48.6008C62.3648 48.6008 65.7904 45.0717 65.7904 40.8368C65.7904 36.501 83.1195 34.4844 87.4518 34.4844C90.0714 34.4844 92.3886 33.1736 93.7991 31.157C95.8142 29.8462 97.1239 27.6279 97.3254 25.0062C97.4262 23.2921 97.0232 21.6788 96.2172 20.2672C98.2322 18.8555 99.542 16.5364 99.542 13.8139Z" fill="#9E4540"/>
<path d="M77.8805 18.0488C75.7647 17.4438 73.649 17.0405 71.3317 17.4438C69.5182 17.7463 66.8986 18.2505 64.6821 18.553C62.2641 18.9563 60.5513 21.1746 60.7528 23.5946C60.7528 23.5946 60.7528 23.5946 60.7528 23.6954L61.3573 31.5603L57.6295 31.7619H57.5288C54.0025 31.9636 51.2822 34.9885 51.383 38.5177V38.6185C51.5845 41.6434 53.9018 44.1642 56.8235 44.5675C57.1258 44.5675 57.428 44.6684 57.8311 44.6684C57.8311 44.87 57.8311 45.1725 57.8311 45.3742V72.1954C57.8311 79.3544 63.3724 85.5052 70.5257 85.9085C78.1827 86.3118 84.5301 80.1611 84.5301 72.5987V63.4231C90.6759 61.6081 95.0081 55.9615 94.7059 49.4075V48.7016L93.8999 32.7702L93.6984 28.132L93.2954 20.368C93.0939 20.368 92.8924 20.368 92.6909 20.2671C92.3886 20.2671 91.8849 20.5696 91.5826 20.5696C91.1796 20.6705 90.6759 20.7713 90.2729 20.7713C89.4668 20.8721 88.5601 20.8721 87.7541 20.7713C86.1421 20.5696 84.5301 20.1663 82.918 19.6621C81.2053 19.2588 79.4925 18.553 77.8805 18.0488Z" fill="#FDBEA6"/>
<path opacity="0.46" d="M94.7059 49.4075V48.7017C95.0081 55.7599 89.5676 61.8098 82.515 62.1123L74.2535 62.5157C67.2009 62.8181 61.1558 57.3732 60.8536 50.315L60.4506 44.4668H60.2491L58.2341 44.5676L58.5363 51.1217C58.8386 56.4658 62.0626 60.9023 66.6971 62.919C66.6971 63.1206 66.6971 63.3223 66.6971 63.6248C66.6971 68.2631 70.6264 71.9938 75.5632 71.9938C80.5 71.9938 84.4293 68.2631 84.4293 63.6248C84.4293 63.524 84.4293 63.4231 84.4293 63.3223C90.5751 61.709 95.0081 55.9616 94.7059 49.4075Z" fill="#FF755F"/>
<path d="M67.1002 29.0395C67.8054 29.2412 68.5107 29.0395 69.3167 28.8379C70.1227 28.6362 70.9287 28.5354 71.5332 28.4345C72.2385 28.3337 73.0445 28.2329 73.8505 28.132C74.6565 28.0312 75.4625 28.0312 76.067 27.6279C76.5707 27.3254 76.7723 26.5187 75.8655 25.7121C75.0595 24.9054 73.246 24.3004 70.9287 24.6029C68.6114 25.0063 67.1002 26.1154 66.5964 27.1237C66.0926 28.2329 66.4957 28.8379 67.1002 29.0395Z" fill="#9E4540"/>
<path d="M92.0864 24.4012C91.5826 24.7037 90.9781 24.7037 90.3736 24.7037C89.7691 24.7037 89.1646 24.8045 88.5601 24.8045C88.0564 24.9053 87.3511 24.9053 86.7466 25.0062C86.1421 25.107 85.5376 25.2078 85.0338 25.0062C84.5301 24.8045 84.3286 24.3003 84.8323 23.5945C85.2353 22.8887 86.5451 21.9812 88.3586 21.8804C90.1721 21.6787 91.5826 22.2837 92.0864 22.9895C92.6909 23.5945 92.4894 24.1995 92.0864 24.4012Z" fill="#9E4540"/>
<path d="M55.9168 40.6351C55.7153 40.6351 55.5138 40.5343 55.5138 40.3326C55.413 40.1309 55.5138 39.8284 55.7153 39.6268L57.3273 38.8201L55.8161 35.896C55.7153 35.6943 55.8161 35.3919 56.0176 35.1902C56.2191 35.0894 56.5213 35.1902 56.7228 35.3919L58.7378 39.2235L56.2191 40.5343C56.0176 40.6351 55.9168 40.6351 55.9168 40.6351Z" fill="#FF755F"/>
<path d="M86.7466 32.6695C86.4443 33.2745 86.7466 34.0811 87.3511 34.3836C87.9556 34.6861 88.7616 34.3836 89.0639 33.7786C89.3661 33.1736 89.0639 32.367 88.4594 32.0645C87.7541 31.762 87.0488 32.0645 86.7466 32.6695Z" fill="#441B14"/>
<path d="M72.7422 33.3752C72.4399 33.9802 72.7422 34.7869 73.3467 35.0894C73.9512 35.3919 74.7572 35.0894 75.0595 34.4844C75.3617 33.8794 75.0595 33.0727 74.455 32.7703C73.8505 32.3669 73.0445 32.6694 72.7422 33.3752Z" fill="#441B14"/>
<path d="M87.0489 35.0893C86.9481 35.0893 86.8473 35.0893 86.8473 34.9884C86.6458 34.8876 86.6458 34.5851 86.7466 34.4843C87.1496 34.081 88.1571 33.476 89.4669 34.2826C89.6684 34.3835 89.6684 34.5851 89.5676 34.7868C89.4669 34.9884 89.2654 34.9884 89.0639 34.8876C87.9556 34.1818 87.3511 34.7868 87.3511 34.8876C87.2504 35.0893 87.1496 35.0893 87.0489 35.0893Z" fill="#FF755F"/>
<path d="M72.843 35.7951C72.7422 35.7951 72.6414 35.7951 72.6414 35.6942C72.4399 35.5934 72.4399 35.2909 72.5407 35.1901C72.9437 34.6859 73.9512 34.0809 75.4625 34.9884C75.664 35.0893 75.664 35.2909 75.5632 35.4926C75.4625 35.6942 75.261 35.6942 75.0595 35.5934C73.8505 34.7868 73.246 35.4926 73.1452 35.5934C73.1452 35.7951 73.0445 35.7951 72.843 35.7951Z" fill="#FF755F"/>
<path opacity="0.57" d="M84.4293 54.1464C84.3286 54.1464 84.2278 54.1464 84.1271 54.0456C82.9181 52.9365 81.5075 53.7431 81.5075 53.7431C81.306 53.8439 81.0038 53.7431 80.8023 53.5415C80.7015 53.3398 80.8023 53.0373 81.0038 52.8356C81.1045 52.8356 83.1196 51.7265 84.8323 53.3398C85.0338 53.5415 85.0338 53.8439 84.8323 54.0456C84.6308 54.1464 84.5301 54.1464 84.4293 54.1464Z" fill="#FF755F"/>
<path d="M73.8505 39.9293C73.8505 39.9293 76.9737 41.7443 80.2985 42.3493C83.5226 42.9543 80.7015 48.3992 75.7647 47.6934C70.7272 46.9875 71.2309 39.1227 73.8505 39.9293Z" fill="white"/>
<path d="M72.6414 40.1308C69.4174 40.1308 66.7979 37.5092 66.7979 34.2826C66.7979 31.0559 69.4174 28.4343 72.6414 28.4343C75.8655 28.4343 78.485 31.0559 78.485 34.2826C78.485 37.5092 75.8655 40.1308 72.6414 40.1308ZM72.6414 29.1401C69.8204 29.1401 67.5031 31.4593 67.5031 34.2826C67.5031 37.1058 69.8204 39.425 72.6414 39.425C75.4625 39.425 77.7797 37.1058 77.7797 34.2826C77.7797 31.4593 75.4625 29.1401 72.6414 29.1401Z" fill="white"/>
<path d="M89.2654 38.5175C86.0413 38.5175 83.4218 35.8959 83.4218 32.6693C83.4218 29.4427 86.0413 26.821 89.2654 26.821C92.4894 26.821 95.1089 29.4427 95.1089 32.6693C95.1089 35.8959 92.4894 38.5175 89.2654 38.5175ZM89.2654 27.5269C86.4443 27.5269 84.1271 29.846 84.1271 32.6693C84.1271 35.4926 86.4443 37.8117 89.2654 37.8117C92.0864 37.8117 94.4037 35.4926 94.4037 32.6693C94.3029 29.846 92.0864 27.5269 89.2654 27.5269Z" fill="white"/>
<path d="M79.3918 40.3325C79.1903 40.3325 78.888 40.1308 78.888 39.9291C78.888 39.6266 79.0895 39.425 79.291 39.3241L81.8098 38.9208C82.918 38.7192 83.6233 37.8117 83.6233 36.7025L83.5225 35.0892C83.5225 34.7867 83.4218 34.5851 83.1195 34.3834C82.918 34.1817 82.6158 34.0809 82.3135 34.1817L81.9105 34.2826C81.5075 34.2826 81.1045 34.1817 80.8023 33.9801C80.5 33.6776 80.2985 33.3751 80.2985 32.8709L79.8955 28.2327C79.8955 27.9302 80.097 27.7285 80.3993 27.7285C80.7015 27.7285 80.903 27.9302 80.903 28.2327L81.2053 32.8709C81.2053 32.9718 81.306 33.1734 81.4068 33.2743C81.5075 33.2743 81.6083 33.2743 81.8098 33.2743L82.3135 33.1734C82.918 33.0726 83.4218 33.2743 83.8248 33.6776C84.2278 34.0809 84.5301 34.5851 84.5301 35.0892L84.6308 36.7025C84.7316 38.3158 83.5225 39.7275 82.0113 39.9291L79.3918 40.3325Z" fill="#FF755F"/>
<path d="M78.082 33.0727L77.5782 32.4677C77.5782 32.4677 80.6008 29.9469 83.8248 31.8627L83.4218 32.4677C80.7015 30.8544 78.1828 32.9719 78.082 33.0727Z" fill="white"/>
<path d="M67.5032 32.9717L59.2416 31.6609C59.0401 31.6609 58.9393 31.4592 58.9393 31.2576C58.9393 31.0559 59.1408 30.9551 59.3423 30.9551L67.6039 32.2659C67.8054 32.2659 67.9062 32.4676 67.9062 32.6692C67.8054 32.8709 67.7047 32.9717 67.5032 32.9717Z" fill="white"/>
<path d="M77.8805 366.422V386.488H120.901C120.901 382.656 118.282 379.329 114.655 378.421L103.773 375.699C102.967 375.497 102.161 374.993 101.557 374.388L97.3254 366.321L77.8805 366.422Z" fill="#B3CBDC"/>
<path d="M96.1164 372.875C96.0157 372.875 95.8142 372.774 95.8142 372.674C95.7134 372.472 95.8142 372.27 96.0157 372.169L99.8442 370.455C100.046 370.354 100.247 370.455 100.348 370.657C100.449 370.859 100.348 371.06 100.146 371.161L96.3179 372.875C96.2172 372.875 96.1164 372.875 96.1164 372.875Z" fill="#EAEAEA"/>
<path d="M97.4262 376.203C97.3254 376.203 97.1239 376.102 97.1239 376.001C97.0232 375.799 97.1239 375.598 97.3254 375.497L101.154 373.783C101.355 373.682 101.557 373.783 101.658 373.984C101.758 374.186 101.658 374.388 101.456 374.489L97.6277 376.203C97.5269 376.203 97.5269 376.203 97.4262 376.203Z" fill="#EAEAEA"/>
<path d="M120.901 385.479H77.8805V387.899H120.901V385.479Z" fill="#141C34"/>
<path d="M49.0662 366.422V386.488H6.04556C6.04556 382.656 8.66509 379.329 12.2921 378.421L23.1732 375.699C23.9792 375.497 24.7852 374.993 25.3897 374.388L29.6213 366.321L49.0662 366.422Z" fill="#B3CBDC"/>
<path d="M30.8298 372.875C30.729 372.875 30.729 372.875 30.6283 372.875L26.7997 371.161C26.5982 371.06 26.4975 370.859 26.5982 370.657C26.699 370.455 26.9005 370.354 27.102 370.455L30.9305 372.169C31.132 372.27 31.2328 372.472 31.132 372.674C31.132 372.875 30.9305 372.875 30.8298 372.875Z" fill="#EAEAEA"/>
<path d="M29.4193 376.203C29.3185 376.203 29.3185 376.203 29.2178 376.203L25.3892 374.489C25.1877 374.388 25.087 374.186 25.1877 373.984C25.2885 373.783 25.49 373.682 25.6915 373.783L29.52 375.497C29.7215 375.598 29.8223 375.799 29.7215 376.001C29.7215 376.102 29.6208 376.203 29.4193 376.203Z" fill="#EAEAEA"/>
<path d="M6.02552 387.969H49.0462V385.549H6.02552V387.969Z" fill="#141C34"/>
<path d="M36.9756 184.925C37.1771 182.505 39.6959 180.892 42.0132 181.9L103.874 186.337C106.191 185.732 108.408 187.547 108.408 189.967L103.773 365.414C103.673 367.33 102.161 368.943 100.146 368.943H74.6565C72.6414 368.943 71.0294 367.33 71.0294 365.313L69.8204 227.476L55.5138 362.086C55.3123 364.405 53.2973 366.22 50.98 366.22H26.9005C24.7848 366.22 23.1727 364.405 23.2735 362.288L36.9756 184.925Z" fill="#141C34"/>
<path d="M79.1902 73.0018L72.5407 75.7242L52.4912 70.9851L51.6852 163.145L51.2822 196.117H92.1871L90.0714 169.8L89.8698 99.3188L89.7691 68.666L79.1902 73.0018Z" fill="#B3CBDC"/>
<path d="M81.5075 75.5227L77.679 85.8075C75.8654 90.7483 68.9136 90.8491 66.9994 85.9084L63.4731 76.7327L81.5075 75.5227Z" fill="#9F9FDD"/>
<path d="M72.8429 136.728L78.9887 121.805C79.3917 120.897 79.4925 119.99 79.291 119.082L74.6564 86.1101H73.5482H71.7347H70.5257L65.1859 118.88C64.9844 119.889 65.1859 120.998 65.5889 121.905L72.4399 136.728V137.333L72.6414 137.03L72.8429 137.333V136.728Z" fill="#9F9FDD"/>
<path d="M88.4593 64.7337L89.4668 73.2036L82.8173 84.1942C82.2128 85.2025 80.8023 85.3034 79.9963 84.3959L72.5407 75.7244L85.336 63.6246C86.4443 62.5154 88.2578 63.2212 88.4593 64.7337Z" fill="#F8F8EE"/>
<path d="M58.234 62.7171L72.5407 75.7243L64.4806 84.3959C63.6746 85.2025 62.3648 85.2025 61.6596 84.295L52.995 73.1027L56.8235 63.1204C57.025 62.4146 57.831 62.2129 58.234 62.7171Z" fill="#F8F8EE"/>
<path d="M160.396 88.8326L154.653 54.8523C154.552 54.3481 154.149 53.9448 153.645 53.9448L127.349 51.8274C125.233 51.6257 123.521 53.4407 123.924 55.5581L127.551 82.1777L112.841 76.0269L86.6458 65.4396L86.4443 69.977L82.112 172.926L88.6608 232.719C89.0638 236.853 92.7916 239.777 96.8217 239.374L117.979 237.357C121.909 236.954 124.73 233.223 123.823 229.291L107.3 148.827L110.725 110.713L120.297 115.956C131.581 121.3 142.462 119.99 150.824 114.645C155.257 111.822 158.381 107.587 159.892 102.546C161.202 98.3107 161.403 93.6725 160.396 88.8326Z" fill="#E3EFF5"/>
<path d="M99.6427 103.756H90.6759C90.2729 103.756 89.9706 103.453 89.9706 103.05V102.142C89.9706 101.739 90.2729 101.437 90.6759 101.437H99.6427C100.046 101.437 100.348 101.739 100.348 102.142V103.05C100.348 103.453 100.046 103.756 99.6427 103.756Z" fill="#B3CBDC"/>
<path opacity="0.35" d="M110.625 110.814L106.393 108.596L108.61 134.106L110.625 110.814Z" fill="#D1D1D5"/>
<path opacity="0.35" d="M127.248 81.8753L128.357 91.1518L123.218 80.3628L127.248 81.8753Z" fill="#D1D1D5"/>
<path d="M36.0688 148.827L32.5426 110.31L29.8223 77.0353L56.622 65.3389L61.1558 172.825L54.607 232.618C54.204 236.753 50.4762 239.677 46.4462 239.273L25.2885 237.257C21.3592 236.853 18.5382 233.123 19.4449 229.19L36.0688 148.827Z" fill="#E3EFF5"/>
<path opacity="0.57" d="M36.4718 135.82L59.1408 127.754H59.2416L59.7453 127.552L41.6101 131.283C40.9049 131.384 40.4011 130.779 40.6026 130.174L46.0432 105.873L43.4236 106.277L43.6251 108.293L36.4718 135.82Z" fill="#D1D1D5"/>
<path opacity="0.57" d="M31.6358 170.506L31.4343 172.321L53.5995 165.062L53.2972 162.44L33.1471 169.901C32.6433 170.103 32.1396 170.305 31.6358 170.506Z" fill="#D1D1D5"/>
<path d="M91.2803 161.835L52.3905 165.666C50.6777 165.868 49.0657 164.557 48.965 162.843L42.9199 101.84C42.7184 100.126 44.0282 98.5123 45.7409 98.4114L84.6308 94.5798C86.3436 94.3782 87.9556 95.689 88.0563 97.4031L94.1014 158.406C94.3029 160.12 92.9931 161.633 91.2803 161.835Z" fill="#3B3047"/>
<g opacity="0.22">
<path opacity="0.22" d="M85.8398 156.995L56.8235 159.818C55.1108 160.02 53.4988 158.709 53.398 156.995L48.2597 104.361C48.0582 102.647 49.368 101.033 51.0807 100.932L80.097 98.1091C81.8098 97.9075 83.4218 99.2183 83.5225 100.932L88.6608 153.567C88.8623 155.281 87.5526 156.793 85.8398 156.995Z" fill="#141C34"/>
</g>
<path d="M75.3617 99.5207L55.7153 101.436C54.8085 101.537 54.0025 100.832 53.9018 99.924L53.5995 96.8991C53.4988 95.9916 54.204 95.1849 55.1108 95.0841L74.7572 93.1683C75.664 93.0675 76.47 93.7733 76.5707 94.6808L76.873 97.7057C76.9737 98.6132 76.2685 99.4199 75.3617 99.5207Z" fill="#141C34"/>
<path d="M91.6834 133.4L88.3586 133.098L90.8773 133.299C92.2879 133.4 93.5976 132.392 93.6984 130.879C93.7991 129.064 92.5901 127.552 90.7766 127.35C89.0638 127.149 86.9481 127.048 84.7315 127.25C82.918 126.443 77.9812 124.225 74.5557 124.628C70.3242 125.132 66.8986 129.569 66.8986 129.569L59.1408 131.686L62.5663 154.676L84.4293 149.231C86.3436 149.432 87.9556 147.92 88.1571 146.105C88.1571 145.601 87.7541 145.097 87.2503 144.996L86.3435 144.895L88.8623 145.097C90.5751 145.198 92.0864 143.988 92.2879 142.173V141.769C92.3886 140.458 91.4818 139.349 90.1721 139.248L86.7466 138.946L91.4819 139.349C92.9931 139.45 94.4036 138.341 94.5044 136.829V136.324C94.4036 134.812 93.1946 133.501 91.6834 133.4Z" fill="#B3CBDC"/>
<path opacity="0.57" d="M87.1496 133.703C86.8473 133.703 86.5451 133.4 86.6458 132.997C86.6458 132.694 86.9481 132.392 87.3511 132.392L91.7841 132.795C92.0864 132.795 92.3886 133.098 92.3886 133.501C92.3886 133.803 92.0864 134.106 91.6834 134.106L87.1496 133.703Z" fill="#779CAF"/>
<path opacity="0.57" d="M91.0789 140.156L85.4368 139.349C85.1346 139.349 84.8323 138.946 84.9331 138.643C84.9331 138.341 85.3361 138.139 85.6383 138.139L91.2804 138.946C91.5826 138.946 91.8849 139.349 91.7841 139.652C91.6834 139.954 91.3811 140.257 91.0789 140.156Z" fill="#779CAF"/>
<path opacity="0.57" d="M83.5225 145.198C83.2203 145.198 82.918 144.895 83.0188 144.492C83.0188 144.189 83.321 143.887 83.724 143.887L87.9556 144.29C88.2578 144.29 88.5601 144.593 88.5601 144.996C88.5601 145.298 88.2578 145.601 87.8548 145.601L83.5225 145.198Z" fill="#779CAF"/>
<path opacity="0.57" d="M72.5407 129.266L84.7315 127.35C84.7315 127.35 73.5482 127.149 72.5407 129.266Z" fill="#779CAF"/>
<path d="M63.3723 130.476C63.1708 128.459 61.1558 127.149 59.2416 127.754H59.1408L36.4718 135.82L43.6252 108.293L43.4237 106.276L43.0207 101.84C42.8192 100.126 43.5244 98.7141 45.2372 98.5124L46.3454 98.4116L46.9499 96.2941C49.9725 88.3284 51.1815 79.4552 43.3229 76.3295C35.3636 73.1028 26.1953 77.0353 23.1727 85.1018L2.92178 137.03C-1.91426 147.315 -0.705249 158.104 6.14581 165.364C9.77285 169.195 14.5081 171.514 19.7472 172.019C23.5757 172.422 27.6058 171.918 31.6358 170.506C32.1396 170.305 32.6433 170.103 33.2478 169.901L53.398 162.44L65.5889 157.902C66.0926 157.701 66.3949 157.196 66.2941 156.692L63.3723 130.476Z" fill="#E3EFF5"/>
<path d="M147.6 53.4406L147.802 51.424C149.817 47.794 149.212 42.0466 148.305 37.9125L145.484 38.5175C145.484 38.5175 133.596 30.5518 127.047 36.4001C125.435 37.8117 126.442 46.0799 128.457 51.8273C128.558 52.029 147.6 53.4406 147.6 53.4406Z" fill="#B3CBDC"/>
<path opacity="0.45" d="M145.988 38.0135C145.988 38.0135 146.391 48.9033 138.734 49.9116C131.077 51.0208 128.357 40.0301 128.357 40.0301C128.357 40.0301 135.309 32.0644 139.54 34.0811C143.772 36.1985 145.988 38.0135 145.988 38.0135Z" fill="#779CAF"/>
<path d="M134.906 59.2889C137.525 59.2889 139.54 57.0706 139.439 54.5498L138.835 23.3928L129.566 23.5945L130.17 54.7514C130.17 57.2722 132.387 59.2889 134.906 59.2889Z" fill="#DFF5FF"/>
<path opacity="0.43" d="M134.905 56.9697C137.021 56.9697 138.734 54.9531 138.633 52.5332L138.029 23.3928L130.372 23.4937L130.875 52.634C130.976 55.0539 132.79 57.0706 134.905 56.9697Z" fill="white"/>
<path d="M134.805 55.3566C136.719 55.3566 138.23 53.7433 138.23 51.8275L137.827 28.5354L130.875 28.6362L131.278 51.9283C131.278 53.8441 132.891 55.3566 134.805 55.3566Z" fill="#9F9FDD"/>
<path d="M129.969 24.0987L138.533 23.897C139.54 23.897 140.346 22.9895 140.346 21.9812C140.346 20.9729 139.439 20.1663 138.432 20.1663L129.868 20.3679C128.86 20.3679 128.054 21.2754 128.054 22.2837C128.054 23.292 128.961 24.0987 129.969 24.0987Z" fill="#C5E4EF"/>
<path opacity="0.43" d="M133.294 35.896C133.294 36.0977 133.495 36.2993 133.697 36.2993C133.898 36.2993 134.1 36.0977 134.1 35.896C134.1 35.6943 133.898 35.4927 133.697 35.4927C133.495 35.4927 133.294 35.6943 133.294 35.896Z" fill="white"/>
<path opacity="0.43" d="M135.611 41.3408C135.611 41.5425 135.812 41.7442 136.014 41.7442C136.215 41.7442 136.417 41.5425 136.417 41.3408C136.417 41.1392 136.215 40.9375 136.014 40.9375C135.812 40.9375 135.611 41.1392 135.611 41.3408Z" fill="white"/>
<path opacity="0.43" d="M132.185 43.8616C132.185 44.0632 132.387 44.2649 132.588 44.2649C132.79 44.2649 132.991 44.0632 132.991 43.8616C132.991 43.6599 132.79 43.4583 132.588 43.4583C132.387 43.4583 132.185 43.6599 132.185 43.8616Z" fill="white"/>
<path d="M147.197 30.35C148.104 31.2575 148.104 32.8708 147.197 33.7783L141.354 39.4248C140.447 40.3323 138.835 40.3323 137.928 39.4248C137.021 38.5173 137.021 36.904 137.928 35.9966L143.772 30.35C144.779 29.3417 146.29 29.3417 147.197 30.35Z" fill="#B3CBDC"/>
<path d="M143.872 26.821C144.779 27.7285 144.779 29.3418 143.872 30.2493L138.029 35.8958C137.122 36.8033 135.51 36.8033 134.603 35.8958C133.696 34.9884 133.696 33.375 134.603 32.4676L140.447 26.821C141.454 25.9135 142.966 25.9135 143.872 26.821Z" fill="#B3CBDC"/>
<path d="M148.91 35.2909C149.817 36.1984 149.817 37.8117 148.91 38.7192L145.384 42.1475C144.477 43.0549 142.865 43.0549 141.958 42.1475C141.051 41.24 141.051 39.6267 141.958 38.7192L145.484 35.2909C146.492 34.2826 148.003 34.2826 148.91 35.2909Z" fill="#B3CBDC"/>
<path d="M126.745 42.1477C125.838 39.7277 126.946 37.1061 129.364 36.0978C131.581 35.1903 134.301 34.6861 136.921 35.9969C136.921 35.9969 139.339 37.6102 136.82 39.3244C134.301 41.0385 129.566 43.2568 128.76 45.0718C127.954 46.8867 128.155 45.7776 128.155 45.7776L126.745 42.1477Z" fill="#B3CBDC"/>
</svg>
