<svg width="86" height="152" viewBox="0 0 86 152" fill="none" xmlns="http://www.w3.org/2000/svg">
<path d="M9.06265 114.469C9.06265 114.469 6.13882 121.35 3.63268 131.983C1.12654 142.617 0.5 152 0.5 152H10.1069L22.6376 121.141L9.06265 114.469Z" fill="#A7B8D5"/>
<path d="M24.5172 70.0576C24.5172 70.0576 19.0872 71.9342 16.5811 80.4829C14.0749 89.0316 4.05037 117.18 9.2715 126.354C14.4926 135.737 24.3083 127.813 24.3083 127.813L24.5172 70.0576Z" fill="#A7B8D5"/>
<path d="M84.0381 151.791C86.7531 131.358 85.2912 88.6144 80.2789 75.2701C74.6401 60.0493 62.3182 55.2537 62.3182 55.2537C62.3182 55.2537 33.0799 62.7598 25.1437 68.598C17.2076 74.8531 17.2076 91.1165 15.1192 110.09C13.4484 123.852 5.72113 139.907 6.55651 151.791H84.0381Z" fill="#C7D9EC"/>
<path d="M34.3329 79.2315C34.3329 79.2315 28.6941 117.596 31.4091 120.098C34.1241 122.809 43.3133 123.643 46.2371 120.515C46.446 112.175 47.699 79.2315 47.699 77.1464C47.699 75.2699 34.3329 79.2315 34.3329 79.2315Z" fill="#24ADB2"/>
<path d="M24.5172 75.4785C24.5172 75.4785 34.3329 89.2398 51.6671 81.5251C69.0012 73.8105 65.8686 54.8365 63.3624 52.543C60.8563 58.1726 56.0528 78.8146 24.5172 75.4785Z" fill="#2493B2"/>
<path d="M22.4288 68.5981C22.4288 68.5981 19.5049 76.5212 30.9914 80.4828C42.4779 84.4444 59.6032 75.8957 63.1536 66.096C66.7039 56.2963 65.0332 46.4965 57.9324 44.4115C50.6229 42.5349 24.5172 61.7174 22.4288 68.5981Z" fill="#24ADB2"/>
<path d="M27.6499 67.3473C27.6499 67.3473 48.7432 77.147 58.1413 52.3349C50.414 47.1223 27.6499 67.3473 27.6499 67.3473Z" fill="#FB8585"/>
<path d="M19.5049 24.8123C19.5049 24.8123 15.328 50.8754 20.758 64.6367C24.9349 70.6834 43.731 65.4708 52.9201 55.4625C62.1093 45.4543 64.8243 28.5654 60.6474 18.3487C56.4705 7.92345 36.8391 7.71494 30.7826 10.0085C24.726 12.302 19.9226 20.6422 19.5049 24.8123Z" fill="#FBA894"/>
<path d="M39.9717 39.6161C39.9717 41.7012 38.301 43.1607 36.4214 43.1607C34.3329 43.1607 32.871 41.4927 32.871 39.6161C32.871 37.5311 34.5418 36.0715 36.4214 36.0715C38.301 36.0715 39.9717 37.5311 39.9717 39.6161Z" fill="#EA8D83"/>
<path d="M23.0553 41.9097C25.0161 41.9097 26.6056 40.3228 26.6056 38.3651C26.6056 36.4075 25.0161 34.8206 23.0553 34.8206C21.0945 34.8206 19.5049 36.4075 19.5049 38.3651C19.5049 40.3228 21.0945 41.9097 23.0553 41.9097Z" fill="#EA8D83"/>
<path d="M41.016 47.1221C41.016 48.3732 39.9717 49.4157 38.5098 49.4157C37.0479 49.4157 36.0037 48.3732 36.0037 47.1221C36.0037 45.8711 37.0479 44.8286 38.5098 44.8286C39.7629 44.6201 41.016 45.6626 41.016 47.1221Z" fill="#FB8585"/>
<path d="M18.043 44.6199C18.043 44.6199 17.8341 44.6199 18.043 44.6199C18.043 46.0794 18.043 47.7474 18.043 49.207C19.5049 49.207 20.5491 48.1645 20.5491 46.9134C20.5491 45.6624 19.2961 44.6199 18.043 44.6199Z" fill="#FB8585"/>
<path d="M34.9594 30.6503C34.9594 30.6503 36.8391 33.1524 39.7629 32.1098C41.016 31.9013 40.8071 33.9864 38.7187 34.4034C36.6302 34.8204 33.9152 34.4034 33.4975 32.3183C33.0798 30.4418 34.3329 29.8163 34.9594 30.6503Z" fill="#505E83"/>
<path d="M24.726 30.0248C24.726 30.0248 23.0553 32.5268 19.9226 31.9013C18.6695 31.6928 19.0872 33.7779 21.1757 33.9864C23.2641 34.1949 25.9791 33.7779 26.188 31.6928C26.3968 29.6078 25.1437 28.9823 24.726 30.0248Z" fill="#505E83"/>
<path d="M27.441 41.4923C27.441 41.4923 23.6818 46.9135 24.0995 49.624C24.3084 52.3346 27.8587 49.8325 27.8587 49.8325C27.8587 49.8325 30.156 51.5006 30.5737 50.458C30.9914 49.4155 28.4853 46.9135 28.4853 46.9135C28.4853 46.9135 30.5737 39.6158 27.441 41.4923Z" fill="#FB6D71"/>
<path d="M25.3526 59.6323C25.3526 59.6323 26.8145 60.2578 28.2764 59.4238C29.1118 59.6323 26.3968 61.7174 25.3526 59.6323Z" fill="#FB6D71"/>
<path d="M33.4975 40.033C33.4975 40.033 35.586 39.616 38.5098 40.867C39.7629 40.867 38.301 39.4075 36.6302 39.199C34.9595 38.9905 33.9152 38.9905 33.4975 39.4075C32.871 39.8245 33.4975 40.033 33.4975 40.033Z" fill="#505E83"/>
<path d="M25.5614 38.7816C25.5614 38.7816 23.473 37.739 20.3403 38.3646C19.0872 38.1561 20.9668 37.1135 22.6376 37.1135C24.3084 37.1135 25.3526 37.5305 25.7703 38.156C26.188 38.7816 25.5614 38.7816 25.5614 38.7816Z" fill="#505E83"/>
<path d="M17.6253 15.2208C17.6253 15.2208 14.9103 16.2634 16.1634 20.2249C17.4165 24.1865 20.1315 24.6035 23.8907 23.3525C27.6499 22.1015 29.3206 26.8971 33.4975 26.2716C37.6744 25.8546 41.2248 23.978 43.9398 25.6461C46.6548 27.3141 45.6106 31.6927 51.6671 32.3182C54.7998 33.7778 54.5909 37.1138 54.1732 39.8244C53.9644 42.535 52.2936 47.9561 52.0848 48.5816C52.9202 49.4156 53.9644 49.2071 54.5909 48.7901C55.4263 48.3731 56.4705 42.535 58.559 41.4924C60.4386 40.4499 62.9447 40.4499 63.7801 39.8244C64.6155 39.1989 65.6597 32.1097 66.7039 31.4842C67.957 30.6502 69.8366 27.9396 69.6278 24.812C69.4189 21.893 67.7482 22.31 67.3305 18.7654C66.9128 15.2208 66.7039 12.5103 64.8243 10.8422C63.5713 9.5912 61.6916 8.34017 58.9767 8.75718C56.0528 9.17419 54.3821 4.79559 50.2052 2.29353C46.0283 -0.208528 40.1806 -0.834042 37.8833 1.25101C35.586 3.54456 32.4533 0.625491 28.903 1.66802C25.3526 2.71054 26.188 6.46363 24.3084 7.08914C22.4287 7.71465 19.7138 8.34017 18.8784 10.8422C18.2518 13.3443 17.6253 15.2208 17.6253 15.2208Z" fill="#505E83"/>
<path d="M57.097 43.1602C57.097 43.1602 64.4066 35.2371 67.3305 41.2837C70.2543 47.1218 55.2174 55.879 54.7997 51.5004C54.5909 47.1218 57.097 43.1602 57.097 43.1602Z" fill="#FBA894"/>
<path d="M59.3943 44.8281C59.3943 44.8281 61.9005 43.3686 62.3182 45.0366C63.5712 48.1642 56.8882 52.1258 57.0971 49.8322C57.0971 47.5387 58.7678 45.4536 59.3943 44.8281Z" fill="#FB8585"/>
<path d="M57.0972 49.2065C57.0972 49.2065 58.768 42.9514 62.3184 42.3258C65.2422 41.7003 65.8687 44.2024 65.2422 45.0364C64.6156 45.6619 64.198 45.0364 64.198 44.4109C64.198 43.7854 62.9449 42.5343 61.0653 44.4109C59.1857 46.2874 58.1415 48.164 57.9326 49.2065C57.7238 50.249 57.3061 49.832 57.0972 49.2065Z" fill="#FB8585"/>
<path d="M22.6376 54.4195C22.6376 54.4195 30.5737 52.7515 34.7506 57.3386C34.3329 57.9641 23.6818 56.5045 22.6376 56.5045C21.1757 56.0875 22.6376 54.4195 22.6376 54.4195Z" fill="#B34C69"/>
<path d="M23.0553 54.2114C23.2641 54.6284 23.6818 55.0454 24.5172 55.254C26.188 55.4625 31.4091 56.505 32.4533 56.088C32.6622 56.088 32.871 55.8795 32.871 55.8795C29.5295 53.5859 24.7261 54.0029 23.0553 54.2114Z" fill="white"/>
<path d="M49.3698 48.3733C49.3698 48.3733 47.4902 51.0838 48.9521 51.7094C50.414 52.1264 49.3698 48.3733 49.3698 48.3733Z" fill="white"/>
<path d="M44.1486 71.5174C44.1486 71.5174 49.1609 67.3473 47.4902 64.0112C45.6106 62.9687 44.3575 67.9728 41.016 68.3898C37.6744 68.8068 29.3206 66.9303 29.1118 68.5983C28.9029 70.0578 34.9595 70.4748 34.9595 70.4748C34.9595 70.4748 28.9029 69.6408 29.1118 70.6833C29.3206 71.7259 34.5418 72.1429 34.5418 72.1429C34.5418 72.1429 28.0676 71.7259 29.1118 72.9769C30.156 74.2279 34.9595 73.6024 34.9595 73.6024C34.9595 73.6024 29.9472 73.8109 31.2002 75.0619C32.2445 76.1045 38.301 75.2704 38.301 75.2704L44.1486 71.5174Z" fill="#FBA894"/>
<path d="M36.2125 77.9804C36.2125 77.9804 34.1241 74.4358 36.2125 72.5593C38.301 70.8912 43.7309 69.8487 45.8194 71.9338C47.9078 74.0188 47.4902 76.5209 47.4902 76.5209L36.2125 77.9804Z" fill="#738EBA"/>
<path d="M82.785 81.7337C82.785 82.5677 80.6966 115.511 63.5712 121.35C46.2371 127.188 34.9594 84.8613 34.9594 76.9381C36.2125 73.8105 43.7309 71.3085 47.4902 74.6445C51.2494 77.7721 57.097 92.7845 59.6032 94.8695C62.3182 96.9546 64.8243 76.1041 70.0454 70.8915C75.2666 65.6788 83.4115 69.0149 82.785 81.7337Z" fill="#A7B8D5"/>
</svg>
