<svg width="94" height="154" viewBox="0 0 94 154" fill="none" xmlns="http://www.w3.org/2000/svg">
<path d="M9.18565 115.976C9.18565 115.976 6.21982 122.947 3.67768 133.72C1.13554 144.494 0.5 154 0.5 154H10.2449L22.9556 122.736L9.18565 115.976Z" fill="#A7B8D5"/>
<path d="M24.8622 70.9795C24.8622 70.9795 19.3542 72.8807 16.8121 81.5419C14.2699 90.2031 4.10137 118.722 9.3975 128.017C14.6936 137.523 24.6503 129.495 24.6503 129.495L24.8622 70.9795Z" fill="#A7B8D5"/>
<path d="M85.238 153.789C87.992 133.086 86.5091 89.7804 81.4248 76.2605C75.705 60.8394 63.2062 55.9807 63.2062 55.9807C63.2062 55.9807 33.5478 63.5857 25.4977 69.5006C17.4476 75.8381 17.4476 92.3154 15.3292 111.539C13.6344 125.481 5.79614 141.748 6.64352 153.789H85.238Z" fill="#C7D9EC"/>
<path d="M34.8189 80.2744C34.8189 80.2744 29.0991 119.144 31.8531 121.679C34.6071 124.425 43.9283 125.27 46.8941 122.102C47.106 113.652 48.377 80.2744 48.377 78.1619C48.377 76.2606 34.8189 80.2744 34.8189 80.2744Z" fill="#24ADB2"/>
<path d="M24.8622 76.4717C24.8622 76.4717 34.819 90.4141 52.4021 82.5979C69.9852 74.7817 66.8076 55.5581 64.2654 53.2344C61.7233 58.9381 56.8509 79.8517 24.8622 76.4717Z" fill="#2493B2"/>
<path d="M22.7438 69.5005C22.7438 69.5005 19.7779 77.5279 31.4294 81.5416C43.0809 85.5554 60.4522 76.8942 64.0536 66.9655C67.6549 57.0369 65.9602 47.1082 58.7574 44.9957C51.3429 43.0945 24.8622 62.5293 22.7438 69.5005Z" fill="#24ADB2"/>
<path d="M28.0399 68.2333C28.0399 68.2333 49.4362 78.162 58.9692 53.0235C51.131 47.7423 28.0399 68.2333 28.0399 68.2333Z" fill="#FB8585"/>
<path d="M19.7779 25.1384C19.7779 25.1384 15.541 51.5444 21.049 65.4868C25.2859 71.613 44.352 66.3318 53.6732 56.1919C62.9943 46.052 65.7483 28.9409 61.5114 18.5897C57.2745 8.02728 37.3611 7.81604 31.2176 10.1398C24.8622 12.4635 20.2016 20.9134 19.7779 25.1384Z" fill="#FBA894"/>
<path d="M40.5388 40.1374C40.5388 42.2498 38.844 43.7286 36.9374 43.7286C34.8189 43.7286 33.336 42.0386 33.336 40.1374C33.336 38.0249 35.0308 36.5461 36.9374 36.5461C38.844 36.5461 40.5388 38.0249 40.5388 40.1374Z" fill="#EA8D83"/>
<path d="M23.3793 42.4612C25.3683 42.4612 26.9807 40.8534 26.9807 38.87C26.9807 36.8866 25.3683 35.2788 23.3793 35.2788C21.3903 35.2788 19.7779 36.8866 19.7779 38.87C19.7779 40.8534 21.3903 42.4612 23.3793 42.4612Z" fill="#EA8D83"/>
<path d="M41.598 47.7423C41.598 49.0097 40.5388 50.066 39.0558 50.066C37.5729 50.066 36.5137 49.0097 36.5137 47.7423C36.5137 46.4748 37.5729 45.4185 39.0558 45.4185C40.3269 45.2073 41.598 46.2635 41.598 47.7423Z" fill="#FB8585"/>
<path d="M18.295 45.2073C18.295 45.2073 18.0832 45.2073 18.295 45.2073C18.295 46.686 18.295 48.376 18.295 49.8547C19.7779 49.8547 20.8372 48.7985 20.8372 47.531C20.8372 46.2635 19.5661 45.2073 18.295 45.2073Z" fill="#FB8585"/>
<path d="M35.4545 31.0537C35.4545 31.0537 37.3611 33.5887 40.3269 32.5325C41.598 32.3212 41.3861 34.4337 39.2677 34.8562C37.1492 35.2787 34.3952 34.8562 33.9715 32.7437C33.5479 30.8425 34.8189 30.2088 35.4545 31.0537Z" fill="#505E83"/>
<path d="M25.074 30.42C25.074 30.42 23.3793 32.955 20.2016 32.3212C18.9305 32.11 19.3542 34.2224 21.4727 34.4337C23.5911 34.6449 26.3451 34.2224 26.557 32.11C26.7688 29.9975 25.4977 29.3637 25.074 30.42Z" fill="#505E83"/>
<path d="M27.8281 42.0386C27.8281 42.0386 24.0148 47.5311 24.4385 50.2773C24.6504 53.0235 28.2517 50.4886 28.2517 50.4886C28.2517 50.4886 30.582 52.1785 31.0057 51.1223C31.4294 50.0661 28.8873 47.5311 28.8873 47.5311C28.8873 47.5311 31.0057 40.1374 27.8281 42.0386Z" fill="#FB6D71"/>
<path d="M26.557 54.5022C26.557 54.5022 29.9465 53.0235 31.6413 56.4034C33.5479 59.9947 29.9465 62.7409 26.557 61.4734C24.2267 60.2059 25.9215 58.9384 25.9215 57.4597C25.9215 55.981 25.4978 55.3472 26.557 54.5022Z" fill="#B34C69"/>
<path d="M30.5821 55.1359C28.6754 53.6571 26.557 54.7134 26.557 54.7134C26.3452 54.7134 26.3452 54.9246 26.3452 54.9246C26.9807 55.5584 28.4636 56.8259 30.5821 55.1359Z" fill="white"/>
<path d="M28.8873 59.9945C27.1925 59.7832 26.1333 59.9945 25.4978 60.417C25.7096 60.8395 25.9215 61.262 26.557 61.6845C28.2518 62.3182 29.9465 61.8957 31.0057 61.0507C30.5821 60.6282 29.7347 60.2057 28.8873 59.9945Z" fill="white"/>
<path d="M26.9807 63.5858C26.9807 63.5858 28.4636 64.2195 29.9465 63.3745C30.7939 63.5858 28.2517 65.6982 26.9807 63.5858Z" fill="#FB6D71"/>
<path d="M33.9715 40.5597C33.9715 40.5597 36.09 40.1372 39.0558 41.4047C40.3269 41.4047 38.844 39.9259 37.1492 39.7147C35.4545 39.5034 34.3952 39.5034 33.9715 39.9259C33.336 40.3484 33.9715 40.5597 33.9715 40.5597Z" fill="#505E83"/>
<path d="M25.9214 39.2923C25.9214 39.2923 23.803 38.236 20.6253 38.8698C19.3542 38.6585 21.2608 37.6023 22.9556 37.6023C24.6504 37.6023 25.7096 38.0248 26.1333 38.6585C26.557 39.2923 25.9214 39.2923 25.9214 39.2923Z" fill="#505E83"/>
<path d="M17.8713 15.4212C17.8713 15.4212 15.1173 16.4774 16.3884 20.4911C17.6595 24.5048 20.4135 24.9273 24.2267 23.6598C28.0399 22.3923 29.7346 27.2511 33.9715 26.6173C38.2084 26.1948 41.8098 24.2936 44.5638 25.9836C47.3178 27.6736 46.2586 32.1098 52.4021 32.7435C55.5797 34.2223 55.3679 37.6022 54.9442 40.3485C54.7324 43.0947 53.0376 48.5871 52.8258 49.2209C53.6731 50.0659 54.7324 49.8546 55.3679 49.4321C56.2153 49.0096 57.2745 43.0947 59.3929 42.0384C61.2995 40.9822 63.8417 40.9822 64.6891 40.3485C65.5365 39.7147 66.5957 32.5323 67.6549 31.8985C68.926 31.0535 70.8326 28.3073 70.6207 25.1386C70.4089 22.1811 68.7141 22.6036 68.2904 19.0124C67.8667 15.4212 67.6549 12.6749 65.7483 10.9849C64.4772 9.71745 62.5706 8.44996 59.8166 8.87246C56.8508 9.29496 55.156 4.85874 50.9191 2.32376C46.6822 -0.211217 40.7506 -0.844962 38.4203 1.26752C36.09 3.59125 32.9123 0.633776 29.3109 1.69002C25.7096 2.74626 26.557 6.54873 24.6504 7.18247C22.7437 7.81622 19.9898 8.44996 19.1424 10.9849C18.5068 13.5199 17.8713 15.4212 17.8713 15.4212Z" fill="#505E83"/>
<path d="M57.91 43.7285C57.91 43.7285 65.3246 35.7011 68.2905 41.8273C71.2563 47.7422 56.0034 56.6147 55.5797 52.1785C55.3679 47.7422 57.91 43.7285 57.91 43.7285Z" fill="#FBA894"/>
<path d="M60.2403 45.4184C60.2403 45.4184 62.7825 43.9397 63.2062 45.6297C64.4773 48.7984 57.6982 52.8121 57.9101 50.4884C57.9101 48.1646 59.6048 46.0522 60.2403 45.4184Z" fill="#FB8585"/>
<path d="M57.9098 49.8547C57.9098 49.8547 59.6045 43.5173 63.2059 42.8835C66.1717 42.2498 66.8073 44.7848 66.1717 45.6298C65.5362 46.2635 65.1125 45.6298 65.1125 44.996C65.1125 44.3623 63.8414 43.0948 61.9348 44.996C60.0282 46.8973 58.969 48.7985 58.7572 49.8547C58.5453 50.911 58.1216 50.4885 57.9098 49.8547Z" fill="#FB8585"/>
<path d="M49.0126 35.4897C49.0126 35.4897 47.1059 38.236 48.5889 38.8697C50.2836 39.2922 49.0126 35.4897 49.0126 35.4897Z" fill="white"/>
<path d="M50.0718 49.0095C50.0718 49.0095 48.1652 51.7557 49.6481 52.3895C51.131 52.812 50.0718 49.0095 50.0718 49.0095Z" fill="white"/>
<path d="M41.5979 26.8284C41.5979 26.8284 39.6913 29.5746 41.1743 30.2083C42.6572 30.6308 41.5979 26.8284 41.5979 26.8284Z" fill="white"/>
<path d="M54.0968 106.047C54.0968 106.047 54.7323 97.1741 52.6139 96.7516C50.4954 96.3291 51.3428 100.554 50.4954 102.244C50.0718 103.089 45.623 95.0616 44.1401 95.4841C42.6572 95.9066 46.2585 102.033 46.2585 102.033C46.2585 102.033 42.0216 96.9629 41.5979 98.2304C41.1743 99.2866 44.5638 103.723 45.4112 104.779C45.4112 104.779 40.9624 99.4979 40.5387 100.977C40.115 102.455 43.9282 107.103 43.9282 107.103C43.9282 107.103 40.7506 103.723 40.5387 104.99C40.115 106.258 44.3519 112.384 47.7415 114.074C50.4954 115.13 55.156 111.75 54.0968 106.047Z" fill="#FBA894"/>
<path d="M48.1652 119.144C48.1652 119.144 45.4112 115.764 45.623 113.229C46.0467 111.328 52.4021 108.37 55.3679 109.849C58.1219 111.75 58.5456 115.342 58.5456 115.342L48.1652 119.144Z" fill="#738EBA"/>
<path d="M79.7301 73.7259C79.7301 73.7259 106.846 118.722 84.8143 144.917C65.1127 168.154 47.3178 129.495 46.0467 117.454C46.0467 117.454 49.8599 110.272 58.5456 111.117C58.5456 111.117 65.9601 124.426 71.8918 126.115C77.8235 127.805 57.6982 95.2732 63.2061 84.0771C68.5023 72.8809 75.0695 70.5572 79.7301 73.7259Z" fill="#A7B8D5"/>
</svg>
